NotoSansMyanmar-CondensedSemiBold.ufo
<glyph name="question" format="2">
  <advance width="369"/>
  <unicode hex="003F"/>
  <outline>
    <contour>
      <point x="104" y="270" type="line"/>
      <point x="212" y="270" type="line"/>
      <point x="214" y="281" type="line" smooth="yes"/>
      <point x="217" y="298"/>
      <point x="218" y="312"/>
      <point x="264" y="360" type="curve" smooth="yes"/>
      <point x="322" y="421"/>
      <point x="353" y="466"/>
      <point x="353" y="552" type="curve" smooth="yes"/>
      <point x="353" y="659"/>
      <point x="290" y="724"/>
      <point x="172" y="724" type="curve" smooth="yes"/>
      <point x="115" y="724"/>
      <point x="60" y="704"/>
      <point x="5" y="664" type="curve"/>
      <point x="49" y="562" type="line"/>
      <point x="90" y="591"/>
      <point x="125" y="607"/>
      <point x="161" y="607" type="curve" smooth="yes"/>
      <point x="203" y="607"/>
      <point x="225" y="584"/>
      <point x="225" y="540" type="curve" smooth="yes"/>
      <point x="225" y="495"/>
      <point x="210" y="467"/>
      <point x="166" y="422" type="curve" smooth="yes"/>
      <point x="120" y="375"/>
      <point x="104" y="330"/>
      <point x="104" y="282" type="curve" smooth="yes"/>
    </contour>
    <contour>
      <point x="162" y="-9" type="curve" smooth="yes"/>
      <point x="222" y="-9"/>
      <point x="265" y="33"/>
      <point x="265" y="107" type="curve" smooth="yes"/>
      <point x="265" y="175"/>
      <point x="224" y="220"/>
      <point x="162" y="220" type="curve" smooth="yes"/>
      <point x="102" y="220"/>
      <point x="61" y="177"/>
      <point x="61" y="106" type="curve" smooth="yes"/>
      <point x="61" y="32"/>
      <point x="102" y="-9"/>
    </contour>
    <contour>
      <point x="164" y="61" type="curve" smooth="yes"/>
      <point x="141" y="61"/>
      <point x="130" y="78"/>
      <point x="130" y="106" type="curve" smooth="yes"/>
      <point x="130" y="135"/>
      <point x="145" y="151"/>
      <point x="164" y="151" type="curve" smooth="yes"/>
      <point x="183" y="151"/>
      <point x="196" y="135"/>
      <point x="196" y="106" type="curve" smooth="yes"/>
      <point x="196" y="78"/>
      <point x="183" y="61"/>
    </contour>
  </outline>
</glyph>
<glyph name="ka" format="2">
  <advance width="837"/>
  <unicode hex="1000"/>
  <note>
ka
</note>
  <outline>
    <contour>
      <point x="148" y="-10" type="curve"/>
      <point x="211" y="92" type="line"/>
      <point x="175" y="141"/>
      <point x="167" y="196"/>
      <point x="167" y="267" type="curve" smooth="yes"/>
      <point x="167" y="374"/>
      <point x="196" y="443"/>
      <point x="262" y="443" type="curve" smooth="yes"/>
      <point x="328" y="443"/>
      <point x="358" y="375"/>
      <point x="358" y="267" type="curve" smooth="yes"/>
      <point x="358" y="197"/>
      <point x="346" y="137"/>
      <point x="300" y="92" type="curve"/>
      <point x="363" y="-10" type="line"/>
      <point x="439" y="43"/>
      <point x="475" y="139"/>
      <point x="475" y="268" type="curve" smooth="yes"/>
      <point x="475" y="436"/>
      <point x="400" y="553"/>
      <point x="257" y="553" type="curve" smooth="yes"/>
      <point x="112" y="553"/>
      <point x="35" y="437"/>
      <point x="35" y="268" type="curve" smooth="yes"/>
      <point x="35" y="138"/>
      <point x="82" y="39"/>
    </contour>
    <contour>
      <point x="602" y="-10" type="curve" smooth="yes"/>
      <point x="712" y="-10"/>
      <point x="802" y="105"/>
      <point x="802" y="271" type="curve" smooth="yes"/>
      <point x="802" y="434"/>
      <point x="717" y="553"/>
      <point x="574" y="553" type="curve" smooth="yes"/>
      <point x="510" y="553"/>
      <point x="450" y="516"/>
      <point x="413" y="442" type="curve"/>
      <point x="469" y="327" type="line"/>
      <point x="478" y="393"/>
      <point x="509" y="443"/>
      <point x="566" y="443" type="curve" smooth="yes"/>
      <point x="638" y="443"/>
      <point x="670" y="376"/>
      <point x="670" y="271" type="curve" smooth="yes"/>
      <point x="670" y="167"/>
      <point x="640" y="100"/>
      <point x="591" y="100" type="curve" smooth="yes"/>
      <point x="574" y="100"/>
      <point x="551" y="105"/>
      <point x="538" y="117" type="curve"/>
      <point x="495" y="20" type="line"/>
      <point x="520" y="-1"/>
      <point x="570" y="-10"/>
    </contour>
  </outline>
</glyph>
<glyph name="kha" format="2">
  <advance width="536"/>
  <unicode hex="1001"/>
  <note>
kha
</note>
  <outline>
    <contour>
      <point x="274" y="-10" type="curve" smooth="yes"/>
      <point x="406" y="-10"/>
      <point x="501" y="100"/>
      <point x="501" y="272" type="curve" smooth="yes"/>
      <point x="501" y="440"/>
      <point x="413" y="553"/>
      <point x="259" y="553" type="curve" smooth="yes"/>
      <point x="173" y="553"/>
      <point x="99" y="506"/>
      <point x="51" y="467" type="curve"/>
      <point x="101" y="376" type="line"/>
      <point x="156" y="424"/>
      <point x="215" y="443"/>
      <point x="262" y="443" type="curve" smooth="yes"/>
      <point x="335" y="443"/>
      <point x="372" y="382"/>
      <point x="372" y="272" type="curve" smooth="yes"/>
      <point x="372" y="172"/>
      <point x="340" y="96"/>
      <point x="268" y="96" type="curve" smooth="yes"/>
      <point x="229" y="96"/>
      <point x="189" y="121"/>
      <point x="177" y="159" type="curve"/>
      <point x="207" y="182"/>
      <point x="238" y="196"/>
      <point x="265" y="196" type="curve" smooth="yes"/>
      <point x="306" y="196"/>
      <point x="343" y="179"/>
      <point x="380" y="145" type="curve"/>
      <point x="396" y="228" type="line"/>
      <point x="344" y="271"/>
      <point x="303" y="286"/>
      <point x="256" y="286" type="curve" smooth="yes"/>
      <point x="172" y="286"/>
      <point x="106" y="257"/>
      <point x="43" y="206" type="curve"/>
      <point x="56" y="73"/>
      <point x="146" y="-10"/>
    </contour>
  </outline>
</glyph>
<glyph name="gha" format="2">
  <advance width="836"/>
  <unicode hex="1003"/>
  <note>
gha
</note>
  <outline>
    <contour>
      <point x="248" y="-10" type="curve" smooth="yes"/>
      <point x="408" y="-10"/>
      <point x="474" y="102"/>
      <point x="474" y="275" type="curve" smooth="yes"/>
      <point x="474" y="402"/>
      <point x="432" y="494"/>
      <point x="363" y="553" type="curve"/>
      <point x="300" y="451" type="line"/>
      <point x="346" y="402"/>
      <point x="357" y="345"/>
      <point x="357" y="275" type="curve" smooth="yes"/>
      <point x="357" y="168"/>
      <point x="329" y="100"/>
      <point x="254" y="100" type="curve" smooth="yes"/>
      <point x="201" y="100"/>
      <point x="167" y="136"/>
      <point x="167" y="196" type="curve" smooth="yes"/>
      <point x="167" y="230"/>
      <point x="173" y="263"/>
      <point x="202" y="305" type="curve" smooth="yes"/>
      <point x="233" y="349"/>
      <point x="261" y="382"/>
      <point x="261" y="434" type="curve" smooth="yes"/>
      <point x="261" y="500"/>
      <point x="220" y="553"/>
      <point x="144" y="553" type="curve" smooth="yes"/>
      <point x="96" y="553"/>
      <point x="45" y="529"/>
      <point x="18" y="477" type="curve"/>
      <point x="70" y="409" type="line"/>
      <point x="84" y="429"/>
      <point x="101" y="443"/>
      <point x="123" y="443" type="curve" smooth="yes"/>
      <point x="137" y="443"/>
      <point x="147" y="433"/>
      <point x="147" y="418" type="curve" smooth="yes"/>
      <point x="147" y="395"/>
      <point x="124" y="385"/>
      <point x="95" y="350" type="curve" smooth="yes"/>
      <point x="58" y="306"/>
      <point x="35" y="252"/>
      <point x="35" y="191" type="curve" smooth="yes"/>
      <point x="35" y="70"/>
      <point x="120" y="-10"/>
    </contour>
    <contour>
      <point x="581" y="-10" type="curve" smooth="yes"/>
      <point x="712" y="-10"/>
      <point x="801" y="107"/>
      <point x="801" y="271" type="curve" smooth="yes"/>
      <point x="801" y="438"/>
      <point x="736" y="553"/>
      <point x="598" y="553" type="curve" smooth="yes"/>
      <point x="548" y="553"/>
      <point x="522" y="541"/>
      <point x="497" y="523" type="curve"/>
      <point x="539" y="426" type="line"/>
      <point x="555" y="439"/>
      <point x="571" y="443"/>
      <point x="591" y="443" type="curve" smooth="yes"/>
      <point x="638" y="443"/>
      <point x="669" y="375"/>
      <point x="669" y="272" type="curve" smooth="yes"/>
      <point x="669" y="168"/>
      <point x="634" y="95"/>
      <point x="575" y="95" type="curve" smooth="yes"/>
      <point x="520" y="95"/>
      <point x="483" y="138"/>
      <point x="444" y="209" type="curve"/>
      <point x="391" y="96" type="line"/>
      <point x="441" y="33"/>
      <point x="494" y="-10"/>
    </contour>
  </outline>
</glyph>
<glyph name="nga" format="2">
  <advance width="510"/>
  <unicode hex="1004"/>
  <note>
nga
</note>
  <outline>
    <contour>
      <point x="272" y="-9" type="curve" smooth="yes"/>
      <point x="364" y="-9"/>
      <point x="439" y="52"/>
      <point x="475" y="138" type="curve"/>
      <point x="375" y="188" type="line"/>
      <point x="350" y="129"/>
      <point x="321" y="101"/>
      <point x="278" y="101" type="curve" smooth="yes"/>
      <point x="211" y="101"/>
      <point x="167" y="169"/>
      <point x="167" y="272" type="curve" smooth="yes"/>
      <point x="167" y="373"/>
      <point x="209" y="443"/>
      <point x="278" y="443" type="curve" smooth="yes"/>
      <point x="317" y="443"/>
      <point x="344" y="419"/>
      <point x="368" y="356" type="curve"/>
      <point x="461" y="411" type="line"/>
      <point x="428" y="497"/>
      <point x="353" y="553"/>
      <point x="272" y="553" type="curve" smooth="yes"/>
      <point x="133" y="553"/>
      <point x="35" y="436"/>
      <point x="35" y="272" type="curve" smooth="yes"/>
      <point x="35" y="107"/>
      <point x="135" y="-9"/>
    </contour>
  </outline>
</glyph>
<glyph name="ca" format="2">
  <advance width="539"/>
  <unicode hex="1005"/>
  <note>
ca
</note>
  <outline>
    <contour>
      <point x="271" y="-10" type="curve" smooth="yes"/>
      <point x="408" y="-10"/>
      <point x="504" y="105"/>
      <point x="504" y="271" type="curve" smooth="yes"/>
      <point x="504" y="433"/>
      <point x="412" y="553"/>
      <point x="270" y="553" type="curve" smooth="yes"/>
      <point x="133" y="553"/>
      <point x="35" y="436"/>
      <point x="35" y="271" type="curve" smooth="yes"/>
      <point x="35" y="106"/>
      <point x="133" y="-10"/>
    </contour>
    <contour>
      <point x="247" y="86" type="line"/>
      <point x="273" y="142"/>
      <point x="284" y="198"/>
      <point x="284" y="270" type="curve" smooth="yes"/>
      <point x="284" y="347"/>
      <point x="268" y="405"/>
      <point x="250" y="453" type="curve"/>
      <point x="175" y="433" type="line"/>
      <point x="199" y="376"/>
      <point x="206" y="331"/>
      <point x="206" y="272" type="curve" smooth="yes"/>
      <point x="206" y="211"/>
      <point x="199" y="167"/>
      <point x="172" y="109" type="curve"/>
    </contour>
    <contour>
      <point x="257" y="100" type="curve" smooth="yes"/>
      <point x="171" y="100"/>
      <point x="134" y="168"/>
      <point x="134" y="271" type="curve" smooth="yes"/>
      <point x="134" y="366"/>
      <point x="170" y="443"/>
      <point x="257" y="443" type="curve" smooth="yes"/>
      <point x="326" y="443"/>
      <point x="372" y="375"/>
      <point x="372" y="271" type="curve" smooth="yes"/>
      <point x="372" y="165"/>
      <point x="322" y="100"/>
    </contour>
  </outline>
</glyph>
<glyph name="cha" format="2">
  <advance width="840"/>
  <unicode hex="1006"/>
  <note>
cha
</note>
  <outline>
    <contour>
      <point x="256" y="-10" type="curve" smooth="yes"/>
      <point x="388" y="-10"/>
      <point x="483" y="100"/>
      <point x="483" y="272" type="curve" smooth="yes"/>
      <point x="483" y="440"/>
      <point x="395" y="553"/>
      <point x="241" y="553" type="curve" smooth="yes"/>
      <point x="159" y="553"/>
      <point x="89" y="506"/>
      <point x="43" y="467" type="curve"/>
      <point x="93" y="376" type="line"/>
      <point x="145" y="424"/>
      <point x="200" y="443"/>
      <point x="244" y="443" type="curve" smooth="yes"/>
      <point x="317" y="443"/>
      <point x="354" y="382"/>
      <point x="354" y="272" type="curve" smooth="yes"/>
      <point x="354" y="168"/>
      <point x="334" y="96"/>
      <point x="250" y="96" type="curve" smooth="yes"/>
      <point x="210" y="96"/>
      <point x="169" y="121"/>
      <point x="157" y="159" type="curve"/>
      <point x="188" y="182"/>
      <point x="219" y="196"/>
      <point x="247" y="196" type="curve" smooth="yes"/>
      <point x="288" y="196"/>
      <point x="325" y="179"/>
      <point x="362" y="145" type="curve"/>
      <point x="378" y="228" type="line"/>
      <point x="326" y="271"/>
      <point x="285" y="286"/>
      <point x="238" y="286" type="curve" smooth="yes"/>
      <point x="158" y="286"/>
      <point x="95" y="257"/>
      <point x="35" y="206" type="curve"/>
      <point x="47" y="73"/>
      <point x="134" y="-10"/>
    </contour>
    <contour>
      <point x="588" y="-10" type="curve" smooth="yes"/>
      <point x="726" y="-10"/>
      <point x="805" y="105"/>
      <point x="805" y="271" type="curve" smooth="yes"/>
      <point x="805" y="433"/>
      <point x="727" y="553"/>
      <point x="584" y="553" type="curve" smooth="yes"/>
      <point x="484" y="553"/>
      <point x="436" y="512"/>
      <point x="404" y="452" type="curve"/>
      <point x="457" y="333" type="line"/>
      <point x="473" y="407"/>
      <point x="497" y="448"/>
      <point x="565" y="448" type="curve" smooth="yes"/>
      <point x="629" y="448"/>
      <point x="673" y="380"/>
      <point x="673" y="271" type="curve" smooth="yes"/>
      <point x="673" y="169"/>
      <point x="631" y="100"/>
      <point x="570" y="100" type="curve" smooth="yes"/>
      <point x="501" y="100"/>
      <point x="473" y="148"/>
      <point x="454" y="209" type="curve"/>
      <point x="402" y="91" type="line"/>
      <point x="442" y="29"/>
      <point x="514" y="-10"/>
    </contour>
  </outline>
</glyph>
<glyph name="jha" format="2">
  <advance width="729"/>
  <unicode hex="1008"/>
  <note>
jha
</note>
  <outline>
    <contour>
      <point x="499" y="-473" type="curve" smooth="yes"/>
      <point x="615" y="-473"/>
      <point x="689" y="-377"/>
      <point x="689" y="-212" type="curve" smooth="yes"/>
      <point x="689" y="543" type="line"/>
      <point x="558" y="543" type="line"/>
      <point x="558" y="-198" type="line" smooth="yes"/>
      <point x="558" y="-310"/>
      <point x="542" y="-363"/>
      <point x="502" y="-363" type="curve" smooth="yes"/>
      <point x="463" y="-363"/>
      <point x="446" y="-311"/>
      <point x="446" y="-198" type="curve" smooth="yes"/>
      <point x="446" y="106" type="line"/>
      <point x="315" y="10" type="line"/>
      <point x="315" y="-211" type="line" smooth="yes"/>
      <point x="315" y="-379"/>
      <point x="387" y="-473"/>
    </contour>
    <contour>
      <point x="271" y="-10" type="curve" smooth="yes"/>
      <point x="408" y="-10"/>
      <point x="504" y="105"/>
      <point x="504" y="271" type="curve" smooth="yes"/>
      <point x="504" y="433"/>
      <point x="412" y="553"/>
      <point x="270" y="553" type="curve" smooth="yes"/>
      <point x="133" y="553"/>
      <point x="35" y="436"/>
      <point x="35" y="271" type="curve" smooth="yes"/>
      <point x="35" y="106"/>
      <point x="133" y="-10"/>
    </contour>
    <contour>
      <point x="257" y="100" type="curve" smooth="yes"/>
      <point x="171" y="100"/>
      <point x="134" y="168"/>
      <point x="134" y="271" type="curve" smooth="yes"/>
      <point x="134" y="366"/>
      <point x="170" y="443"/>
      <point x="257" y="443" type="curve" smooth="yes"/>
      <point x="326" y="443"/>
      <point x="372" y="375"/>
      <point x="372" y="271" type="curve" smooth="yes"/>
      <point x="372" y="165"/>
      <point x="322" y="100"/>
    </contour>
    <contour>
      <point x="247" y="86" type="line"/>
      <point x="273" y="142"/>
      <point x="284" y="198"/>
      <point x="284" y="270" type="curve" smooth="yes"/>
      <point x="284" y="347"/>
      <point x="268" y="405"/>
      <point x="250" y="453" type="curve"/>
      <point x="175" y="433" type="line"/>
      <point x="199" y="376"/>
      <point x="206" y="331"/>
      <point x="206" y="272" type="curve" smooth="yes"/>
      <point x="206" y="211"/>
      <point x="199" y="167"/>
      <point x="172" y="109" type="curve"/>
    </contour>
  </outline>
</glyph>
<glyph name="tta" format="2">
  <advance width="515"/>
  <unicode hex="100B"/>
  <note>
tta
</note>
  <outline>
    <contour>
      <point x="344" y="-466" type="line"/>
      <point x="539" y="-466" type="line"/>
      <point x="539" y="-362" type="line"/>
      <point x="475" y="-362" type="line"/>
      <point x="475" y="-193" type="line"/>
      <point x="413" y="-233"/>
      <point x="337" y="-243"/>
      <point x="287" y="-243" type="curve" smooth="yes"/>
      <point x="248" y="-243"/>
      <point x="223" y="-237"/>
      <point x="207" y="-231" type="curve"/>
      <point x="207" y="-164" type="line"/>
      <point x="227" y="-171"/>
      <point x="250" y="-175"/>
      <point x="287" y="-175" type="curve" smooth="yes"/>
      <point x="339" y="-175"/>
      <point x="419" y="-157"/>
      <point x="475" y="-111" type="curve"/>
      <point x="475" y="138" type="line"/>
      <point x="344" y="47" type="line"/>
      <point x="344" y="-51" type="line"/>
      <point x="316" y="-63"/>
      <point x="293" y="-65"/>
      <point x="257" y="-65" type="curve" smooth="yes"/>
      <point x="197" y="-65"/>
      <point x="135" y="-40"/>
      <point x="73" y="0" type="curve"/>
      <point x="73" y="-303" type="line"/>
      <point x="135" y="-338"/>
      <point x="197" y="-353"/>
      <point x="263" y="-353" type="curve" smooth="yes"/>
      <point x="292" y="-353"/>
      <point x="319" y="-352"/>
      <point x="344" y="-346" type="curve"/>
    </contour>
    <contour>
      <point x="272" y="-9" type="curve" smooth="yes"/>
      <point x="364" y="-9"/>
      <point x="439" y="52"/>
      <point x="475" y="138" type="curve"/>
      <point x="375" y="188" type="line"/>
      <point x="350" y="129"/>
      <point x="321" y="101"/>
      <point x="278" y="101" type="curve" smooth="yes"/>
      <point x="211" y="101"/>
      <point x="167" y="169"/>
      <point x="167" y="272" type="curve" smooth="yes"/>
      <point x="167" y="373"/>
      <point x="209" y="443"/>
      <point x="278" y="443" type="curve" smooth="yes"/>
      <point x="317" y="443"/>
      <point x="344" y="419"/>
      <point x="368" y="356" type="curve"/>
      <point x="461" y="411" type="line"/>
      <point x="428" y="497"/>
      <point x="353" y="553"/>
      <point x="272" y="553" type="curve" smooth="yes"/>
      <point x="133" y="553"/>
      <point x="35" y="436"/>
      <point x="35" y="272" type="curve" smooth="yes"/>
      <point x="35" y="107"/>
      <point x="135" y="-9"/>
    </contour>
  </outline>
</glyph>
<glyph name="ttha" format="2">
  <advance width="515"/>
  <unicode hex="100C"/>
  <note>
ttha
</note>
  <outline>
    <contour>
      <point x="229" y="-466" type="curve" smooth="yes"/>
      <point x="308" y="-466" type="line" smooth="yes"/>
      <point x="420" y="-466"/>
      <point x="474" y="-395"/>
      <point x="474" y="-253" type="curve" smooth="yes"/>
      <point x="474" y="138" type="line"/>
      <point x="341" y="23" type="line"/>
      <point x="341" y="-264" type="line" smooth="yes"/>
      <point x="341" y="-323"/>
      <point x="331" y="-356"/>
      <point x="289" y="-356" type="curve" smooth="yes"/>
      <point x="237" y="-356" type="line" smooth="yes"/>
      <point x="193" y="-356"/>
      <point x="177" y="-336"/>
      <point x="177" y="-307" type="curve" smooth="yes"/>
      <point x="177" y="-279"/>
      <point x="195" y="-262"/>
      <point x="219" y="-262" type="curve" smooth="yes"/>
      <point x="241" y="-262"/>
      <point x="256" y="-273"/>
      <point x="272" y="-287" type="curve"/>
      <point x="312" y="-201" type="line"/>
      <point x="284" y="-171"/>
      <point x="247" y="-152"/>
      <point x="197" y="-152" type="curve" smooth="yes"/>
      <point x="117" y="-152"/>
      <point x="44" y="-200"/>
      <point x="44" y="-298" type="curve" smooth="yes"/>
      <point x="44" y="-411"/>
      <point x="114" y="-466"/>
    </contour>
    <contour>
      <point x="272" y="-9" type="curve" smooth="yes"/>
      <point x="364" y="-9"/>
      <point x="439" y="52"/>
      <point x="475" y="138" type="curve"/>
      <point x="375" y="188" type="line"/>
      <point x="350" y="129"/>
      <point x="321" y="101"/>
      <point x="278" y="101" type="curve" smooth="yes"/>
      <point x="211" y="101"/>
      <point x="167" y="169"/>
      <point x="167" y="272" type="curve" smooth="yes"/>
      <point x="167" y="373"/>
      <point x="209" y="443"/>
      <point x="278" y="443" type="curve" smooth="yes"/>
      <point x="317" y="443"/>
      <point x="344" y="419"/>
      <point x="368" y="356" type="curve"/>
      <point x="461" y="411" type="line"/>
      <point x="428" y="497"/>
      <point x="353" y="553"/>
      <point x="272" y="553" type="curve" smooth="yes"/>
      <point x="133" y="553"/>
      <point x="35" y="436"/>
      <point x="35" y="272" type="curve" smooth="yes"/>
      <point x="35" y="107"/>
      <point x="135" y="-9"/>
    </contour>
  </outline>
</glyph>
<glyph name="dda" format="2">
  <advance width="515"/>
  <unicode hex="100D"/>
  <note>
dda
</note>
  <outline>
    <contour>
      <point x="308" y="-466" type="line"/>
      <point x="506" y="-466" type="line"/>
      <point x="506" y="-362" type="line"/>
      <point x="442" y="-362" type="line"/>
      <point x="442" y="-15" type="line"/>
      <point x="380" y="-55"/>
      <point x="318" y="-80"/>
      <point x="258" y="-80" type="curve" smooth="yes"/>
      <point x="222" y="-80"/>
      <point x="199" y="-78"/>
      <point x="171" y="-66" type="curve"/>
      <point x="171" y="47" type="line"/>
      <point x="40" y="138" type="line"/>
      <point x="40" y="-126" type="line"/>
      <point x="96" y="-172"/>
      <point x="176" y="-190"/>
      <point x="228" y="-190" type="curve" smooth="yes"/>
      <point x="265" y="-190"/>
      <point x="288" y="-186"/>
      <point x="308" y="-179" type="curve"/>
    </contour>
    <contour>
      <point x="243" y="-9" type="curve" smooth="yes"/>
      <point x="380" y="-9"/>
      <point x="480" y="107"/>
      <point x="480" y="272" type="curve" smooth="yes"/>
      <point x="480" y="436"/>
      <point x="382" y="553"/>
      <point x="243" y="553" type="curve" smooth="yes"/>
      <point x="162" y="553"/>
      <point x="87" y="497"/>
      <point x="54" y="411" type="curve"/>
      <point x="142" y="356" type="line"/>
      <point x="167" y="419"/>
      <point x="196" y="443"/>
      <point x="237" y="443" type="curve" smooth="yes"/>
      <point x="306" y="443"/>
      <point x="348" y="373"/>
      <point x="348" y="272" type="curve" smooth="yes"/>
      <point x="348" y="169"/>
      <point x="304" y="101"/>
      <point x="237" y="101" type="curve" smooth="yes"/>
      <point x="192" y="101"/>
      <point x="161" y="129"/>
      <point x="135" y="188" type="curve"/>
      <point x="40" y="138" type="line"/>
      <point x="76" y="52"/>
      <point x="151" y="-9"/>
    </contour>
  </outline>
</glyph>
<glyph name="ddha" format="2">
  <advance width="532"/>
  <unicode hex="100E"/>
  <note>
ddha
</note>
  <outline>
    <contour>
      <point x="264" y="-10" type="curve" smooth="yes"/>
      <point x="422" y="-10"/>
      <point x="497" y="106"/>
      <point x="497" y="275" type="curve" smooth="yes"/>
      <point x="497" y="402"/>
      <point x="451" y="502"/>
      <point x="381" y="553" type="curve"/>
      <point x="318" y="451" type="line"/>
      <point x="356" y="402"/>
      <point x="365" y="345"/>
      <point x="365" y="275" type="curve" smooth="yes"/>
      <point x="365" y="168"/>
      <point x="337" y="100"/>
      <point x="262" y="100" type="curve" smooth="yes"/>
      <point x="209" y="100"/>
      <point x="175" y="136"/>
      <point x="175" y="196" type="curve" smooth="yes"/>
      <point x="175" y="230"/>
      <point x="181" y="263"/>
      <point x="210" y="305" type="curve" smooth="yes"/>
      <point x="241" y="349"/>
      <point x="269" y="382"/>
      <point x="269" y="434" type="curve" smooth="yes"/>
      <point x="269" y="500"/>
      <point x="228" y="553"/>
      <point x="152" y="553" type="curve" smooth="yes"/>
      <point x="104" y="553"/>
      <point x="53" y="529"/>
      <point x="26" y="477" type="curve"/>
      <point x="78" y="409" type="line"/>
      <point x="92" y="429"/>
      <point x="109" y="443"/>
      <point x="131" y="443" type="curve" smooth="yes"/>
      <point x="145" y="443"/>
      <point x="155" y="433"/>
      <point x="155" y="418" type="curve" smooth="yes"/>
      <point x="155" y="395"/>
      <point x="132" y="385"/>
      <point x="103" y="350" type="curve" smooth="yes"/>
      <point x="66" y="306"/>
      <point x="43" y="252"/>
      <point x="43" y="191" type="curve" smooth="yes"/>
      <point x="43" y="70"/>
      <point x="128" y="-10"/>
    </contour>
  </outline>
</glyph>
<glyph name="nna" format="2">
  <advance width="1053"/>
  <unicode hex="100F"/>
  <note>
nna
</note>
  <outline>
    <contour>
      <point x="526" y="-9" type="curve" smooth="yes"/>
      <point x="619" y="-9"/>
      <point x="673" y="44"/>
      <point x="673" y="146" type="curve" smooth="yes"/>
      <point x="673" y="193"/>
      <point x="668" y="224"/>
      <point x="668" y="272" type="curve" smooth="yes"/>
      <point x="668" y="378"/>
      <point x="712" y="443"/>
      <point x="776" y="443" type="curve" smooth="yes"/>
      <point x="842" y="443"/>
      <point x="886" y="376"/>
      <point x="886" y="271" type="curve" smooth="yes"/>
      <point x="886" y="164"/>
      <point x="848" y="101"/>
      <point x="796" y="101" type="curve" smooth="yes"/>
      <point x="781" y="101"/>
      <point x="767" y="102"/>
      <point x="750" y="111" type="curve"/>
      <point x="719" y="6" type="line"/>
      <point x="745" y="-6"/>
      <point x="773" y="-9"/>
      <point x="804" y="-9" type="curve" smooth="yes"/>
      <point x="932" y="-9"/>
      <point x="1018" y="112"/>
      <point x="1018" y="272" type="curve" smooth="yes"/>
      <point x="1018" y="426"/>
      <point x="926" y="553"/>
      <point x="781" y="553" type="curve" smooth="yes"/>
      <point x="651" y="553"/>
      <point x="559" y="446"/>
      <point x="559" y="280" type="curve" smooth="yes"/>
      <point x="559" y="222"/>
      <point x="564" y="209"/>
      <point x="564" y="156" type="curve" smooth="yes"/>
      <point x="564" y="123"/>
      <point x="548" y="101"/>
      <point x="526" y="101" type="curve" smooth="yes"/>
      <point x="505" y="101"/>
      <point x="488" y="123"/>
      <point x="488" y="156" type="curve" smooth="yes"/>
      <point x="488" y="212"/>
      <point x="494" y="216"/>
      <point x="494" y="280" type="curve" smooth="yes"/>
      <point x="494" y="451"/>
      <point x="399" y="553"/>
      <point x="272" y="553" type="curve" smooth="yes"/>
      <point x="138" y="553"/>
      <point x="35" y="439"/>
      <point x="35" y="272" type="curve" smooth="yes"/>
      <point x="35" y="97"/>
      <point x="126" y="-9"/>
      <point x="252" y="-9" type="curve" smooth="yes"/>
      <point x="280" y="-9"/>
      <point x="306" y="-7"/>
      <point x="334" y="5" type="curve"/>
      <point x="303" y="110" type="line"/>
      <point x="287" y="102"/>
      <point x="272" y="101"/>
      <point x="258" y="101" type="curve" smooth="yes"/>
      <point x="205" y="101"/>
      <point x="167" y="162"/>
      <point x="167" y="271" type="curve" smooth="yes"/>
      <point x="167" y="376"/>
      <point x="212" y="443"/>
      <point x="278" y="443" type="curve" smooth="yes"/>
      <point x="343" y="443"/>
      <point x="386" y="377"/>
      <point x="386" y="269" type="curve" smooth="yes"/>
      <point x="386" y="221"/>
      <point x="380" y="190"/>
      <point x="380" y="143" type="curve" smooth="yes"/>
      <point x="380" y="43"/>
      <point x="437" y="-9"/>
    </contour>
    <contour>
      <point x="467" y="401" type="line"/>
      <point x="482" y="426"/>
      <point x="501" y="442"/>
      <point x="526" y="442" type="curve" smooth="yes"/>
      <point x="551" y="442"/>
      <point x="568" y="430"/>
      <point x="586" y="401" type="curve"/>
      <point x="650" y="492" type="line"/>
      <point x="615" y="531"/>
      <point x="583" y="553"/>
      <point x="526" y="553" type="curve" smooth="yes"/>
      <point x="468" y="553"/>
      <point x="433" y="526"/>
      <point x="403" y="492" type="curve"/>
    </contour>
  </outline>
</glyph>
<glyph name="ta" format="2">
  <advance width="835"/>
  <unicode hex="1010"/>
  <note>
ta
</note>
  <outline>
    <contour>
      <point x="254" y="-10" type="curve" smooth="yes"/>
      <point x="401" y="-10"/>
      <point x="471" y="105"/>
      <point x="471" y="270" type="curve" smooth="yes"/>
      <point x="471" y="430"/>
      <point x="413" y="553"/>
      <point x="266" y="553" type="curve" smooth="yes"/>
      <point x="113" y="553"/>
      <point x="35" y="436"/>
      <point x="35" y="271" type="curve" smooth="yes"/>
      <point x="35" y="106"/>
      <point x="133" y="-10"/>
    </contour>
    <contour>
      <point x="260" y="100" type="curve" smooth="yes"/>
      <point x="205" y="100"/>
      <point x="167" y="169"/>
      <point x="167" y="271" type="curve" smooth="yes"/>
      <point x="167" y="374"/>
      <point x="201" y="443"/>
      <point x="265" y="443" type="curve" smooth="yes"/>
      <point x="329" y="443"/>
      <point x="355" y="375"/>
      <point x="355" y="269" type="curve" smooth="yes"/>
      <point x="355" y="169"/>
      <point x="323" y="100"/>
    </contour>
    <contour>
      <point x="600" y="-10" type="curve" smooth="yes"/>
      <point x="728" y="-10"/>
      <point x="800" y="106"/>
      <point x="800" y="272" type="curve" smooth="yes"/>
      <point x="800" y="428"/>
      <point x="728" y="553"/>
      <point x="581" y="553" type="curve" smooth="yes"/>
      <point x="492" y="553"/>
      <point x="438" y="506"/>
      <point x="413" y="444" type="curve"/>
      <point x="457" y="327" type="line"/>
      <point x="471" y="395"/>
      <point x="507" y="443"/>
      <point x="568" y="443" type="curve" smooth="yes"/>
      <point x="639" y="443"/>
      <point x="669" y="368"/>
      <point x="669" y="271" type="curve" smooth="yes"/>
      <point x="669" y="170"/>
      <point x="644" y="105"/>
      <point x="590" y="105" type="curve" smooth="yes"/>
      <point x="569" y="105"/>
      <point x="554" y="111"/>
      <point x="542" y="119" type="curve"/>
      <point x="498" y="20" type="line"/>
      <point x="529" y="1"/>
      <point x="556" y="-10"/>
    </contour>
  </outline>
</glyph>
<glyph name="da" format="2">
  <advance width="515"/>
  <unicode hex="1012"/>
  <note>
da
</note>
  <outline>
    <contour>
      <point x="267" y="-10" type="curve" smooth="yes"/>
      <point x="414" y="-10"/>
      <point x="479" y="64"/>
      <point x="479" y="163" type="curve" smooth="yes"/>
      <point x="479" y="237"/>
      <point x="427" y="281"/>
      <point x="358" y="292" type="curve"/>
      <point x="358" y="297" type="line"/>
      <point x="427" y="318"/>
      <point x="451" y="352"/>
      <point x="451" y="414" type="curve" smooth="yes"/>
      <point x="451" y="502"/>
      <point x="387" y="553"/>
      <point x="244" y="553" type="curve" smooth="yes"/>
      <point x="123" y="553"/>
      <point x="49" y="492"/>
      <point x="49" y="402" type="curve" smooth="yes"/>
      <point x="49" y="369"/>
      <point x="60" y="338"/>
      <point x="85" y="315" type="curve"/>
      <point x="171" y="367" type="line"/>
      <point x="162" y="376"/>
      <point x="158" y="384"/>
      <point x="158" y="396" type="curve" smooth="yes"/>
      <point x="158" y="431"/>
      <point x="192" y="445"/>
      <point x="249" y="445" type="curve" smooth="yes"/>
      <point x="289" y="445"/>
      <point x="334" y="437"/>
      <point x="334" y="391" type="curve" smooth="yes"/>
      <point x="334" y="350"/>
      <point x="294" y="331"/>
      <point x="251" y="331" type="curve" smooth="yes"/>
      <point x="234" y="331" type="line"/>
      <point x="234" y="236" type="line"/>
      <point x="257" y="236" type="line" smooth="yes"/>
      <point x="329" y="236"/>
      <point x="350" y="212"/>
      <point x="350" y="173" type="curve" smooth="yes"/>
      <point x="350" y="128"/>
      <point x="324" y="100"/>
      <point x="267" y="100" type="curve" smooth="yes"/>
      <point x="202" y="100"/>
      <point x="150" y="133"/>
      <point x="121" y="205" type="curve"/>
      <point x="26" y="151" type="line"/>
      <point x="63" y="48"/>
      <point x="148" y="-10"/>
    </contour>
  </outline>
</glyph>
<glyph name="dha" format="2">
  <advance width="535"/>
  <unicode hex="1013"/>
  <note>
dha
</note>
  <outline>
    <contour>
      <point x="171" y="151" type="line"/>
      <point x="194" y="181"/>
      <point x="223" y="200"/>
      <point x="271" y="200" type="curve" smooth="yes"/>
      <point x="313" y="200"/>
      <point x="339" y="187"/>
      <point x="372" y="153" type="curve"/>
      <point x="399" y="229" type="line"/>
      <point x="357" y="272"/>
      <point x="318" y="290"/>
      <point x="269" y="290" type="curve" smooth="yes"/>
      <point x="221" y="290"/>
      <point x="181" y="269"/>
      <point x="143" y="228" type="curve"/>
    </contour>
    <contour>
      <point x="271" y="-10" type="curve" smooth="yes"/>
      <point x="408" y="-10"/>
      <point x="504" y="105"/>
      <point x="504" y="271" type="curve" smooth="yes"/>
      <point x="504" y="431"/>
      <point x="411" y="553"/>
      <point x="270" y="553" type="curve" smooth="yes"/>
      <point x="133" y="553"/>
      <point x="35" y="436"/>
      <point x="35" y="271" type="curve" smooth="yes"/>
      <point x="35" y="106"/>
      <point x="133" y="-10"/>
    </contour>
    <contour>
      <point x="270" y="91" type="curve" smooth="yes"/>
      <point x="202" y="91"/>
      <point x="163" y="171"/>
      <point x="163" y="271" type="curve" smooth="yes"/>
      <point x="163" y="377"/>
      <point x="204" y="448"/>
      <point x="269" y="448" type="curve" smooth="yes"/>
      <point x="332" y="448"/>
      <point x="377" y="378"/>
      <point x="377" y="271" type="curve" smooth="yes"/>
      <point x="377" y="171"/>
      <point x="338" y="91"/>
    </contour>
  </outline>
</glyph>
<glyph name="na" format="2">
  <advance width="469"/>
  <unicode hex="1014"/>
  <note>
na
</note>
  <outline>
    <contour>
      <point x="164" y="-466" type="line"/>
      <point x="256" y="-466" type="line"/>
      <point x="256" y="9" type="line" smooth="yes"/>
      <point x="256" y="178"/>
      <point x="200" y="252"/>
      <point x="122" y="252" type="curve" smooth="yes"/>
      <point x="62" y="252"/>
      <point x="20" y="203"/>
      <point x="20" y="129" type="curve" smooth="yes"/>
      <point x="20" y="47"/>
      <point x="92" y="-9"/>
      <point x="194" y="-9" type="curve" smooth="yes"/>
      <point x="245" y="-9" type="line" smooth="yes"/>
      <point x="341" y="-9"/>
      <point x="434" y="57"/>
      <point x="434" y="159" type="curve" smooth="yes"/>
      <point x="434" y="250"/>
      <point x="391" y="295"/>
      <point x="305" y="339" type="curve" smooth="yes"/>
      <point x="249" y="368"/>
      <point x="235" y="383"/>
      <point x="235" y="409" type="curve" smooth="yes"/>
      <point x="235" y="430"/>
      <point x="253" y="445"/>
      <point x="278" y="445" type="curve" smooth="yes"/>
      <point x="308" y="445"/>
      <point x="325" y="431"/>
      <point x="357" y="402" type="curve"/>
      <point x="419" y="478" type="line"/>
      <point x="378" y="528"/>
      <point x="328" y="553"/>
      <point x="264" y="553" type="curve" smooth="yes"/>
      <point x="183" y="553"/>
      <point x="117" y="494"/>
      <point x="117" y="412" type="curve" smooth="yes"/>
      <point x="117" y="350"/>
      <point x="154" y="304"/>
      <point x="230" y="264" type="curve" smooth="yes"/>
      <point x="287" y="234"/>
      <point x="322" y="206"/>
      <point x="322" y="162" type="curve" smooth="yes"/>
      <point x="322" y="124"/>
      <point x="301" y="101"/>
      <point x="231" y="101" type="curve" smooth="yes"/>
      <point x="155" y="101" type="line" smooth="yes"/>
      <point x="110" y="101"/>
      <point x="92" y="118"/>
      <point x="92" y="146" type="curve" smooth="yes"/>
      <point x="92" y="163"/>
      <point x="104" y="179"/>
      <point x="124" y="179" type="curve" smooth="yes"/>
      <point x="160" y="179"/>
      <point x="164" y="121"/>
      <point x="164" y="26" type="curve" smooth="yes"/>
    </contour>
  </outline>
</glyph>
<glyph name="pa" format="2">
  <advance width="538"/>
  <unicode hex="1015"/>
  <note>
pa
</note>
  <outline>
    <contour>
      <point x="269" y="-10" type="curve" smooth="yes"/>
      <point x="417" y="-10"/>
      <point x="503" y="106"/>
      <point x="503" y="275" type="curve" smooth="yes"/>
      <point x="503" y="403"/>
      <point x="456" y="504"/>
      <point x="389" y="553" type="curve"/>
      <point x="325" y="451" type="line"/>
      <point x="363" y="402"/>
      <point x="372" y="346"/>
      <point x="372" y="276" type="curve" smooth="yes"/>
      <point x="372" y="172"/>
      <point x="342" y="100"/>
      <point x="268" y="100" type="curve" smooth="yes"/>
      <point x="199" y="100"/>
      <point x="167" y="170"/>
      <point x="167" y="276" type="curve" smooth="yes"/>
      <point x="167" y="347"/>
      <point x="175" y="402"/>
      <point x="213" y="451" type="curve"/>
      <point x="149" y="553" type="line"/>
      <point x="82" y="504"/>
      <point x="35" y="405"/>
      <point x="35" y="275" type="curve" smooth="yes"/>
      <point x="35" y="105"/>
      <point x="119" y="-10"/>
    </contour>
  </outline>
</glyph>
<glyph name="pha" format="2">
  <advance width="538"/>
  <unicode hex="1016"/>
  <note>
pha
</note>
  <outline>
    <contour>
      <point x="277" y="-10" type="curve" smooth="yes"/>
      <point x="433" y="-10"/>
      <point x="503" y="125"/>
      <point x="503" y="275" type="curve" smooth="yes"/>
      <point x="503" y="394"/>
      <point x="443" y="499"/>
      <point x="347" y="552" type="curve"/>
      <point x="299" y="482"/>
      <point x="262" y="400"/>
      <point x="262" y="288" type="curve" smooth="yes"/>
      <point x="262" y="209"/>
      <point x="273" y="144"/>
      <point x="295" y="89" type="curve"/>
      <point x="362" y="123" type="line"/>
      <point x="342" y="171"/>
      <point x="333" y="227"/>
      <point x="333" y="288" type="curve" smooth="yes"/>
      <point x="333" y="347"/>
      <point x="343" y="385"/>
      <point x="362" y="421" type="curve"/>
      <point x="394" y="379"/>
      <point x="399" y="334"/>
      <point x="399" y="277" type="curve" smooth="yes"/>
      <point x="399" y="176"/>
      <point x="360" y="100"/>
      <point x="281" y="100" type="curve" smooth="yes"/>
      <point x="208" y="100"/>
      <point x="167" y="163"/>
      <point x="167" y="275" type="curve" smooth="yes"/>
      <point x="167" y="345"/>
      <point x="176" y="402"/>
      <point x="215" y="451" type="curve"/>
      <point x="151" y="553" type="line"/>
      <point x="85" y="501"/>
      <point x="35" y="403"/>
      <point x="35" y="275" type="curve" smooth="yes"/>
      <point x="35" y="116"/>
      <point x="110" y="-10"/>
    </contour>
  </outline>
</glyph>
<glyph name="ba" format="2">
  <advance width="539"/>
  <unicode hex="1017"/>
  <note>
ba
</note>
  <outline>
    <contour>
      <point x="269" y="-10" type="curve" smooth="yes"/>
      <point x="419" y="-10"/>
      <point x="504" y="106"/>
      <point x="504" y="275" type="curve" smooth="yes"/>
      <point x="504" y="403"/>
      <point x="471" y="491"/>
      <point x="428" y="555" type="curve"/>
      <point x="321" y="493" type="line"/>
      <point x="362" y="401"/>
      <point x="372" y="345"/>
      <point x="372" y="275" type="curve" smooth="yes"/>
      <point x="372" y="168"/>
      <point x="342" y="100"/>
      <point x="273" y="100" type="curve" smooth="yes"/>
      <point x="201" y="100"/>
      <point x="167" y="160"/>
      <point x="167" y="275" type="curve" smooth="yes"/>
      <point x="167" y="347"/>
      <point x="174" y="402"/>
      <point x="212" y="451" type="curve"/>
      <point x="110" y="553" type="line"/>
      <point x="69" y="493"/>
      <point x="35" y="403"/>
      <point x="35" y="275" type="curve" smooth="yes"/>
      <point x="35" y="106"/>
      <point x="115" y="-10"/>
    </contour>
    <contour>
      <point x="273" y="281" type="curve" smooth="yes"/>
      <point x="371" y="281"/>
      <point x="442" y="403"/>
      <point x="442" y="478" type="curve" smooth="yes"/>
      <point x="442" y="505"/>
      <point x="439" y="532"/>
      <point x="428" y="555" type="curve"/>
      <point x="321" y="493" type="line"/>
      <point x="325" y="483"/>
      <point x="326" y="474"/>
      <point x="326" y="461" type="curve" smooth="yes"/>
      <point x="326" y="422"/>
      <point x="306" y="390"/>
      <point x="271" y="390" type="curve" smooth="yes"/>
      <point x="235" y="390"/>
      <point x="213" y="417"/>
      <point x="213" y="461" type="curve" smooth="yes"/>
      <point x="213" y="473"/>
      <point x="214" y="483"/>
      <point x="218" y="493" type="curve"/>
      <point x="110" y="553" type="line"/>
      <point x="102" y="531"/>
      <point x="97" y="507"/>
      <point x="97" y="482" type="curve" smooth="yes"/>
      <point x="97" y="407"/>
      <point x="157" y="281"/>
    </contour>
  </outline>
</glyph>
<glyph name="bha" format="2">
  <advance width="839"/>
  <unicode hex="1018"/>
  <note>
bha
</note>
  <outline>
    <contour>
      <point x="238" y="-9" type="curve" smooth="yes"/>
      <point x="375" y="-9"/>
      <point x="475" y="107"/>
      <point x="475" y="272" type="curve" smooth="yes"/>
      <point x="475" y="436"/>
      <point x="377" y="553"/>
      <point x="238" y="553" type="curve" smooth="yes"/>
      <point x="157" y="553"/>
      <point x="82" y="497"/>
      <point x="49" y="411" type="curve"/>
      <point x="137" y="356" type="line"/>
      <point x="162" y="419"/>
      <point x="191" y="443"/>
      <point x="232" y="443" type="curve" smooth="yes"/>
      <point x="301" y="443"/>
      <point x="343" y="373"/>
      <point x="343" y="272" type="curve" smooth="yes"/>
      <point x="343" y="169"/>
      <point x="299" y="101"/>
      <point x="232" y="101" type="curve" smooth="yes"/>
      <point x="187" y="101"/>
      <point x="156" y="129"/>
      <point x="130" y="188" type="curve"/>
      <point x="35" y="138" type="line"/>
      <point x="71" y="52"/>
      <point x="146" y="-9"/>
    </contour>
    <contour>
      <point x="592" y="-10" type="curve" smooth="yes"/>
      <point x="714" y="-10"/>
      <point x="804" y="105"/>
      <point x="804" y="271" type="curve" smooth="yes"/>
      <point x="804" y="434"/>
      <point x="708" y="553"/>
      <point x="570" y="553" type="curve" smooth="yes"/>
      <point x="492" y="553"/>
      <point x="430" y="513"/>
      <point x="394" y="447" type="curve"/>
      <point x="452" y="332" type="line"/>
      <point x="468" y="397"/>
      <point x="503" y="443"/>
      <point x="564" y="443" type="curve" smooth="yes"/>
      <point x="628" y="443"/>
      <point x="672" y="376"/>
      <point x="672" y="271" type="curve" smooth="yes"/>
      <point x="672" y="167"/>
      <point x="642" y="100"/>
      <point x="584" y="100" type="curve" smooth="yes"/>
      <point x="565" y="100"/>
      <point x="546" y="104"/>
      <point x="529" y="116" type="curve"/>
      <point x="486" y="20" type="line"/>
      <point x="512" y="3"/>
      <point x="545" y="-10"/>
    </contour>
  </outline>
</glyph>
<glyph name="ma" format="2">
  <advance width="529"/>
  <unicode hex="1019"/>
  <note>
ma
</note>
  <outline>
    <contour>
      <point x="264" y="-10" type="curve" smooth="yes"/>
      <point x="408" y="-10"/>
      <point x="502" y="106"/>
      <point x="502" y="275" type="curve" smooth="yes"/>
      <point x="502" y="402"/>
      <point x="455" y="502"/>
      <point x="386" y="553" type="curve"/>
      <point x="322" y="451" type="line"/>
      <point x="366" y="402"/>
      <point x="374" y="345"/>
      <point x="374" y="283" type="curve" smooth="yes"/>
      <point x="374" y="167"/>
      <point x="339" y="90"/>
      <point x="273" y="90" type="curve" smooth="yes"/>
      <point x="207" y="90"/>
      <point x="163" y="167"/>
      <point x="163" y="283" type="curve" smooth="yes"/>
      <point x="163" y="347"/>
      <point x="171" y="402"/>
      <point x="212" y="451" type="curve"/>
      <point x="148" y="553" type="line"/>
      <point x="79" y="501"/>
      <point x="35" y="403"/>
      <point x="35" y="275" type="curve" smooth="yes"/>
      <point x="35" y="106"/>
      <point x="123" y="-10"/>
    </contour>
    <contour>
      <point x="171" y="151" type="line"/>
      <point x="194" y="181"/>
      <point x="223" y="200"/>
      <point x="271" y="200" type="curve" smooth="yes"/>
      <point x="313" y="200"/>
      <point x="339" y="187"/>
      <point x="372" y="153" type="curve"/>
      <point x="399" y="229" type="line"/>
      <point x="357" y="272"/>
      <point x="318" y="290"/>
      <point x="269" y="290" type="curve" smooth="yes"/>
      <point x="221" y="290"/>
      <point x="181" y="269"/>
      <point x="143" y="228" type="curve"/>
    </contour>
  </outline>
</glyph>
<glyph name="ra" format="2">
  <advance width="549"/>
  <unicode hex="101B"/>
  <note>
ra
</note>
  <outline>
    <contour>
      <point x="377" y="-466" type="line"/>
      <point x="585" y="-466" type="line"/>
      <point x="585" y="-356" type="line"/>
      <point x="509" y="-356" type="line"/>
      <point x="509" y="271" type="line" smooth="yes"/>
      <point x="509" y="433"/>
      <point x="433" y="553"/>
      <point x="267" y="553" type="curve" smooth="yes"/>
      <point x="127" y="553"/>
      <point x="35" y="437"/>
      <point x="35" y="271" type="curve" smooth="yes"/>
      <point x="35" y="92"/>
      <point x="124" y="-10"/>
      <point x="252" y="-10" type="curve" smooth="yes"/>
      <point x="293" y="-10"/>
      <point x="317" y="0"/>
      <point x="338" y="7" type="curve"/>
      <point x="335" y="205"/>
      <point x="273" y="316"/>
      <point x="136" y="344" type="curve"/>
      <point x="121" y="261" type="line"/>
      <point x="204" y="251"/>
      <point x="244" y="176"/>
      <point x="248" y="57" type="curve"/>
      <point x="288" y="95" type="line"/>
      <point x="275" y="94"/>
      <point x="259" y="94"/>
      <point x="248" y="94" type="curve" smooth="yes"/>
      <point x="174" y="94"/>
      <point x="129" y="166"/>
      <point x="129" y="268" type="curve" smooth="yes"/>
      <point x="129" y="373"/>
      <point x="177" y="443"/>
      <point x="259" y="443" type="curve" smooth="yes"/>
      <point x="342" y="443"/>
      <point x="377" y="372"/>
      <point x="377" y="271" type="curve" smooth="yes"/>
    </contour>
  </outline>
</glyph>
<glyph name="la" format="2">
  <advance width="832"/>
  <unicode hex="101C"/>
  <note>
la
</note>
  <outline>
    <contour>
      <point x="242" y="-10" type="curve" smooth="yes"/>
      <point x="277" y="-10"/>
      <point x="327" y="-2"/>
      <point x="355" y="20" type="curve"/>
      <point x="311" y="116" type="line"/>
      <point x="295" y="106"/>
      <point x="279" y="100"/>
      <point x="255" y="100" type="curve" smooth="yes"/>
      <point x="202" y="100"/>
      <point x="167" y="166"/>
      <point x="167" y="271" type="curve" smooth="yes"/>
      <point x="167" y="371"/>
      <point x="192" y="442"/>
      <point x="251" y="442" type="curve" smooth="yes"/>
      <point x="311" y="442"/>
      <point x="331" y="391"/>
      <point x="365" y="242" type="curve" smooth="yes"/>
      <point x="404" y="73"/>
      <point x="472" y="-9"/>
      <point x="599" y="-9" type="curve" smooth="yes"/>
      <point x="738" y="-9"/>
      <point x="797" y="114"/>
      <point x="797" y="271" type="curve" smooth="yes"/>
      <point x="797" y="448"/>
      <point x="725" y="553"/>
      <point x="594" y="553" type="curve" smooth="yes"/>
      <point x="560" y="553"/>
      <point x="510" y="544"/>
      <point x="481" y="523" type="curve"/>
      <point x="526" y="426" type="line"/>
      <point x="548" y="437"/>
      <point x="557" y="443"/>
      <point x="582" y="443" type="curve" smooth="yes"/>
      <point x="637" y="443"/>
      <point x="665" y="372"/>
      <point x="665" y="272" type="curve" smooth="yes"/>
      <point x="665" y="169"/>
      <point x="649" y="101"/>
      <point x="596" y="101" type="curve" smooth="yes"/>
      <point x="541" y="101"/>
      <point x="508" y="157"/>
      <point x="471" y="311" type="curve" smooth="yes"/>
      <point x="430" y="482"/>
      <point x="376" y="553"/>
      <point x="251" y="553" type="curve" smooth="yes"/>
      <point x="100" y="553"/>
      <point x="35" y="424"/>
      <point x="35" y="271" type="curve" smooth="yes"/>
      <point x="35" y="96"/>
      <point x="110" y="-10"/>
    </contour>
  </outline>
</glyph>
<glyph name="wa" format="2">
  <advance width="539"/>
  <unicode hex="101D"/>
  <note>
wa
</note>
  <outline>
    <contour>
      <point x="271" y="-10" type="curve" smooth="yes"/>
      <point x="408" y="-10"/>
      <point x="504" y="105"/>
      <point x="504" y="271" type="curve" smooth="yes"/>
      <point x="504" y="431"/>
      <point x="411" y="553"/>
      <point x="270" y="553" type="curve" smooth="yes"/>
      <point x="133" y="553"/>
      <point x="35" y="436"/>
      <point x="35" y="271" type="curve" smooth="yes"/>
      <point x="35" y="106"/>
      <point x="133" y="-10"/>
    </contour>
    <contour>
      <point x="269" y="100" type="curve" smooth="yes"/>
      <point x="205" y="100"/>
      <point x="167" y="169"/>
      <point x="167" y="271" type="curve" smooth="yes"/>
      <point x="167" y="374"/>
      <point x="207" y="443"/>
      <point x="269" y="443" type="curve" smooth="yes"/>
      <point x="329" y="443"/>
      <point x="373" y="375"/>
      <point x="373" y="271" type="curve" smooth="yes"/>
      <point x="373" y="169"/>
      <point x="333" y="100"/>
    </contour>
  </outline>
</glyph>
<glyph name="sa" format="2">
  <advance width="841"/>
  <unicode hex="101E"/>
  <note>
sa
</note>
  <outline>
    <contour>
      <point x="238" y="-9" type="curve" smooth="yes"/>
      <point x="375" y="-9"/>
      <point x="475" y="107"/>
      <point x="475" y="272" type="curve" smooth="yes"/>
      <point x="475" y="436"/>
      <point x="377" y="553"/>
      <point x="238" y="553" type="curve" smooth="yes"/>
      <point x="157" y="553"/>
      <point x="82" y="497"/>
      <point x="49" y="411" type="curve"/>
      <point x="137" y="356" type="line"/>
      <point x="162" y="419"/>
      <point x="191" y="443"/>
      <point x="232" y="443" type="curve" smooth="yes"/>
      <point x="301" y="443"/>
      <point x="343" y="373"/>
      <point x="343" y="272" type="curve" smooth="yes"/>
      <point x="343" y="169"/>
      <point x="299" y="101"/>
      <point x="232" y="101" type="curve" smooth="yes"/>
      <point x="187" y="101"/>
      <point x="156" y="129"/>
      <point x="130" y="188" type="curve"/>
      <point x="35" y="138" type="line"/>
      <point x="71" y="52"/>
      <point x="146" y="-9"/>
    </contour>
    <contour>
      <point x="586" y="-10" type="curve" smooth="yes"/>
      <point x="717" y="-10"/>
      <point x="806" y="107"/>
      <point x="806" y="271" type="curve" smooth="yes"/>
      <point x="806" y="438"/>
      <point x="741" y="553"/>
      <point x="603" y="553" type="curve" smooth="yes"/>
      <point x="553" y="553"/>
      <point x="527" y="541"/>
      <point x="502" y="523" type="curve"/>
      <point x="544" y="426" type="line"/>
      <point x="560" y="439"/>
      <point x="576" y="443"/>
      <point x="596" y="443" type="curve" smooth="yes"/>
      <point x="643" y="443"/>
      <point x="674" y="375"/>
      <point x="674" y="272" type="curve" smooth="yes"/>
      <point x="674" y="171"/>
      <point x="639" y="100"/>
      <point x="580" y="100" type="curve" smooth="yes"/>
      <point x="525" y="100"/>
      <point x="488" y="141"/>
      <point x="449" y="209" type="curve"/>
      <point x="396" y="96" type="line"/>
      <point x="446" y="33"/>
      <point x="499" y="-10"/>
    </contour>
  </outline>
</glyph>
<glyph name="lla" format="2">
  <advance width="515"/>
  <unicode hex="1020"/>
  <note>
lla
</note>
  <outline>
    <contour>
      <point x="214" y="-466" type="curve" smooth="yes"/>
      <point x="310" y="-466" type="line" smooth="yes"/>
      <point x="420" y="-466"/>
      <point x="475" y="-398"/>
      <point x="475" y="-261" type="curve" smooth="yes"/>
      <point x="475" y="-251" type="line"/>
      <point x="345" y="-251" type="line"/>
      <point x="345" y="-274" type="line" smooth="yes"/>
      <point x="345" y="-328"/>
      <point x="334" y="-356"/>
      <point x="293" y="-356" type="curve" smooth="yes"/>
      <point x="230" y="-356" type="line" smooth="yes"/>
      <point x="190" y="-356"/>
      <point x="178" y="-323"/>
      <point x="178" y="-261" type="curve" smooth="yes"/>
      <point x="178" y="-108" type="line"/>
      <point x="204" y="-115"/>
      <point x="239" y="-119"/>
      <point x="287" y="-119" type="curve" smooth="yes"/>
      <point x="339" y="-119"/>
      <point x="419" y="-101"/>
      <point x="475" y="-55" type="curve"/>
      <point x="475" y="178" type="line"/>
      <point x="344" y="97" type="line"/>
      <point x="344" y="-1" type="line"/>
      <point x="316" y="-13"/>
      <point x="293" y="-15"/>
      <point x="257" y="-15" type="curve" smooth="yes"/>
      <point x="189" y="-15"/>
      <point x="118" y="10"/>
      <point x="48" y="50" type="curve"/>
      <point x="48" y="-248" type="line" smooth="yes"/>
      <point x="48" y="-394"/>
      <point x="104" y="-466"/>
    </contour>
    <contour>
      <point x="272" y="41" type="curve" smooth="yes"/>
      <point x="364" y="41"/>
      <point x="439" y="98"/>
      <point x="475" y="178" type="curve"/>
      <point x="375" y="228" type="line"/>
      <point x="350" y="175"/>
      <point x="321" y="151"/>
      <point x="278" y="151" type="curve" smooth="yes"/>
      <point x="211" y="151"/>
      <point x="167" y="199"/>
      <point x="167" y="302" type="curve" smooth="yes"/>
      <point x="167" y="393"/>
      <point x="209" y="443"/>
      <point x="274" y="443" type="curve" smooth="yes"/>
      <point x="317" y="443"/>
      <point x="344" y="422"/>
      <point x="368" y="366" type="curve"/>
      <point x="461" y="421" type="line"/>
      <point x="428" y="501"/>
      <point x="353" y="553"/>
      <point x="266" y="553" type="curve" smooth="yes"/>
      <point x="124" y="553"/>
      <point x="35" y="449"/>
      <point x="35" y="302" type="curve" smooth="yes"/>
      <point x="35" y="136"/>
      <point x="135" y="41"/>
    </contour>
  </outline>
</glyph>
<glyph name="a_m" format="2">
  <advance width="826"/>
  <unicode hex="1021"/>
  <note>
a_m
</note>
  <outline>
    <contour>
      <point x="250" y="-10" type="curve" smooth="yes"/>
      <point x="390" y="-10"/>
      <point x="452" y="64"/>
      <point x="452" y="163" type="curve" smooth="yes"/>
      <point x="452" y="237"/>
      <point x="400" y="281"/>
      <point x="331" y="292" type="curve"/>
      <point x="331" y="297" type="line"/>
      <point x="400" y="318"/>
      <point x="424" y="352"/>
      <point x="424" y="414" type="curve" smooth="yes"/>
      <point x="424" y="502"/>
      <point x="363" y="553"/>
      <point x="227" y="553" type="curve" smooth="yes"/>
      <point x="112" y="553"/>
      <point x="42" y="492"/>
      <point x="42" y="402" type="curve" smooth="yes"/>
      <point x="42" y="369"/>
      <point x="53" y="338"/>
      <point x="78" y="315" type="curve"/>
      <point x="164" y="367" type="line"/>
      <point x="155" y="376"/>
      <point x="151" y="384"/>
      <point x="151" y="396" type="curve" smooth="yes"/>
      <point x="151" y="431"/>
      <point x="181" y="445"/>
      <point x="232" y="445" type="curve" smooth="yes"/>
      <point x="267" y="445"/>
      <point x="307" y="437"/>
      <point x="307" y="391" type="curve" smooth="yes"/>
      <point x="307" y="350"/>
      <point x="272" y="331"/>
      <point x="234" y="331" type="curve" smooth="yes"/>
      <point x="227" y="331" type="line"/>
      <point x="227" y="236" type="line"/>
      <point x="240" y="236" type="line" smooth="yes"/>
      <point x="302" y="236"/>
      <point x="323" y="212"/>
      <point x="323" y="173" type="curve" smooth="yes"/>
      <point x="323" y="128"/>
      <point x="300" y="100"/>
      <point x="250" y="100" type="curve" smooth="yes"/>
      <point x="189" y="100"/>
      <point x="141" y="133"/>
      <point x="114" y="205" type="curve"/>
      <point x="19" y="151" type="line"/>
      <point x="54" y="48"/>
      <point x="136" y="-10"/>
    </contour>
    <contour>
      <point x="588" y="-9" type="curve" smooth="yes"/>
      <point x="726" y="-9"/>
      <point x="798" y="110"/>
      <point x="798" y="272" type="curve" smooth="yes"/>
      <point x="798" y="467"/>
      <point x="682" y="554"/>
      <point x="559" y="554" type="curve" smooth="yes"/>
      <point x="466" y="554"/>
      <point x="408" y="523"/>
      <point x="367" y="486" type="curve"/>
      <point x="403" y="384" type="line"/>
      <point x="436" y="414"/>
      <point x="486" y="443"/>
      <point x="544" y="443" type="curve" smooth="yes"/>
      <point x="638" y="443"/>
      <point x="673" y="365"/>
      <point x="673" y="275" type="curve" smooth="yes"/>
      <point x="673" y="171"/>
      <point x="646" y="95"/>
      <point x="578" y="95" type="curve" smooth="yes"/>
      <point x="564" y="95"/>
      <point x="549" y="97"/>
      <point x="537" y="101" type="curve"/>
      <point x="573" y="52" type="line"/>
      <point x="590" y="182"/>
      <point x="623" y="254"/>
      <point x="700" y="262" type="curve"/>
      <point x="695" y="345" type="line"/>
      <point x="560" y="328"/>
      <point x="488" y="209"/>
      <point x="485" y="13" type="curve"/>
      <point x="513" y="-1"/>
      <point x="552" y="-9"/>
    </contour>
  </outline>
</glyph>
<glyph name="a_shn" format="2">
  <advance width="836"/>
  <unicode hex="1022"/>
  <note>
a_shn
</note>
  <outline>
    <contour>
      <point x="144" y="-10" type="curve" smooth="yes"/>
      <point x="220" y="-10"/>
      <point x="261" y="43"/>
      <point x="261" y="109" type="curve" smooth="yes"/>
      <point x="261" y="161"/>
      <point x="233" y="194"/>
      <point x="202" y="238" type="curve" smooth="yes"/>
      <point x="173" y="280"/>
      <point x="167" y="313"/>
      <point x="167" y="347" type="curve" smooth="yes"/>
      <point x="167" y="407"/>
      <point x="201" y="443"/>
      <point x="254" y="443" type="curve" smooth="yes"/>
      <point x="329" y="443"/>
      <point x="357" y="375"/>
      <point x="357" y="268" type="curve" smooth="yes"/>
      <point x="357" y="198"/>
      <point x="346" y="141"/>
      <point x="300" y="92" type="curve"/>
      <point x="363" y="-10" type="line"/>
      <point x="432" y="49"/>
      <point x="474" y="141"/>
      <point x="474" y="268" type="curve" smooth="yes"/>
      <point x="474" y="441"/>
      <point x="408" y="553"/>
      <point x="248" y="553" type="curve" smooth="yes"/>
      <point x="120" y="553"/>
      <point x="35" y="473"/>
      <point x="35" y="352" type="curve" smooth="yes"/>
      <point x="35" y="291"/>
      <point x="58" y="237"/>
      <point x="95" y="193" type="curve" smooth="yes"/>
      <point x="124" y="158"/>
      <point x="147" y="148"/>
      <point x="147" y="125" type="curve" smooth="yes"/>
      <point x="147" y="110"/>
      <point x="137" y="100"/>
      <point x="123" y="100" type="curve" smooth="yes"/>
      <point x="101" y="100"/>
      <point x="84" y="114"/>
      <point x="70" y="134" type="curve"/>
      <point x="18" y="66" type="line"/>
      <point x="45" y="14"/>
      <point x="96" y="-10"/>
    </contour>
    <contour>
      <point x="598" y="-10" type="curve" smooth="yes"/>
      <point x="736" y="-10"/>
      <point x="801" y="105"/>
      <point x="801" y="272" type="curve" smooth="yes"/>
      <point x="801" y="436"/>
      <point x="712" y="553"/>
      <point x="581" y="553" type="curve" smooth="yes"/>
      <point x="494" y="553"/>
      <point x="441" y="510"/>
      <point x="391" y="447" type="curve"/>
      <point x="444" y="334" type="line"/>
      <point x="483" y="405"/>
      <point x="520" y="448"/>
      <point x="575" y="448" type="curve" smooth="yes"/>
      <point x="634" y="448"/>
      <point x="669" y="375"/>
      <point x="669" y="271" type="curve" smooth="yes"/>
      <point x="669" y="168"/>
      <point x="638" y="100"/>
      <point x="591" y="100" type="curve" smooth="yes"/>
      <point x="571" y="100"/>
      <point x="555" y="104"/>
      <point x="539" y="117" type="curve"/>
      <point x="497" y="20" type="line"/>
      <point x="522" y="2"/>
      <point x="548" y="-10"/>
    </contour>
  </outline>
</glyph>
<glyph name="i_m" format="2">
  <advance width="821"/>
  <unicode hex="1023"/>
  <note>
i_m
</note>
  <outline>
    <contour>
      <point x="149" y="-10" type="curve"/>
      <point x="213" y="92" type="line"/>
      <point x="174" y="141"/>
      <point x="167" y="196"/>
      <point x="167" y="267" type="curve" smooth="yes"/>
      <point x="167" y="374"/>
      <point x="201" y="443"/>
      <point x="260" y="443" type="curve" smooth="yes"/>
      <point x="318" y="443"/>
      <point x="345" y="371"/>
      <point x="345" y="258" type="curve" smooth="yes"/>
      <point x="345" y="120" type="line"/>
      <point x="477" y="120" type="line"/>
      <point x="477" y="260" type="line" smooth="yes"/>
      <point x="477" y="372"/>
      <point x="498" y="443"/>
      <point x="565" y="443" type="curve" smooth="yes"/>
      <point x="621" y="443"/>
      <point x="654" y="373"/>
      <point x="654" y="267" type="curve" smooth="yes"/>
      <point x="654" y="199"/>
      <point x="646" y="141"/>
      <point x="608" y="92" type="curve"/>
      <point x="672" y="-10" type="line"/>
      <point x="740" y="41"/>
      <point x="786" y="141"/>
      <point x="786" y="268" type="curve" smooth="yes"/>
      <point x="786" y="437"/>
      <point x="702" y="553"/>
      <point x="564" y="553" type="curve" smooth="yes"/>
      <point x="480" y="553"/>
      <point x="408" y="501"/>
      <point x="392" y="404" type="curve"/>
      <point x="431" y="399" type="line"/>
      <point x="419" y="498"/>
      <point x="344" y="553"/>
      <point x="256" y="553" type="curve" smooth="yes"/>
      <point x="120" y="553"/>
      <point x="35" y="438"/>
      <point x="35" y="268" type="curve" smooth="yes"/>
      <point x="35" y="138"/>
      <point x="83" y="39"/>
    </contour>
    <contour>
      <point x="603" y="-466" type="line"/>
      <point x="733" y="-466" type="line"/>
      <point x="733" y="-372" type="line"/>
      <point x="665" y="-372" type="line"/>
      <point x="678" y="-339"/>
      <point x="686" y="-310"/>
      <point x="686" y="-258" type="curve" smooth="yes"/>
      <point x="686" y="-129"/>
      <point x="624" y="-47"/>
      <point x="532" y="-47" type="curve" smooth="yes"/>
      <point x="462" y="-47"/>
      <point x="415" y="-85"/>
      <point x="394" y="-163" type="curve"/>
      <point x="429" y="-167" type="line"/>
      <point x="407" y="-82"/>
      <point x="361" y="-47"/>
      <point x="297" y="-47" type="curve" smooth="yes"/>
      <point x="191" y="-47"/>
      <point x="133" y="-137"/>
      <point x="133" y="-263" type="curve" smooth="yes"/>
      <point x="133" y="-362"/>
      <point x="166" y="-435"/>
      <point x="214" y="-473" type="curve"/>
      <point x="262" y="-391" type="line"/>
      <point x="244" y="-355"/>
      <point x="234" y="-315"/>
      <point x="234" y="-263" type="curve" smooth="yes"/>
      <point x="234" y="-185"/>
      <point x="257" y="-139"/>
      <point x="297" y="-139" type="curve" smooth="yes"/>
      <point x="343" y="-139"/>
      <point x="359" y="-189"/>
      <point x="359" y="-272" type="curve" smooth="yes"/>
      <point x="359" y="-375" type="line"/>
      <point x="460" y="-375" type="line"/>
      <point x="460" y="-272" type="line" smooth="yes"/>
      <point x="460" y="-188"/>
      <point x="479" y="-139"/>
      <point x="524" y="-139" type="curve" smooth="yes"/>
      <point x="565" y="-139"/>
      <point x="586" y="-188"/>
      <point x="586" y="-258" type="curve" smooth="yes"/>
      <point x="586" y="-318"/>
      <point x="575" y="-354"/>
      <point x="559" y="-391" type="curve"/>
    </contour>
  </outline>
</glyph>
<glyph name="ii" format="2">
  <advance width="1072"/>
  <unicode hex="1024"/>
  <note>
ii
</note>
  <outline>
    <contour>
      <point x="252" y="-466" type="curve" smooth="yes"/>
      <point x="620" y="-466" type="line" smooth="yes"/>
      <point x="741" y="-466"/>
      <point x="795" y="-395"/>
      <point x="795" y="-253" type="curve" smooth="yes"/>
      <point x="795" y="257" type="line" smooth="yes"/>
      <point x="795" y="427"/>
      <point x="746" y="553"/>
      <point x="596" y="553" type="curve" smooth="yes"/>
      <point x="498" y="553"/>
      <point x="462" y="508"/>
      <point x="422" y="462" type="curve"/>
      <point x="483" y="340" type="line"/>
      <point x="510" y="408"/>
      <point x="539" y="443"/>
      <point x="582" y="443" type="curve" smooth="yes"/>
      <point x="644" y="443"/>
      <point x="663" y="374"/>
      <point x="663" y="253" type="curve" smooth="yes"/>
      <point x="663" y="-265" type="line" smooth="yes"/>
      <point x="663" y="-324"/>
      <point x="651" y="-358"/>
      <point x="596" y="-358" type="curve" smooth="yes"/>
      <point x="257" y="-358" type="line" smooth="yes"/>
      <point x="197" y="-358"/>
      <point x="167" y="-338"/>
      <point x="167" y="-299" type="curve" smooth="yes"/>
      <point x="167" y="-257"/>
      <point x="197" y="-233"/>
      <point x="283" y="-233" type="curve" smooth="yes"/>
      <point x="387" y="-233"/>
      <point x="498" y="-253"/>
      <point x="560" y="-286" type="curve"/>
      <point x="619" y="-196" type="line"/>
      <point x="539" y="-149"/>
      <point x="409" y="-123"/>
      <point x="283" y="-123" type="curve" smooth="yes"/>
      <point x="117" y="-123"/>
      <point x="35" y="-198"/>
      <point x="35" y="-300" type="curve" smooth="yes"/>
      <point x="35" y="-400"/>
      <point x="88" y="-466"/>
    </contour>
    <contour>
      <point x="149" y="-10" type="curve"/>
      <point x="213" y="92" type="line"/>
      <point x="175" y="141"/>
      <point x="167" y="196"/>
      <point x="167" y="267" type="curve" smooth="yes"/>
      <point x="167" y="373"/>
      <point x="199" y="443"/>
      <point x="265" y="443" type="curve" smooth="yes"/>
      <point x="337" y="443"/>
      <point x="365" y="371"/>
      <point x="365" y="267" type="curve" smooth="yes"/>
      <point x="365" y="197"/>
      <point x="356" y="141"/>
      <point x="318" y="92" type="curve"/>
      <point x="382" y="-10" type="line"/>
      <point x="449" y="39"/>
      <point x="496" y="140"/>
      <point x="496" y="268" type="curve" smooth="yes"/>
      <point x="496" y="437"/>
      <point x="413" y="553"/>
      <point x="266" y="553" type="curve" smooth="yes"/>
      <point x="119" y="553"/>
      <point x="35" y="438"/>
      <point x="35" y="268" type="curve" smooth="yes"/>
      <point x="35" y="138"/>
      <point x="82" y="39"/>
    </contour>
    <contour>
      <point x="900" y="-466" type="line"/>
      <point x="1032" y="-466" type="line"/>
      <point x="1032" y="244" type="line" smooth="yes"/>
      <point x="1032" y="449"/>
      <point x="1004" y="546"/>
      <point x="903" y="671" type="curve" smooth="yes"/>
      <point x="861" y="723"/>
      <point x="839" y="781"/>
      <point x="839" y="827" type="curve" smooth="yes"/>
      <point x="839" y="870"/>
      <point x="853" y="894"/>
      <point x="883" y="894" type="curve" smooth="yes"/>
      <point x="910" y="894"/>
      <point x="925" y="863"/>
      <point x="938" y="811" type="curve"/>
      <point x="1045" y="859" type="line"/>
      <point x="1031" y="939"/>
      <point x="972" y="1004"/>
      <point x="876" y="1004" type="curve" smooth="yes"/>
      <point x="763" y="1004"/>
      <point x="707" y="928"/>
      <point x="707" y="827" type="curve" smooth="yes"/>
      <point x="707" y="745"/>
      <point x="742" y="665"/>
      <point x="806" y="588" type="curve" smooth="yes"/>
      <point x="876" y="503"/>
      <point x="900" y="405"/>
      <point x="900" y="249" type="curve" smooth="yes"/>
    </contour>
  </outline>
</glyph>
<glyph name="u_m" format="2">
  <advance width="515"/>
  <unicode hex="1025"/>
  <note>
u_m
</note>
  <outline>
    <contour>
      <point x="207" y="-466" type="curve" smooth="yes"/>
      <point x="286" y="-466" type="line" smooth="yes"/>
      <point x="401" y="-466"/>
      <point x="471" y="-411"/>
      <point x="471" y="-298" type="curve" smooth="yes"/>
      <point x="471" y="-200"/>
      <point x="398" y="-152"/>
      <point x="318" y="-152" type="curve" smooth="yes"/>
      <point x="268" y="-152"/>
      <point x="231" y="-171"/>
      <point x="203" y="-201" type="curve"/>
      <point x="243" y="-287" type="line"/>
      <point x="259" y="-273"/>
      <point x="274" y="-262"/>
      <point x="296" y="-262" type="curve" smooth="yes"/>
      <point x="320" y="-262"/>
      <point x="338" y="-279"/>
      <point x="338" y="-307" type="curve" smooth="yes"/>
      <point x="338" y="-336"/>
      <point x="322" y="-356"/>
      <point x="278" y="-356" type="curve" smooth="yes"/>
      <point x="226" y="-356" type="line" smooth="yes"/>
      <point x="184" y="-356"/>
      <point x="174" y="-323"/>
      <point x="174" y="-264" type="curve" smooth="yes"/>
      <point x="174" y="23" type="line"/>
      <point x="41" y="138" type="line"/>
      <point x="41" y="-253" type="line" smooth="yes"/>
      <point x="41" y="-395"/>
      <point x="95" y="-466"/>
    </contour>
    <contour>
      <point x="243" y="-9" type="curve" smooth="yes"/>
      <point x="380" y="-9"/>
      <point x="480" y="107"/>
      <point x="480" y="272" type="curve" smooth="yes"/>
      <point x="480" y="436"/>
      <point x="382" y="553"/>
      <point x="243" y="553" type="curve" smooth="yes"/>
      <point x="162" y="553"/>
      <point x="87" y="497"/>
      <point x="54" y="411" type="curve"/>
      <point x="147" y="356" type="line"/>
      <point x="171" y="419"/>
      <point x="203" y="443"/>
      <point x="243" y="443" type="curve" smooth="yes"/>
      <point x="306" y="443"/>
      <point x="348" y="373"/>
      <point x="348" y="272" type="curve" smooth="yes"/>
      <point x="348" y="169"/>
      <point x="304" y="101"/>
      <point x="243" y="101" type="curve" smooth="yes"/>
      <point x="200" y="101"/>
      <point x="165" y="129"/>
      <point x="140" y="188" type="curve"/>
      <point x="40" y="138" type="line"/>
      <point x="76" y="52"/>
      <point x="151" y="-9"/>
    </contour>
  </outline>
</glyph>
<glyph name="e_m" format="2">
  <advance width="520"/>
  <unicode hex="1027"/>
  <note>
e_m
</note>
  <outline>
    <contour>
      <point x="271" y="-10" type="curve" smooth="yes"/>
      <point x="389" y="-10"/>
      <point x="477" y="63"/>
      <point x="485" y="178" type="curve"/>
      <point x="430" y="218"/>
      <point x="371" y="246"/>
      <point x="286" y="246" type="curve" smooth="yes"/>
      <point x="238" y="246"/>
      <point x="192" y="233"/>
      <point x="167" y="213" type="curve"/>
      <point x="165" y="230"/>
      <point x="164" y="250"/>
      <point x="164" y="272" type="curve" smooth="yes"/>
      <point x="164" y="294"/>
      <point x="165" y="314"/>
      <point x="167" y="331" type="curve"/>
      <point x="192" y="311"/>
      <point x="238" y="298"/>
      <point x="286" y="298" type="curve" smooth="yes"/>
      <point x="371" y="298"/>
      <point x="430" y="326"/>
      <point x="485" y="366" type="curve"/>
      <point x="477" y="481"/>
      <point x="389" y="554"/>
      <point x="271" y="554" type="curve" smooth="yes"/>
      <point x="125" y="554"/>
      <point x="35" y="442"/>
      <point x="35" y="273" type="curve" smooth="yes"/>
      <point x="35" y="102"/>
      <point x="125" y="-10"/>
    </contour>
    <contour>
      <point x="274" y="87" type="curve" smooth="yes"/>
      <point x="237" y="87"/>
      <point x="205" y="109"/>
      <point x="191" y="133" type="curve"/>
      <point x="215" y="155"/>
      <point x="246" y="165"/>
      <point x="277" y="165" type="curve" smooth="yes"/>
      <point x="306" y="165"/>
      <point x="326" y="155"/>
      <point x="347" y="136" type="curve"/>
      <point x="333" y="103"/>
      <point x="302" y="87"/>
    </contour>
    <contour>
      <point x="277" y="379" type="curve" smooth="yes"/>
      <point x="246" y="379"/>
      <point x="215" y="389"/>
      <point x="191" y="411" type="curve"/>
      <point x="205" y="435"/>
      <point x="233" y="457"/>
      <point x="274" y="457" type="curve" smooth="yes"/>
      <point x="302" y="457"/>
      <point x="333" y="441"/>
      <point x="347" y="408" type="curve"/>
      <point x="326" y="389"/>
      <point x="306" y="379"/>
    </contour>
  </outline>
</glyph>
<glyph name="e_mon" format="2">
  <advance width="552"/>
  <unicode hex="1028"/>
  <note>
e_mon
</note>
  <outline>
    <contour>
      <point x="277" y="-473" type="curve" smooth="yes"/>
      <point x="432" y="-473"/>
      <point x="514" y="-362"/>
      <point x="514" y="-187" type="curve" smooth="yes"/>
      <point x="514" y="-183" type="line"/>
      <point x="382" y="-183" type="line"/>
      <point x="382" y="-187" type="line" smooth="yes"/>
      <point x="382" y="-299"/>
      <point x="347" y="-363"/>
      <point x="278" y="-363" type="curve" smooth="yes"/>
      <point x="205" y="-363"/>
      <point x="172" y="-303"/>
      <point x="172" y="-178" type="curve" smooth="yes"/>
      <point x="172" y="258" type="line" smooth="yes"/>
      <point x="172" y="393"/>
      <point x="218" y="443"/>
      <point x="290" y="443" type="curve" smooth="yes"/>
      <point x="359" y="443"/>
      <point x="398" y="382"/>
      <point x="398" y="263" type="curve" smooth="yes"/>
      <point x="398" y="186"/>
      <point x="378" y="82"/>
      <point x="331" y="82" type="curve" smooth="yes"/>
      <point x="314" y="82"/>
      <point x="311" y="94"/>
      <point x="311" y="102" type="curve" smooth="yes"/>
      <point x="311" y="118"/>
      <point x="321" y="134"/>
      <point x="334" y="155" type="curve" smooth="yes"/>
      <point x="350" y="180"/>
      <point x="364" y="213"/>
      <point x="364" y="254" type="curve" smooth="yes"/>
      <point x="364" y="313"/>
      <point x="325" y="352"/>
      <point x="273" y="352" type="curve" smooth="yes"/>
      <point x="235" y="352"/>
      <point x="208" y="332"/>
      <point x="191" y="293" type="curve"/>
      <point x="234" y="236" type="line"/>
      <point x="242" y="250"/>
      <point x="252" y="262"/>
      <point x="264" y="262" type="curve" smooth="yes"/>
      <point x="276" y="262"/>
      <point x="282" y="253"/>
      <point x="282" y="241" type="curve" smooth="yes"/>
      <point x="282" y="226"/>
      <point x="274" y="212"/>
      <point x="262" y="198" type="curve" smooth="yes"/>
      <point x="244" y="177"/>
      <point x="212" y="144"/>
      <point x="212" y="93" type="curve" smooth="yes"/>
      <point x="212" y="31"/>
      <point x="257" y="-10"/>
      <point x="328" y="-10" type="curve" smooth="yes"/>
      <point x="436" y="-10"/>
      <point x="514" y="111"/>
      <point x="514" y="271" type="curve" smooth="yes"/>
      <point x="514" y="445"/>
      <point x="431" y="553"/>
      <point x="288" y="553" type="curve" smooth="yes"/>
      <point x="127" y="553"/>
      <point x="40" y="439"/>
      <point x="40" y="257" type="curve" smooth="yes"/>
      <point x="40" y="-177" type="line" smooth="yes"/>
      <point x="40" y="-361"/>
      <point x="125" y="-473"/>
    </contour>
  </outline>
</glyph>
<glyph name="o_m" format="2">
  <advance width="1053"/>
  <unicode hex="1029"/>
  <note>
o_m
</note>
  <outline>
    <contour>
      <point x="206" y="-466" type="curve" smooth="yes"/>
      <point x="838" y="-466" type="line" smooth="yes"/>
      <point x="948" y="-466"/>
      <point x="1003" y="-394"/>
      <point x="1003" y="-248" type="curve" smooth="yes"/>
      <point x="1003" y="172" type="line"/>
      <point x="911" y="172" type="line"/>
      <point x="911" y="-261" type="line" smooth="yes"/>
      <point x="911" y="-323"/>
      <point x="900" y="-356"/>
      <point x="859" y="-356" type="curve" smooth="yes"/>
      <point x="224" y="-356" type="line" smooth="yes"/>
      <point x="184" y="-356"/>
      <point x="172" y="-323"/>
      <point x="172" y="-261" type="curve" smooth="yes"/>
      <point x="172" y="799" type="line" smooth="yes"/>
      <point x="172" y="861"/>
      <point x="184" y="894"/>
      <point x="224" y="894" type="curve" smooth="yes"/>
      <point x="859" y="894" type="line" smooth="yes"/>
      <point x="900" y="894"/>
      <point x="911" y="861"/>
      <point x="911" y="799" type="curve" smooth="yes"/>
      <point x="911" y="756" type="line"/>
      <point x="1003" y="756" type="line"/>
      <point x="1003" y="786" type="line" smooth="yes"/>
      <point x="1003" y="931"/>
      <point x="948" y="1004"/>
      <point x="838" y="1004" type="curve" smooth="yes"/>
      <point x="206" y="1004" type="line" smooth="yes"/>
      <point x="96" y="1004"/>
      <point x="40" y="931"/>
      <point x="40" y="786" type="curve" smooth="yes"/>
      <point x="40" y="-248" type="line" smooth="yes"/>
      <point x="40" y="-394"/>
      <point x="96" y="-466"/>
    </contour>
    <contour>
      <point x="450" y="-9" type="curve" smooth="yes"/>
      <point x="587" y="-9"/>
      <point x="687" y="107"/>
      <point x="687" y="272" type="curve" smooth="yes"/>
      <point x="687" y="436"/>
      <point x="589" y="553"/>
      <point x="450" y="553" type="curve" smooth="yes"/>
      <point x="369" y="553"/>
      <point x="294" y="497"/>
      <point x="261" y="411" type="curve"/>
      <point x="349" y="356" type="line"/>
      <point x="374" y="419"/>
      <point x="403" y="443"/>
      <point x="444" y="443" type="curve" smooth="yes"/>
      <point x="513" y="443"/>
      <point x="555" y="373"/>
      <point x="555" y="272" type="curve" smooth="yes"/>
      <point x="555" y="169"/>
      <point x="511" y="101"/>
      <point x="444" y="101" type="curve" smooth="yes"/>
      <point x="399" y="101"/>
      <point x="368" y="129"/>
      <point x="342" y="188" type="curve"/>
      <point x="247" y="138" type="line"/>
      <point x="283" y="52"/>
      <point x="358" y="-9"/>
    </contour>
    <contour>
      <point x="798" y="-10" type="curve" smooth="yes"/>
      <point x="929" y="-10"/>
      <point x="1018" y="107"/>
      <point x="1018" y="271" type="curve" smooth="yes"/>
      <point x="1018" y="438"/>
      <point x="953" y="553"/>
      <point x="815" y="553" type="curve" smooth="yes"/>
      <point x="765" y="553"/>
      <point x="739" y="541"/>
      <point x="714" y="523" type="curve"/>
      <point x="756" y="426" type="line"/>
      <point x="772" y="439"/>
      <point x="788" y="443"/>
      <point x="808" y="443" type="curve" smooth="yes"/>
      <point x="855" y="443"/>
      <point x="886" y="375"/>
      <point x="886" y="272" type="curve" smooth="yes"/>
      <point x="886" y="171"/>
      <point x="851" y="100"/>
      <point x="792" y="100" type="curve" smooth="yes"/>
      <point x="737" y="100"/>
      <point x="700" y="141"/>
      <point x="661" y="209" type="curve"/>
      <point x="608" y="96" type="line"/>
      <point x="658" y="33"/>
      <point x="711" y="-10"/>
    </contour>
  </outline>
</glyph>
<glyph name="_tall_aa" format="2">
  <advance width="212"/>
  <unicode hex="102B"/>
  <note>
_tall_aa
</note>
  <outline>
    <contour>
      <point x="40" y="0" type="line"/>
      <point x="172" y="0" type="line"/>
      <point x="172" y="761" type="line" smooth="yes"/>
      <point x="172" y="914"/>
      <point x="96" y="1004"/>
      <point x="-42" y="1004" type="curve" smooth="yes"/>
      <point x="-178" y="1004"/>
      <point x="-254" y="915"/>
      <point x="-254" y="770" type="curve" smooth="yes"/>
      <point x="-254" y="758" type="line"/>
      <point x="-122" y="758" type="line"/>
      <point x="-122" y="769" type="line" smooth="yes"/>
      <point x="-122" y="856"/>
      <point x="-89" y="894"/>
      <point x="-41" y="894" type="curve" smooth="yes"/>
      <point x="18" y="894"/>
      <point x="40" y="853"/>
      <point x="40" y="759" type="curve" smooth="yes"/>
    </contour>
  </outline>
</glyph>
<glyph name="_aa" format="2">
  <advance width="357"/>
  <unicode hex="102C"/>
  <note>
_aa
</note>
  <outline>
    <contour>
      <point x="134" y="-10" type="curve" smooth="yes"/>
      <point x="238" y="-10"/>
      <point x="322" y="98"/>
      <point x="322" y="272" type="curve" smooth="yes"/>
      <point x="322" y="440"/>
      <point x="227" y="553"/>
      <point x="71" y="553" type="curve" smooth="yes"/>
      <point x="-12" y="553"/>
      <point x="-80" y="510"/>
      <point x="-133" y="453" type="curve"/>
      <point x="-73" y="366" type="line"/>
      <point x="-24" y="414"/>
      <point x="9" y="443"/>
      <point x="68" y="443" type="curve" smooth="yes"/>
      <point x="142" y="443"/>
      <point x="190" y="375"/>
      <point x="190" y="266" type="curve" smooth="yes"/>
      <point x="190" y="165"/>
      <point x="166" y="100"/>
      <point x="123" y="100" type="curve" smooth="yes"/>
      <point x="105" y="100"/>
      <point x="84" y="106"/>
      <point x="68" y="116" type="curve"/>
      <point x="25" y="20" type="line"/>
      <point x="50" y="-2"/>
      <point x="102" y="-10"/>
    </contour>
  </outline>
</glyph>
<glyph name="_i" format="2">
  <unicode hex="102D"/>
  <note>
_i
</note>
  <outline>
    <contour>
      <point x="-252" y="625" type="curve" smooth="yes"/>
      <point x="-141" y="625"/>
      <point x="-80" y="705"/>
      <point x="-80" y="813" type="curve" smooth="yes"/>
      <point x="-80" y="920"/>
      <point x="-138" y="1004"/>
      <point x="-252" y="1004" type="curve" smooth="yes"/>
      <point x="-367" y="1004"/>
      <point x="-425" y="923"/>
      <point x="-425" y="815" type="curve" smooth="yes"/>
      <point x="-425" y="706"/>
      <point x="-354" y="625"/>
    </contour>
    <contour>
      <point x="-253" y="706" type="curve" smooth="yes"/>
      <point x="-293" y="706"/>
      <point x="-314" y="753"/>
      <point x="-314" y="814" type="curve" smooth="yes"/>
      <point x="-314" y="875"/>
      <point x="-303" y="923"/>
      <point x="-253" y="923" type="curve" smooth="yes"/>
      <point x="-202" y="923"/>
      <point x="-191" y="874"/>
      <point x="-191" y="812" type="curve" smooth="yes"/>
      <point x="-191" y="752"/>
      <point x="-202" y="706"/>
    </contour>
  </outline>
</glyph>
<glyph name="_ii" format="2">
  <unicode hex="102E"/>
  <note>
_ii
</note>
  <outline>
    <contour>
      <point x="-237" y="625" type="curve" smooth="yes"/>
      <point x="-141" y="625"/>
      <point x="-90" y="704"/>
      <point x="-90" y="814" type="curve" smooth="yes"/>
      <point x="-90" y="922"/>
      <point x="-138" y="1005"/>
      <point x="-238" y="1005" type="curve" smooth="yes"/>
      <point x="-338" y="1005"/>
      <point x="-387" y="925"/>
      <point x="-387" y="815" type="curve" smooth="yes"/>
      <point x="-387" y="705"/>
      <point x="-333" y="625"/>
    </contour>
    <contour>
      <point x="-237" y="704" type="curve" smooth="yes"/>
      <point x="-278" y="704"/>
      <point x="-298" y="745"/>
      <point x="-298" y="815" type="curve" smooth="yes"/>
      <point x="-298" y="879"/>
      <point x="-281" y="924"/>
      <point x="-239" y="924" type="curve" smooth="yes"/>
      <point x="-197" y="924"/>
      <point x="-179" y="877"/>
      <point x="-179" y="813" type="curve" smooth="yes"/>
      <point x="-179" y="754"/>
      <point x="-193" y="704"/>
    </contour>
    <contour>
      <point x="-300" y="729" type="line"/>
      <point x="-280" y="752"/>
      <point x="-261" y="766"/>
      <point x="-238" y="766" type="curve" smooth="yes"/>
      <point x="-215" y="766"/>
      <point x="-195" y="752"/>
      <point x="-177" y="731" type="curve"/>
      <point x="-169" y="795" type="line"/>
      <point x="-189" y="817"/>
      <point x="-215" y="833"/>
      <point x="-238" y="833" type="curve" smooth="yes"/>
      <point x="-261" y="833"/>
      <point x="-284" y="815"/>
      <point x="-306" y="794" type="curve"/>
    </contour>
  </outline>
</glyph>
<glyph name="_u" format="2">
  <unicode hex="102F"/>
  <note>
_u
</note>
  <outline>
    <contour>
      <point x="-274" y="-466" type="line"/>
      <point x="-100" y="-466" type="line"/>
      <point x="-100" y="-378" type="line"/>
      <point x="-195" y="-378" type="line"/>
      <point x="-195" y="-48" type="line"/>
      <point x="-274" y="-48" type="line"/>
    </contour>
  </outline>
</glyph>
<glyph name="_e" format="2">
  <advance width="513"/>
  <unicode hex="1031"/>
  <note>
_e
</note>
  <outline>
    <contour>
      <point x="262" y="-10" type="curve" smooth="yes"/>
      <point x="390" y="-10"/>
      <point x="480" y="73"/>
      <point x="493" y="206" type="curve"/>
      <point x="430" y="257"/>
      <point x="364" y="286"/>
      <point x="280" y="286" type="curve" smooth="yes"/>
      <point x="233" y="286"/>
      <point x="192" y="271"/>
      <point x="140" y="228" type="curve"/>
      <point x="156" y="145" type="line"/>
      <point x="193" y="179"/>
      <point x="230" y="196"/>
      <point x="271" y="196" type="curve" smooth="yes"/>
      <point x="297" y="196"/>
      <point x="326" y="182"/>
      <point x="355" y="159" type="curve"/>
      <point x="344" y="121"/>
      <point x="305" y="96"/>
      <point x="268" y="96" type="curve" smooth="yes"/>
      <point x="184" y="96"/>
      <point x="164" y="168"/>
      <point x="164" y="272" type="curve" smooth="yes"/>
      <point x="164" y="382"/>
      <point x="201" y="443"/>
      <point x="274" y="443" type="curve" smooth="yes"/>
      <point x="321" y="443"/>
      <point x="380" y="424"/>
      <point x="435" y="376" type="curve"/>
      <point x="485" y="467" type="line"/>
      <point x="437" y="506"/>
      <point x="363" y="553"/>
      <point x="277" y="553" type="curve" smooth="yes"/>
      <point x="123" y="553"/>
      <point x="35" y="440"/>
      <point x="35" y="272" type="curve" smooth="yes"/>
      <point x="35" y="100"/>
      <point x="130" y="-10"/>
    </contour>
  </outline>
</glyph>
<glyph name="_ai" format="2">
  <unicode hex="1032"/>
  <note>
_ai
</note>
  <outline>
    <contour>
      <point x="-157" y="653" type="line"/>
      <point x="-87" y="728" type="line"/>
      <point x="-251" y="909" type="line"/>
      <point x="-321" y="834" type="line"/>
    </contour>
  </outline>
</glyph>
<glyph name="_ii_mon" format="2">
  <unicode hex="1033"/>
  <note>
_ii_mon
</note>
  <outline>
    <contour>
      <point x="-245" y="625" type="curve" smooth="yes"/>
      <point x="-138" y="625"/>
      <point x="-82" y="705"/>
      <point x="-82" y="815" type="curve" smooth="yes"/>
      <point x="-82" y="924"/>
      <point x="-144" y="1007"/>
      <point x="-245" y="1007" type="curve" smooth="yes"/>
      <point x="-351" y="1007"/>
      <point x="-411" y="925"/>
      <point x="-411" y="815" type="curve" smooth="yes"/>
      <point x="-411" y="705"/>
      <point x="-352" y="625"/>
    </contour>
    <contour>
      <point x="-245" y="685" type="curve" smooth="yes"/>
      <point x="-311" y="685"/>
      <point x="-344" y="739"/>
      <point x="-344" y="816" type="curve" smooth="yes"/>
      <point x="-344" y="894"/>
      <point x="-304" y="948"/>
      <point x="-245" y="948" type="curve" smooth="yes"/>
      <point x="-189" y="948"/>
      <point x="-149" y="893"/>
      <point x="-149" y="816" type="curve" smooth="yes"/>
      <point x="-149" y="740"/>
      <point x="-184" y="685"/>
    </contour>
    <contour>
      <point x="-245" y="727" type="curve" smooth="yes"/>
      <point x="-201" y="727"/>
      <point x="-177" y="762"/>
      <point x="-177" y="816" type="curve" smooth="yes"/>
      <point x="-177" y="867"/>
      <point x="-201" y="906"/>
      <point x="-245" y="906" type="curve" smooth="yes"/>
      <point x="-288" y="906"/>
      <point x="-314" y="868"/>
      <point x="-314" y="816" type="curve" smooth="yes"/>
      <point x="-314" y="764"/>
      <point x="-292" y="727"/>
    </contour>
    <contour>
      <point x="-247" y="775" type="curve" smooth="yes"/>
      <point x="-265" y="775"/>
      <point x="-276" y="792"/>
      <point x="-276" y="816" type="curve" smooth="yes"/>
      <point x="-276" y="841"/>
      <point x="-265" y="857"/>
      <point x="-247" y="857" type="curve" smooth="yes"/>
      <point x="-230" y="857"/>
      <point x="-218" y="841"/>
      <point x="-218" y="816" type="curve" smooth="yes"/>
      <point x="-218" y="792"/>
      <point x="-229" y="775"/>
    </contour>
  </outline>
</glyph>
<glyph name="_o_mon" format="2">
  <unicode hex="1034"/>
  <note>
_o_mon
</note>
  <outline>
    <contour>
      <point x="-314" y="630" type="line"/>
      <point x="-141" y="816" type="line"/>
      <point x="-205" y="896" type="line"/>
      <point x="-378" y="710" type="line"/>
    </contour>
  </outline>
</glyph>
<glyph name="_e_above" format="2">
  <unicode hex="1035"/>
  <note>
_e_above
</note>
  <outline>
    <contour>
      <point x="-215" y="625" type="curve" smooth="yes"/>
      <point x="-148" y="625"/>
      <point x="-92" y="674"/>
      <point x="-73" y="756" type="curve"/>
      <point x="-105" y="798"/>
      <point x="-153" y="833"/>
      <point x="-200" y="833" type="curve" smooth="yes"/>
      <point x="-239" y="833"/>
      <point x="-268" y="820"/>
      <point x="-287" y="803" type="curve"/>
      <point x="-272" y="729" type="line"/>
      <point x="-256" y="754"/>
      <point x="-237" y="766"/>
      <point x="-215" y="766" type="curve" smooth="yes"/>
      <point x="-195" y="766"/>
      <point x="-176" y="756"/>
      <point x="-166" y="742" type="curve"/>
      <point x="-175" y="719"/>
      <point x="-192" y="704"/>
      <point x="-217" y="704" type="curve" smooth="yes"/>
      <point x="-258" y="704"/>
      <point x="-273" y="746"/>
      <point x="-273" y="815" type="curve" smooth="yes"/>
      <point x="-273" y="878"/>
      <point x="-257" y="924"/>
      <point x="-212" y="924" type="curve" smooth="yes"/>
      <point x="-180" y="924"/>
      <point x="-161" y="896"/>
      <point x="-151" y="864" type="curve"/>
      <point x="-81" y="902" type="line"/>
      <point x="-103" y="968"/>
      <point x="-150" y="1005"/>
      <point x="-218" y="1005" type="curve" smooth="yes"/>
      <point x="-309" y="1005"/>
      <point x="-363" y="921"/>
      <point x="-363" y="815" type="curve" smooth="yes"/>
      <point x="-363" y="706"/>
      <point x="-304" y="625"/>
    </contour>
  </outline>
</glyph>
<glyph name="anusvara" format="2">
  <unicode hex="1036"/>
  <note>
anusvara
</note>
  <outline>
    <contour>
      <point x="-246" y="619" type="curve" smooth="yes"/>
      <point x="-186" y="619"/>
      <point x="-143" y="661"/>
      <point x="-143" y="735" type="curve" smooth="yes"/>
      <point x="-143" y="802"/>
      <point x="-184" y="849"/>
      <point x="-246" y="849" type="curve" smooth="yes"/>
      <point x="-306" y="849"/>
      <point x="-347" y="806"/>
      <point x="-347" y="734" type="curve" smooth="yes"/>
      <point x="-347" y="661"/>
      <point x="-306" y="619"/>
    </contour>
    <contour>
      <point x="-244" y="688" type="curve" smooth="yes"/>
      <point x="-267" y="688"/>
      <point x="-278" y="706"/>
      <point x="-278" y="734" type="curve" smooth="yes"/>
      <point x="-278" y="763"/>
      <point x="-264" y="778"/>
      <point x="-244" y="778" type="curve" smooth="yes"/>
      <point x="-225" y="778"/>
      <point x="-212" y="763"/>
      <point x="-212" y="734" type="curve" smooth="yes"/>
      <point x="-212" y="706"/>
      <point x="-225" y="688"/>
    </contour>
  </outline>
</glyph>
<glyph name="dot_below" format="2">
  <unicode hex="1037"/>
  <note>
dot_below
</note>
  <outline>
    <contour>
      <point x="-255" y="-312" type="curve" smooth="yes"/>
      <point x="-195" y="-312"/>
      <point x="-152" y="-270"/>
      <point x="-152" y="-196" type="curve" smooth="yes"/>
      <point x="-152" y="-128"/>
      <point x="-193" y="-83"/>
      <point x="-255" y="-83" type="curve" smooth="yes"/>
      <point x="-315" y="-83"/>
      <point x="-356" y="-126"/>
      <point x="-356" y="-197" type="curve" smooth="yes"/>
      <point x="-356" y="-271"/>
      <point x="-315" y="-312"/>
    </contour>
    <contour>
      <point x="-253" y="-242" type="curve" smooth="yes"/>
      <point x="-276" y="-242"/>
      <point x="-287" y="-225"/>
      <point x="-287" y="-197" type="curve" smooth="yes"/>
      <point x="-287" y="-168"/>
      <point x="-272" y="-152"/>
      <point x="-253" y="-152" type="curve" smooth="yes"/>
      <point x="-234" y="-152"/>
      <point x="-221" y="-168"/>
      <point x="-221" y="-197" type="curve" smooth="yes"/>
      <point x="-221" y="-225"/>
      <point x="-234" y="-242"/>
    </contour>
  </outline>
</glyph>
<glyph name="visarga" format="2">
  <advance width="297"/>
  <unicode hex="1038"/>
  <note>
visarga
</note>
  <outline>
    <contour>
      <point x="147" y="308" type="curve" smooth="yes"/>
      <point x="207" y="308"/>
      <point x="250" y="349"/>
      <point x="250" y="424" type="curve" smooth="yes"/>
      <point x="250" y="491"/>
      <point x="208" y="537"/>
      <point x="147" y="537" type="curve" smooth="yes"/>
      <point x="88" y="537"/>
      <point x="46" y="494"/>
      <point x="46" y="423" type="curve" smooth="yes"/>
      <point x="46" y="349"/>
      <point x="87" y="308"/>
    </contour>
    <contour>
      <point x="147" y="-10" type="curve" smooth="yes"/>
      <point x="207" y="-10"/>
      <point x="250" y="32"/>
      <point x="250" y="106" type="curve" smooth="yes"/>
      <point x="250" y="173"/>
      <point x="208" y="219"/>
      <point x="147" y="219" type="curve" smooth="yes"/>
      <point x="88" y="219"/>
      <point x="46" y="176"/>
      <point x="46" y="105" type="curve" smooth="yes"/>
      <point x="46" y="32"/>
      <point x="87" y="-10"/>
    </contour>
    <contour>
      <point x="149" y="59" type="curve" smooth="yes"/>
      <point x="126" y="59"/>
      <point x="115" y="77"/>
      <point x="115" y="105" type="curve" smooth="yes"/>
      <point x="115" y="134"/>
      <point x="130" y="149"/>
      <point x="149" y="149" type="curve" smooth="yes"/>
      <point x="168" y="149"/>
      <point x="181" y="134"/>
      <point x="181" y="105" type="curve" smooth="yes"/>
      <point x="181" y="77"/>
      <point x="168" y="59"/>
    </contour>
    <contour>
      <point x="149" y="377" type="curve" smooth="yes"/>
      <point x="126" y="377"/>
      <point x="115" y="395"/>
      <point x="115" y="423" type="curve" smooth="yes"/>
      <point x="115" y="452"/>
      <point x="130" y="467"/>
      <point x="149" y="467" type="curve" smooth="yes"/>
      <point x="168" y="467"/>
      <point x="181" y="452"/>
      <point x="181" y="423" type="curve" smooth="yes"/>
      <point x="181" y="395"/>
      <point x="168" y="377"/>
    </contour>
  </outline>
</glyph>
<glyph name="virama" format="2">
  <unicode hex="1039"/>
  <note>
virama
</note>
  <outline>
    <contour>
      <point x="-289" y="-430" type="line"/>
      <point x="-187" y="-430" type="line"/>
      <point x="-187" y="-308" type="line"/>
      <point x="-99" y="-308" type="line"/>
      <point x="-99" y="-220" type="line"/>
      <point x="-187" y="-220" type="line"/>
      <point x="-187" y="-98" type="line"/>
      <point x="-289" y="-98" type="line"/>
      <point x="-289" y="-220" type="line"/>
      <point x="-376" y="-220" type="line"/>
      <point x="-376" y="-308" type="line"/>
      <point x="-289" y="-308" type="line"/>
    </contour>
  </outline>
</glyph>
<glyph name="asat" format="2">
  <unicode hex="103A"/>
  <note>
asat
</note>
  <outline>
    <contour>
      <point x="-292" y="625" type="curve"/>
      <point x="-225" y="691" type="line"/>
      <point x="-269" y="737"/>
      <point x="-286" y="777"/>
      <point x="-286" y="836" type="curve" smooth="yes"/>
      <point x="-286" y="886"/>
      <point x="-265" y="919"/>
      <point x="-234" y="919" type="curve" smooth="yes"/>
      <point x="-208" y="919"/>
      <point x="-192" y="896"/>
      <point x="-181" y="873" type="curve"/>
      <point x="-107" y="926" type="line"/>
      <point x="-128" y="973"/>
      <point x="-173" y="1005"/>
      <point x="-238" y="1005" type="curve" smooth="yes"/>
      <point x="-325" y="1005"/>
      <point x="-387" y="948"/>
      <point x="-387" y="838" type="curve" smooth="yes"/>
      <point x="-387" y="741"/>
      <point x="-343" y="683"/>
    </contour>
  </outline>
</glyph>
<glyph name="medial_ya" format="2">
  <advance width="212"/>
  <unicode hex="103B"/>
  <note>
medial_ya
</note>
  <outline>
    <contour>
      <point x="172" y="-473" type="line"/>
      <point x="172" y="542" type="line"/>
      <point x="40" y="542" type="line"/>
      <point x="40" y="-313" type="line"/>
      <point x="-97" y="-265" type="line"/>
      <point x="-97" y="151" type="line"/>
      <point x="-189" y="151" type="line"/>
      <point x="-189" y="-341" type="line"/>
    </contour>
  </outline>
</glyph>
<glyph name="medial_wa" format="2">
  <unicode hex="103D"/>
  <note>
medial_wa
</note>
  <outline>
    <contour>
      <point x="-246" y="-436" type="curve" smooth="yes"/>
      <point x="-139" y="-436"/>
      <point x="-82" y="-351"/>
      <point x="-82" y="-243" type="curve" smooth="yes"/>
      <point x="-82" y="-133"/>
      <point x="-139" y="-48"/>
      <point x="-242" y="-48" type="curve" smooth="yes"/>
      <point x="-344" y="-48"/>
      <point x="-402" y="-129"/>
      <point x="-402" y="-242" type="curve" smooth="yes"/>
      <point x="-402" y="-355"/>
      <point x="-341" y="-436"/>
    </contour>
    <contour>
      <point x="-242" y="-350" type="curve" smooth="yes"/>
      <point x="-287" y="-350"/>
      <point x="-301" y="-304"/>
      <point x="-301" y="-243" type="curve" smooth="yes"/>
      <point x="-301" y="-176"/>
      <point x="-286" y="-134"/>
      <point x="-242" y="-134" type="curve" smooth="yes"/>
      <point x="-198" y="-134"/>
      <point x="-182" y="-179"/>
      <point x="-182" y="-243" type="curve" smooth="yes"/>
      <point x="-182" y="-305"/>
      <point x="-197" y="-350"/>
    </contour>
  </outline>
</glyph>
<glyph name="great_sa" format="2">
  <advance width="1172"/>
  <unicode hex="103F"/>
  <note>
great_sa
</note>
  <outline>
    <contour>
      <point x="238" y="-9" type="curve" smooth="yes"/>
      <point x="375" y="-9"/>
      <point x="475" y="107"/>
      <point x="475" y="272" type="curve" smooth="yes"/>
      <point x="475" y="436"/>
      <point x="377" y="553"/>
      <point x="238" y="553" type="curve" smooth="yes"/>
      <point x="157" y="553"/>
      <point x="82" y="497"/>
      <point x="49" y="411" type="curve"/>
      <point x="137" y="356" type="line"/>
      <point x="162" y="419"/>
      <point x="191" y="443"/>
      <point x="232" y="443" type="curve" smooth="yes"/>
      <point x="301" y="443"/>
      <point x="343" y="373"/>
      <point x="343" y="272" type="curve" smooth="yes"/>
      <point x="343" y="169"/>
      <point x="299" y="101"/>
      <point x="232" y="101" type="curve" smooth="yes"/>
      <point x="187" y="101"/>
      <point x="156" y="129"/>
      <point x="130" y="188" type="curve"/>
      <point x="35" y="138" type="line"/>
      <point x="71" y="52"/>
      <point x="146" y="-9"/>
    </contour>
    <contour>
      <point x="586" y="-10" type="curve" smooth="yes"/>
      <point x="717" y="-10"/>
      <point x="806" y="107"/>
      <point x="806" y="271" type="curve" smooth="yes"/>
      <point x="806" y="438"/>
      <point x="741" y="553"/>
      <point x="603" y="553" type="curve" smooth="yes"/>
      <point x="553" y="553"/>
      <point x="527" y="541"/>
      <point x="502" y="523" type="curve"/>
      <point x="544" y="426" type="line"/>
      <point x="560" y="439"/>
      <point x="576" y="443"/>
      <point x="596" y="443" type="curve" smooth="yes"/>
      <point x="643" y="443"/>
      <point x="674" y="375"/>
      <point x="674" y="272" type="curve" smooth="yes"/>
      <point x="674" y="171"/>
      <point x="639" y="100"/>
      <point x="580" y="100" type="curve" smooth="yes"/>
      <point x="525" y="100"/>
      <point x="488" y="141"/>
      <point x="449" y="209" type="curve"/>
      <point x="396" y="96" type="line"/>
      <point x="446" y="33"/>
      <point x="499" y="-10"/>
    </contour>
    <contour>
      <point x="917" y="-10" type="curve" smooth="yes"/>
      <point x="1048" y="-10"/>
      <point x="1137" y="107"/>
      <point x="1137" y="271" type="curve" smooth="yes"/>
      <point x="1137" y="438"/>
      <point x="1072" y="553"/>
      <point x="934" y="553" type="curve" smooth="yes"/>
      <point x="884" y="553"/>
      <point x="858" y="541"/>
      <point x="833" y="523" type="curve"/>
      <point x="875" y="426" type="line"/>
      <point x="891" y="439"/>
      <point x="907" y="443"/>
      <point x="927" y="443" type="curve" smooth="yes"/>
      <point x="974" y="443"/>
      <point x="1005" y="375"/>
      <point x="1005" y="272" type="curve" smooth="yes"/>
      <point x="1005" y="171"/>
      <point x="970" y="100"/>
      <point x="911" y="100" type="curve" smooth="yes"/>
      <point x="856" y="100"/>
      <point x="819" y="141"/>
      <point x="780" y="209" type="curve"/>
      <point x="727" y="96" type="line"/>
      <point x="777" y="33"/>
      <point x="830" y="-10"/>
    </contour>
  </outline>
</glyph>
<glyph name="zero_m" format="2">
  <advance width="539"/>
  <unicode hex="1040"/>
  <note>
zero_m
</note>
  <outline>
    <contour>
      <point x="271" y="-10" type="curve" smooth="yes"/>
      <point x="408" y="-10"/>
      <point x="504" y="105"/>
      <point x="504" y="271" type="curve" smooth="yes"/>
      <point x="504" y="431"/>
      <point x="411" y="553"/>
      <point x="270" y="553" type="curve" smooth="yes"/>
      <point x="133" y="553"/>
      <point x="35" y="436"/>
      <point x="35" y="271" type="curve" smooth="yes"/>
      <point x="35" y="106"/>
      <point x="133" y="-10"/>
    </contour>
    <contour>
      <point x="269" y="95" type="curve" smooth="yes"/>
      <point x="205" y="95"/>
      <point x="167" y="166"/>
      <point x="167" y="271" type="curve" smooth="yes"/>
      <point x="167" y="377"/>
      <point x="207" y="448"/>
      <point x="269" y="448" type="curve" smooth="yes"/>
      <point x="329" y="448"/>
      <point x="373" y="378"/>
      <point x="373" y="271" type="curve" smooth="yes"/>
      <point x="373" y="166"/>
      <point x="333" y="95"/>
    </contour>
  </outline>
</glyph>
<glyph name="one_m" format="2">
  <advance width="510"/>
  <unicode hex="1041"/>
  <note>
one_m
</note>
  <outline>
    <contour>
      <point x="238" y="-9" type="curve" smooth="yes"/>
      <point x="375" y="-9"/>
      <point x="475" y="107"/>
      <point x="475" y="272" type="curve" smooth="yes"/>
      <point x="475" y="436"/>
      <point x="377" y="553"/>
      <point x="238" y="553" type="curve" smooth="yes"/>
      <point x="157" y="553"/>
      <point x="82" y="497"/>
      <point x="49" y="411" type="curve"/>
      <point x="137" y="356" type="line"/>
      <point x="162" y="419"/>
      <point x="191" y="443"/>
      <point x="232" y="443" type="curve" smooth="yes"/>
      <point x="301" y="443"/>
      <point x="343" y="373"/>
      <point x="343" y="272" type="curve" smooth="yes"/>
      <point x="343" y="169"/>
      <point x="299" y="101"/>
      <point x="232" y="101" type="curve" smooth="yes"/>
      <point x="187" y="101"/>
      <point x="156" y="129"/>
      <point x="130" y="188" type="curve"/>
      <point x="35" y="138" type="line"/>
      <point x="71" y="52"/>
      <point x="146" y="-9"/>
    </contour>
  </outline>
</glyph>
<glyph name="two_m" format="2">
  <advance width="552"/>
  <unicode hex="1042"/>
  <note>
two_m
</note>
  <outline>
    <contour>
      <point x="275" y="-473" type="curve" smooth="yes"/>
      <point x="427" y="-473"/>
      <point x="512" y="-361"/>
      <point x="512" y="-177" type="curve" smooth="yes"/>
      <point x="512" y="546" type="line"/>
      <point x="380" y="546" type="line" smooth="yes"/>
      <point x="380" y="-178" type="line" smooth="yes"/>
      <point x="380" y="-303"/>
      <point x="347" y="-363"/>
      <point x="274" y="-363" type="curve" smooth="yes"/>
      <point x="205" y="-363"/>
      <point x="170" y="-299"/>
      <point x="170" y="-187" type="curve" smooth="yes"/>
      <point x="170" y="-183" type="line"/>
      <point x="38" y="-183" type="line"/>
      <point x="38" y="-187" type="line" smooth="yes"/>
      <point x="38" y="-362"/>
      <point x="120" y="-473"/>
    </contour>
  </outline>
</glyph>
<glyph name="three_m" format="2">
  <advance width="510"/>
  <unicode hex="1043"/>
  <note>
three_m
</note>
  <outline>
    <contour>
      <point x="274" y="-466" type="line"/>
      <point x="405" y="-466" type="line"/>
      <point x="283" y="-178" type="line" smooth="yes"/>
      <point x="251" y="-102"/>
      <point x="232" y="-51"/>
      <point x="189" y="20" type="curve"/>
      <point x="169" y="0" type="line"/>
      <point x="188" y="-8"/>
      <point x="215" y="-9"/>
      <point x="238" y="-9" type="curve" smooth="yes"/>
      <point x="375" y="-9"/>
      <point x="475" y="107"/>
      <point x="475" y="272" type="curve" smooth="yes"/>
      <point x="475" y="436"/>
      <point x="377" y="553"/>
      <point x="238" y="553" type="curve" smooth="yes"/>
      <point x="157" y="553"/>
      <point x="82" y="497"/>
      <point x="49" y="411" type="curve"/>
      <point x="142" y="356" type="line"/>
      <point x="166" y="419"/>
      <point x="198" y="443"/>
      <point x="237" y="443" type="curve" smooth="yes"/>
      <point x="301" y="443"/>
      <point x="343" y="373"/>
      <point x="343" y="272" type="curve" smooth="yes"/>
      <point x="343" y="169"/>
      <point x="299" y="101"/>
      <point x="237" y="101" type="curve" smooth="yes"/>
      <point x="194" y="101"/>
      <point x="160" y="129"/>
      <point x="135" y="188" type="curve"/>
      <point x="35" y="138" type="line"/>
    </contour>
  </outline>
</glyph>
<glyph name="five_m" format="2">
  <advance width="572"/>
  <unicode hex="1045"/>
  <note>
five_m
</note>
  <outline>
    <contour>
      <point x="285" y="-473" type="curve" smooth="yes"/>
      <point x="447" y="-473"/>
      <point x="532" y="-361"/>
      <point x="532" y="-177" type="curve" smooth="yes"/>
      <point x="532" y="262" type="line" smooth="yes"/>
      <point x="532" y="444"/>
      <point x="448" y="553"/>
      <point x="294" y="553" type="curve" smooth="yes"/>
      <point x="148" y="553"/>
      <point x="58" y="442"/>
      <point x="58" y="281" type="curve" smooth="yes"/>
      <point x="58" y="179"/>
      <point x="111" y="111"/>
      <point x="199" y="111" type="curve" smooth="yes"/>
      <point x="290" y="111"/>
      <point x="328" y="180"/>
      <point x="328" y="260" type="curve" smooth="yes"/>
      <point x="328" y="347"/>
      <point x="280" y="396"/>
      <point x="218" y="396" type="curve" smooth="yes"/>
      <point x="206" y="396"/>
      <point x="198" y="395"/>
      <point x="188" y="392" type="curve"/>
      <point x="202" y="429"/>
      <point x="238" y="450"/>
      <point x="278" y="450" type="curve" smooth="yes"/>
      <point x="358" y="450"/>
      <point x="400" y="376"/>
      <point x="400" y="262" type="curve" smooth="yes"/>
      <point x="400" y="-178" type="line" smooth="yes"/>
      <point x="400" y="-303"/>
      <point x="367" y="-363"/>
      <point x="284" y="-363" type="curve" smooth="yes"/>
      <point x="201" y="-363"/>
      <point x="170" y="-299"/>
      <point x="170" y="-187" type="curve" smooth="yes"/>
      <point x="170" y="-183" type="line"/>
      <point x="38" y="-183" type="line"/>
      <point x="38" y="-187" type="line" smooth="yes"/>
      <point x="38" y="-362"/>
      <point x="117" y="-473"/>
    </contour>
    <contour>
      <point x="199" y="205" type="curve" smooth="yes"/>
      <point x="174" y="205"/>
      <point x="154" y="226"/>
      <point x="154" y="260" type="curve" smooth="yes"/>
      <point x="154" y="291"/>
      <point x="173" y="315"/>
      <point x="199" y="315" type="curve" smooth="yes"/>
      <point x="224" y="315"/>
      <point x="243" y="294"/>
      <point x="243" y="260" type="curve" smooth="yes"/>
      <point x="243" y="230"/>
      <point x="224" y="205"/>
    </contour>
  </outline>
</glyph>
<glyph name="six_m" format="2">
  <advance width="553"/>
  <unicode hex="1046"/>
  <note>
six_m
</note>
  <outline>
    <contour>
      <point x="273" y="-10" type="curve" smooth="yes"/>
      <point x="439" y="-10"/>
      <point x="515" y="107"/>
      <point x="515" y="273" type="curve" smooth="yes"/>
      <point x="515" y="338"/>
      <point x="497" y="384"/>
      <point x="431" y="384" type="curve" smooth="yes"/>
      <point x="381" y="384"/>
      <point x="361" y="360"/>
      <point x="332" y="360" type="curve" smooth="yes"/>
      <point x="313" y="360"/>
      <point x="307" y="378"/>
      <point x="307" y="407" type="curve" smooth="yes"/>
      <point x="307" y="437"/>
      <point x="316" y="457"/>
      <point x="332" y="457" type="curve" smooth="yes"/>
      <point x="346" y="457"/>
      <point x="354" y="446"/>
      <point x="362" y="433" type="curve"/>
      <point x="423" y="490" type="line"/>
      <point x="400" y="533"/>
      <point x="366" y="554"/>
      <point x="326" y="554" type="curve" smooth="yes"/>
      <point x="251" y="554"/>
      <point x="214" y="494"/>
      <point x="214" y="397" type="curve" smooth="yes"/>
      <point x="214" y="319"/>
      <point x="239" y="262"/>
      <point x="306" y="262" type="curve" smooth="yes"/>
      <point x="344" y="262"/>
      <point x="361" y="283"/>
      <point x="381" y="283" type="curve" smooth="yes"/>
      <point x="397" y="283"/>
      <point x="402" y="267"/>
      <point x="402" y="249" type="curve" smooth="yes"/>
      <point x="402" y="168"/>
      <point x="364" y="100"/>
      <point x="290" y="100" type="curve" smooth="yes"/>
      <point x="207" y="100"/>
      <point x="172" y="159"/>
      <point x="172" y="287" type="curve" smooth="yes"/>
      <point x="172" y="721" type="line" smooth="yes"/>
      <point x="172" y="846"/>
      <point x="205" y="906"/>
      <point x="278" y="906" type="curve" smooth="yes"/>
      <point x="347" y="906"/>
      <point x="382" y="842"/>
      <point x="382" y="730" type="curve" smooth="yes"/>
      <point x="382" y="726" type="line"/>
      <point x="514" y="726" type="line"/>
      <point x="514" y="730" type="line" smooth="yes"/>
      <point x="514" y="905"/>
      <point x="432" y="1016"/>
      <point x="277" y="1016" type="curve" smooth="yes"/>
      <point x="125" y="1016"/>
      <point x="40" y="904"/>
      <point x="40" y="720" type="curve" smooth="yes"/>
      <point x="40" y="286" type="line" smooth="yes"/>
      <point x="40" y="102"/>
      <point x="125" y="-10"/>
    </contour>
  </outline>
</glyph>
<glyph name="seven_m" format="2">
  <advance width="498"/>
  <unicode hex="1047"/>
  <note>
seven_m
</note>
  <outline>
    <contour>
      <point x="293" y="-473" type="curve" smooth="yes"/>
      <point x="358" y="-473"/>
      <point x="414" y="-438"/>
      <point x="449" y="-361" type="curve"/>
      <point x="354" y="-297" type="line"/>
      <point x="333" y="-339"/>
      <point x="319" y="-363"/>
      <point x="294" y="-363" type="curve" smooth="yes"/>
      <point x="274" y="-363"/>
      <point x="262" y="-349"/>
      <point x="262" y="-314" type="curve" smooth="yes"/>
      <point x="262" y="-255"/>
      <point x="286" y="-195"/>
      <point x="364" y="-44" type="curve" smooth="yes"/>
      <point x="438" y="99"/>
      <point x="463" y="204"/>
      <point x="463" y="296" type="curve" smooth="yes"/>
      <point x="463" y="423"/>
      <point x="398" y="553"/>
      <point x="260" y="553" type="curve" smooth="yes"/>
      <point x="112" y="553"/>
      <point x="35" y="423"/>
      <point x="35" y="270" type="curve" smooth="yes"/>
      <point x="35" y="114"/>
      <point x="95" y="21"/>
      <point x="138" y="-4" type="curve"/>
      <point x="204" y="82" type="line"/>
      <point x="186" y="104"/>
      <point x="167" y="163"/>
      <point x="167" y="270" type="curve" smooth="yes"/>
      <point x="167" y="374"/>
      <point x="202" y="443"/>
      <point x="253" y="443" type="curve" smooth="yes"/>
      <point x="307" y="443"/>
      <point x="331" y="375"/>
      <point x="331" y="302" type="curve" smooth="yes"/>
      <point x="331" y="200"/>
      <point x="307" y="131"/>
      <point x="247" y="17" type="curve" smooth="yes"/>
      <point x="178" y="-114"/>
      <point x="131" y="-203"/>
      <point x="131" y="-309" type="curve" smooth="yes"/>
      <point x="131" y="-416"/>
      <point x="205" y="-473"/>
    </contour>
  </outline>
</glyph>
<glyph name="eight_m" format="2">
  <advance width="531"/>
  <unicode hex="1048"/>
  <note>
eight_m
</note>
  <outline>
    <contour>
      <point x="180" y="-10" type="curve"/>
      <point x="227" y="69"/>
      <point x="261" y="153"/>
      <point x="261" y="258" type="curve" smooth="yes"/>
      <point x="261" y="330"/>
      <point x="254" y="395"/>
      <point x="230" y="454" type="curve"/>
      <point x="166" y="412" type="line"/>
      <point x="182" y="364"/>
      <point x="192" y="309"/>
      <point x="192" y="257" type="curve" smooth="yes"/>
      <point x="192" y="202"/>
      <point x="184" y="161"/>
      <point x="170" y="124" type="curve"/>
      <point x="143" y="165"/>
      <point x="139" y="210"/>
      <point x="139" y="265" type="curve" smooth="yes"/>
      <point x="139" y="365"/>
      <point x="188" y="443"/>
      <point x="265" y="443" type="curve" smooth="yes"/>
      <point x="337" y="443"/>
      <point x="365" y="371"/>
      <point x="365" y="267" type="curve" smooth="yes"/>
      <point x="365" y="197"/>
      <point x="356" y="141"/>
      <point x="318" y="92" type="curve"/>
      <point x="382" y="-10" type="line"/>
      <point x="449" y="39"/>
      <point x="496" y="140"/>
      <point x="496" y="268" type="curve" smooth="yes"/>
      <point x="496" y="437"/>
      <point x="413" y="553"/>
      <point x="266" y="553" type="curve" smooth="yes"/>
      <point x="120" y="553"/>
      <point x="35" y="438"/>
      <point x="35" y="268" type="curve" smooth="yes"/>
      <point x="35" y="144"/>
      <point x="92" y="39"/>
    </contour>
  </outline>
</glyph>
<glyph name="nine_m" format="2">
  <advance width="553"/>
  <unicode hex="1049"/>
  <note>
nine_m
</note>
  <outline>
    <contour>
      <point x="277" y="-473" type="curve" smooth="yes"/>
      <point x="432" y="-473"/>
      <point x="514" y="-362"/>
      <point x="514" y="-187" type="curve" smooth="yes"/>
      <point x="514" y="-183" type="line"/>
      <point x="382" y="-183" type="line"/>
      <point x="382" y="-187" type="line" smooth="yes"/>
      <point x="382" y="-299"/>
      <point x="347" y="-363"/>
      <point x="278" y="-363" type="curve" smooth="yes"/>
      <point x="205" y="-363"/>
      <point x="172" y="-303"/>
      <point x="172" y="-178" type="curve" smooth="yes"/>
      <point x="172" y="256" type="line" smooth="yes"/>
      <point x="172" y="384"/>
      <point x="207" y="443"/>
      <point x="289" y="443" type="curve" smooth="yes"/>
      <point x="364" y="443"/>
      <point x="402" y="375"/>
      <point x="402" y="294" type="curve" smooth="yes"/>
      <point x="402" y="276"/>
      <point x="397" y="260"/>
      <point x="381" y="260" type="curve" smooth="yes"/>
      <point x="361" y="260"/>
      <point x="344" y="281"/>
      <point x="306" y="281" type="curve" smooth="yes"/>
      <point x="239" y="281"/>
      <point x="214" y="224"/>
      <point x="214" y="146" type="curve" smooth="yes"/>
      <point x="214" y="49"/>
      <point x="251" y="-11"/>
      <point x="326" y="-11" type="curve" smooth="yes"/>
      <point x="366" y="-11"/>
      <point x="400" y="10"/>
      <point x="423" y="53" type="curve"/>
      <point x="362" y="110" type="line"/>
      <point x="354" y="97"/>
      <point x="346" y="86"/>
      <point x="332" y="86" type="curve" smooth="yes"/>
      <point x="316" y="86"/>
      <point x="307" y="106"/>
      <point x="307" y="136" type="curve" smooth="yes"/>
      <point x="307" y="165"/>
      <point x="313" y="183"/>
      <point x="332" y="183" type="curve" smooth="yes"/>
      <point x="361" y="183"/>
      <point x="381" y="159"/>
      <point x="431" y="159" type="curve" smooth="yes"/>
      <point x="497" y="159"/>
      <point x="515" y="205"/>
      <point x="515" y="270" type="curve" smooth="yes"/>
      <point x="515" y="436"/>
      <point x="439" y="553"/>
      <point x="273" y="553" type="curve" smooth="yes"/>
      <point x="125" y="553"/>
      <point x="40" y="441"/>
      <point x="40" y="257" type="curve" smooth="yes"/>
      <point x="40" y="-177" type="line" smooth="yes"/>
      <point x="40" y="-361"/>
      <point x="125" y="-473"/>
    </contour>
  </outline>
</glyph>
<glyph name="little_section" format="2">
  <advance width="240"/>
  <unicode hex="104A"/>
  <note>
little_section
</note>
  <outline>
    <contour>
      <point x="54" y="0" type="line"/>
      <point x="186" y="0" type="line"/>
      <point x="186" y="543" type="line"/>
      <point x="54" y="543" type="line"/>
    </contour>
  </outline>
</glyph>
<glyph name="locative" format="2">
  <advance width="530"/>
  <unicode hex="104C"/>
  <note>
locative
</note>
  <outline>
    <contour>
      <point x="225" y="-466" type="curve" smooth="yes"/>
      <point x="304" y="-466" type="line" smooth="yes"/>
      <point x="416" y="-466"/>
      <point x="470" y="-395"/>
      <point x="470" y="-253" type="curve" smooth="yes"/>
      <point x="470" y="-5" type="line"/>
      <point x="404" y="-45"/>
      <point x="337" y="-70"/>
      <point x="273" y="-70" type="curve" smooth="yes"/>
      <point x="237" y="-70"/>
      <point x="214" y="-68"/>
      <point x="186" y="-56" type="curve"/>
      <point x="186" y="47" type="line"/>
      <point x="55" y="138" type="line"/>
      <point x="55" y="-106" type="line"/>
      <point x="111" y="-152"/>
      <point x="191" y="-170"/>
      <point x="243" y="-170" type="curve" smooth="yes"/>
      <point x="286" y="-170"/>
      <point x="313" y="-166"/>
      <point x="336" y="-159" type="curve"/>
      <point x="336" y="-264" type="line" smooth="yes"/>
      <point x="336" y="-323"/>
      <point x="327" y="-356"/>
      <point x="285" y="-356" type="curve" smooth="yes"/>
      <point x="233" y="-356" type="line" smooth="yes"/>
      <point x="189" y="-356"/>
      <point x="173" y="-343"/>
      <point x="173" y="-324" type="curve" smooth="yes"/>
      <point x="173" y="-305"/>
      <point x="188" y="-292"/>
      <point x="210" y="-292" type="curve" smooth="yes"/>
      <point x="237" y="-292"/>
      <point x="252" y="-303"/>
      <point x="268" y="-317" type="curve"/>
      <point x="308" y="-241" type="line"/>
      <point x="280" y="-211"/>
      <point x="243" y="-192"/>
      <point x="186" y="-192" type="curve" smooth="yes"/>
      <point x="96" y="-192"/>
      <point x="40" y="-241"/>
      <point x="40" y="-328" type="curve" smooth="yes"/>
      <point x="40" y="-415"/>
      <point x="113" y="-466"/>
    </contour>
    <contour>
      <point x="258" y="-9" type="curve" smooth="yes"/>
      <point x="395" y="-9"/>
      <point x="495" y="107"/>
      <point x="495" y="272" type="curve" smooth="yes"/>
      <point x="495" y="436"/>
      <point x="397" y="553"/>
      <point x="258" y="553" type="curve" smooth="yes"/>
      <point x="177" y="553"/>
      <point x="102" y="497"/>
      <point x="69" y="411" type="curve"/>
      <point x="162" y="356" type="line"/>
      <point x="186" y="419"/>
      <point x="218" y="443"/>
      <point x="257" y="443" type="curve" smooth="yes"/>
      <point x="321" y="443"/>
      <point x="363" y="373"/>
      <point x="363" y="272" type="curve" smooth="yes"/>
      <point x="363" y="169"/>
      <point x="319" y="101"/>
      <point x="257" y="101" type="curve" smooth="yes"/>
      <point x="214" y="101"/>
      <point x="180" y="129"/>
      <point x="155" y="188" type="curve"/>
      <point x="55" y="138" type="line"/>
      <point x="91" y="52"/>
      <point x="166" y="-9"/>
    </contour>
    <component base="asat" xOffset="530"/>
  </outline>
</glyph>
<glyph name="completed" format="2">
  <advance width="788"/>
  <unicode hex="104D"/>
  <note>
completed
</note>
  <outline>
    <contour>
      <point x="220" y="-466" type="curve" smooth="yes"/>
      <point x="582" y="-466" type="line" smooth="yes"/>
      <point x="694" y="-466"/>
      <point x="748" y="-395"/>
      <point x="748" y="-253" type="curve" smooth="yes"/>
      <point x="748" y="244" type="line" smooth="yes"/>
      <point x="748" y="449"/>
      <point x="719" y="546"/>
      <point x="618" y="671" type="curve" smooth="yes"/>
      <point x="576" y="723"/>
      <point x="554" y="781"/>
      <point x="554" y="827" type="curve" smooth="yes"/>
      <point x="554" y="870"/>
      <point x="568" y="894"/>
      <point x="598" y="894" type="curve" smooth="yes"/>
      <point x="625" y="894"/>
      <point x="640" y="863"/>
      <point x="653" y="811" type="curve"/>
      <point x="760" y="859" type="line"/>
      <point x="746" y="939"/>
      <point x="687" y="1004"/>
      <point x="591" y="1004" type="curve" smooth="yes"/>
      <point x="478" y="1004"/>
      <point x="422" y="928"/>
      <point x="422" y="827" type="curve" smooth="yes"/>
      <point x="422" y="745"/>
      <point x="457" y="665"/>
      <point x="521" y="588" type="curve" smooth="yes"/>
      <point x="591" y="503"/>
      <point x="615" y="404"/>
      <point x="615" y="249" type="curve" smooth="yes"/>
      <point x="615" y="-264" type="line" smooth="yes"/>
      <point x="615" y="-323"/>
      <point x="605" y="-356"/>
      <point x="563" y="-356" type="curve" smooth="yes"/>
      <point x="228" y="-356" type="line" smooth="yes"/>
      <point x="184" y="-356"/>
      <point x="168" y="-336"/>
      <point x="168" y="-307" type="curve" smooth="yes"/>
      <point x="168" y="-279"/>
      <point x="186" y="-262"/>
      <point x="210" y="-262" type="curve" smooth="yes"/>
      <point x="232" y="-262"/>
      <point x="247" y="-273"/>
      <point x="263" y="-287" type="curve"/>
      <point x="303" y="-201" type="line"/>
      <point x="275" y="-171"/>
      <point x="238" y="-152"/>
      <point x="188" y="-152" type="curve" smooth="yes"/>
      <point x="108" y="-152"/>
      <point x="35" y="-200"/>
      <point x="35" y="-298" type="curve" smooth="yes"/>
      <point x="35" y="-411"/>
      <point x="105" y="-466"/>
    </contour>
    <contour>
      <point x="377" y="-210" type="line"/>
      <point x="509" y="-210" type="line"/>
      <point x="509" y="271" type="line" smooth="yes"/>
      <point x="509" y="433"/>
      <point x="433" y="553"/>
      <point x="267" y="553" type="curve" smooth="yes"/>
      <point x="127" y="553"/>
      <point x="35" y="437"/>
      <point x="35" y="271" type="curve" smooth="yes"/>
      <point x="35" y="92"/>
      <point x="124" y="-10"/>
      <point x="252" y="-10" type="curve" smooth="yes"/>
      <point x="293" y="-10"/>
      <point x="317" y="0"/>
      <point x="338" y="7" type="curve"/>
      <point x="335" y="205"/>
      <point x="273" y="316"/>
      <point x="136" y="344" type="curve"/>
      <point x="121" y="261" type="line"/>
      <point x="204" y="251"/>
      <point x="244" y="176"/>
      <point x="248" y="57" type="curve"/>
      <point x="288" y="95" type="line"/>
      <point x="275" y="94"/>
      <point x="259" y="94"/>
      <point x="248" y="94" type="curve" smooth="yes"/>
      <point x="174" y="94"/>
      <point x="129" y="166"/>
      <point x="129" y="268" type="curve" smooth="yes"/>
      <point x="129" y="373"/>
      <point x="177" y="443"/>
      <point x="259" y="443" type="curve" smooth="yes"/>
      <point x="342" y="443"/>
      <point x="377" y="372"/>
      <point x="377" y="271" type="curve" smooth="yes"/>
    </contour>
  </outline>
</glyph>
<glyph name="genitive" format="2">
  <advance width="1010"/>
  <unicode hex="104F"/>
  <note>
genitive
</note>
  <outline>
    <contour>
      <point x="837" y="0" type="line"/>
      <point x="970" y="0" type="line" smooth="yes"/>
      <point x="970" y="244" type="line" smooth="yes"/>
      <point x="970" y="449"/>
      <point x="941" y="546"/>
      <point x="840" y="671" type="curve" smooth="yes"/>
      <point x="798" y="723"/>
      <point x="776" y="781"/>
      <point x="776" y="827" type="curve" smooth="yes"/>
      <point x="776" y="870"/>
      <point x="790" y="894"/>
      <point x="820" y="894" type="curve" smooth="yes"/>
      <point x="847" y="894"/>
      <point x="862" y="863"/>
      <point x="875" y="811" type="curve"/>
      <point x="982" y="859" type="line"/>
      <point x="968" y="939"/>
      <point x="909" y="1004"/>
      <point x="813" y="1004" type="curve" smooth="yes"/>
      <point x="700" y="1004"/>
      <point x="644" y="928"/>
      <point x="644" y="827" type="curve" smooth="yes"/>
      <point x="644" y="745"/>
      <point x="679" y="665"/>
      <point x="743" y="588" type="curve" smooth="yes"/>
      <point x="813" y="503"/>
      <point x="837" y="404"/>
      <point x="837" y="249" type="curve" smooth="yes"/>
    </contour>
    <contour>
      <point x="599" y="0" type="line"/>
      <point x="731" y="0" type="line"/>
      <point x="731" y="317" type="line" smooth="yes"/>
      <point x="731" y="460"/>
      <point x="670" y="553"/>
      <point x="553" y="553" type="curve" smooth="yes"/>
      <point x="478" y="553"/>
      <point x="426" y="516"/>
      <point x="402" y="443" type="curve"/>
      <point x="485" y="366" type="line"/>
      <point x="486" y="408"/>
      <point x="509" y="443"/>
      <point x="543" y="443" type="curve" smooth="yes"/>
      <point x="586" y="443"/>
      <point x="599" y="393"/>
      <point x="599" y="311" type="curve" smooth="yes"/>
    </contour>
    <component base="e_m"/>
  </outline>
</glyph>
<glyph name="sha_skt" format="2">
  <advance width="531"/>
  <unicode hex="1050"/>
  <note>
sha_skt
</note>
  <outline>
    <contour>
      <point x="267" y="191" type="curve" smooth="yes"/>
      <point x="295" y="191"/>
      <point x="322" y="213"/>
      <point x="322" y="264" type="curve" smooth="yes"/>
      <point x="322" y="316"/>
      <point x="296" y="337"/>
      <point x="267" y="337" type="curve" smooth="yes"/>
      <point x="240" y="337"/>
      <point x="213" y="317"/>
      <point x="213" y="264" type="curve" smooth="yes"/>
      <point x="213" y="212"/>
      <point x="241" y="191"/>
    </contour>
    <component base="ga"/>
  </outline>
</glyph>
<glyph name="ssa_skt" format="2">
  <advance width="531"/>
  <unicode hex="1051"/>
  <note>
ssa_skt
</note>
  <outline>
    <contour>
      <point x="269" y="-10" type="curve" smooth="yes"/>
      <point x="417" y="-10"/>
      <point x="503" y="106"/>
      <point x="503" y="275" type="curve" smooth="yes"/>
      <point x="503" y="403"/>
      <point x="456" y="504"/>
      <point x="389" y="553" type="curve"/>
      <point x="325" y="451" type="line"/>
      <point x="363" y="402"/>
      <point x="372" y="346"/>
      <point x="372" y="276" type="curve" smooth="yes"/>
      <point x="372" y="172"/>
      <point x="342" y="100"/>
      <point x="268" y="100" type="curve" smooth="yes"/>
      <point x="199" y="100"/>
      <point x="167" y="170"/>
      <point x="167" y="276" type="curve" smooth="yes"/>
      <point x="167" y="347"/>
      <point x="175" y="402"/>
      <point x="213" y="451" type="curve"/>
      <point x="149" y="553" type="line"/>
      <point x="82" y="504"/>
      <point x="35" y="405"/>
      <point x="35" y="275" type="curve" smooth="yes"/>
      <point x="35" y="105"/>
      <point x="119" y="-10"/>
    </contour>
    <contour>
      <point x="269" y="205" type="curve" smooth="yes"/>
      <point x="299" y="205"/>
      <point x="324" y="226"/>
      <point x="324" y="278" type="curve" smooth="yes"/>
      <point x="324" y="330"/>
      <point x="298" y="350"/>
      <point x="269" y="350" type="curve" smooth="yes"/>
      <point x="243" y="350"/>
      <point x="215" y="330"/>
      <point x="215" y="278" type="curve" smooth="yes"/>
      <point x="215" y="226"/>
      <point x="243" y="205"/>
    </contour>
  </outline>
</glyph>
<glyph name="vocR_skt" format="2">
  <advance width="524"/>
  <unicode hex="1052"/>
  <note>
vocR_skt
</note>
  <outline>
    <contour>
      <point x="268" y="-10" type="curve" smooth="yes"/>
      <point x="404" y="-10"/>
      <point x="489" y="70"/>
      <point x="489" y="191" type="curve" smooth="yes"/>
      <point x="489" y="252"/>
      <point x="466" y="306"/>
      <point x="429" y="350" type="curve" smooth="yes"/>
      <point x="400" y="385"/>
      <point x="377" y="395"/>
      <point x="377" y="418" type="curve" smooth="yes"/>
      <point x="377" y="433"/>
      <point x="387" y="443"/>
      <point x="401" y="443" type="curve" smooth="yes"/>
      <point x="423" y="443"/>
      <point x="440" y="429"/>
      <point x="454" y="409" type="curve"/>
      <point x="506" y="477" type="line"/>
      <point x="479" y="529"/>
      <point x="428" y="553"/>
      <point x="380" y="553" type="curve" smooth="yes"/>
      <point x="304" y="553"/>
      <point x="263" y="500"/>
      <point x="263" y="434" type="curve" smooth="yes"/>
      <point x="263" y="382"/>
      <point x="291" y="349"/>
      <point x="322" y="305" type="curve" smooth="yes"/>
      <point x="351" y="263"/>
      <point x="357" y="230"/>
      <point x="357" y="196" type="curve" smooth="yes"/>
      <point x="357" y="136"/>
      <point x="323" y="100"/>
      <point x="270" y="100" type="curve" smooth="yes"/>
      <point x="195" y="100"/>
      <point x="167" y="168"/>
      <point x="167" y="275" type="curve" smooth="yes"/>
      <point x="167" y="345"/>
      <point x="176" y="402"/>
      <point x="214" y="451" type="curve"/>
      <point x="151" y="553" type="line"/>
      <point x="81" y="502"/>
      <point x="35" y="402"/>
      <point x="35" y="275" type="curve" smooth="yes"/>
      <point x="35" y="106"/>
      <point x="110" y="-10"/>
    </contour>
  </outline>
</glyph>
<glyph name="vocRR_skt" format="2">
  <advance width="519"/>
  <unicode hex="1053"/>
  <note>
vocRR_skt
</note>
  <outline>
    <contour>
      <point x="262" y="-10" type="curve" smooth="yes"/>
      <point x="399" y="-10"/>
      <point x="484" y="70"/>
      <point x="484" y="191" type="curve" smooth="yes"/>
      <point x="484" y="252"/>
      <point x="461" y="306"/>
      <point x="427" y="351" type="curve" smooth="yes"/>
      <point x="401" y="385"/>
      <point x="382" y="395"/>
      <point x="382" y="418" type="curve" smooth="yes"/>
      <point x="382" y="433"/>
      <point x="392" y="443"/>
      <point x="406" y="443" type="curve" smooth="yes"/>
      <point x="424" y="443"/>
      <point x="438" y="429"/>
      <point x="449" y="409" type="curve"/>
      <point x="501" y="477" type="line"/>
      <point x="476" y="529"/>
      <point x="429" y="553"/>
      <point x="385" y="553" type="curve" smooth="yes"/>
      <point x="315" y="553"/>
      <point x="278" y="500"/>
      <point x="278" y="434" type="curve" smooth="yes"/>
      <point x="278" y="382"/>
      <point x="297" y="340"/>
      <point x="318" y="303" type="curve" smooth="yes"/>
      <point x="346" y="254"/>
      <point x="352" y="230"/>
      <point x="352" y="196" type="curve" smooth="yes"/>
      <point x="352" y="136"/>
      <point x="318" y="100"/>
      <point x="262" y="100" type="curve" smooth="yes"/>
      <point x="203" y="100"/>
      <point x="167" y="136"/>
      <point x="167" y="196" type="curve" smooth="yes"/>
      <point x="167" y="230"/>
      <point x="173" y="254"/>
      <point x="201" y="303" type="curve" smooth="yes"/>
      <point x="222" y="340"/>
      <point x="241" y="382"/>
      <point x="241" y="434" type="curve" smooth="yes"/>
      <point x="241" y="500"/>
      <point x="204" y="553"/>
      <point x="134" y="553" type="curve" smooth="yes"/>
      <point x="90" y="553"/>
      <point x="43" y="529"/>
      <point x="18" y="477" type="curve"/>
      <point x="70" y="409" type="line"/>
      <point x="81" y="429"/>
      <point x="95" y="443"/>
      <point x="113" y="443" type="curve" smooth="yes"/>
      <point x="127" y="443"/>
      <point x="137" y="433"/>
      <point x="137" y="418" type="curve" smooth="yes"/>
      <point x="137" y="395"/>
      <point x="118" y="385"/>
      <point x="92" y="351" type="curve" smooth="yes"/>
      <point x="58" y="306"/>
      <point x="35" y="252"/>
      <point x="35" y="191" type="curve" smooth="yes"/>
      <point x="35" y="70"/>
      <point x="122" y="-10"/>
    </contour>
  </outline>
</glyph>
<glyph name="vocL_skt" format="2">
  <advance width="518"/>
  <unicode hex="1054"/>
  <note>
vocL_skt
</note>
  <outline>
    <contour>
      <point x="277" y="-10" type="curve" smooth="yes"/>
      <point x="359" y="-10"/>
      <point x="429" y="37"/>
      <point x="475" y="76" type="curve"/>
      <point x="425" y="167" type="line"/>
      <point x="373" y="119"/>
      <point x="318" y="100"/>
      <point x="274" y="100" type="curve" smooth="yes"/>
      <point x="201" y="100"/>
      <point x="164" y="161"/>
      <point x="164" y="271" type="curve" smooth="yes"/>
      <point x="164" y="375"/>
      <point x="184" y="447"/>
      <point x="268" y="447" type="curve" smooth="yes"/>
      <point x="308" y="447"/>
      <point x="349" y="422"/>
      <point x="361" y="384" type="curve"/>
      <point x="330" y="361"/>
      <point x="299" y="347"/>
      <point x="271" y="347" type="curve" smooth="yes"/>
      <point x="230" y="347"/>
      <point x="193" y="364"/>
      <point x="156" y="398" type="curve"/>
      <point x="140" y="315" type="line"/>
      <point x="192" y="272"/>
      <point x="233" y="257"/>
      <point x="280" y="257" type="curve" smooth="yes"/>
      <point x="360" y="257"/>
      <point x="423" y="286"/>
      <point x="483" y="337" type="curve"/>
      <point x="471" y="470"/>
      <point x="384" y="553"/>
      <point x="262" y="553" type="curve" smooth="yes"/>
      <point x="130" y="553"/>
      <point x="35" y="443"/>
      <point x="35" y="271" type="curve" smooth="yes"/>
      <point x="35" y="103"/>
      <point x="123" y="-10"/>
    </contour>
  </outline>
</glyph>
<glyph name="vocLL_skt" format="2">
  <advance width="518"/>
  <unicode hex="1055"/>
  <note>
vocLL_skt
</note>
  <outline>
    <contour>
      <point x="180" y="-9" type="curve" smooth="yes"/>
      <point x="227" y="-9"/>
      <point x="256" y="21"/>
      <point x="270" y="58" type="curve"/>
      <point x="253" y="58" type="line"/>
      <point x="266" y="26"/>
      <point x="291" y="-9"/>
      <point x="349" y="-9" type="curve" smooth="yes"/>
      <point x="449" y="-9"/>
      <point x="483" y="55"/>
      <point x="483" y="152" type="curve"/>
      <point x="348" y="172" type="line"/>
      <point x="348" y="129"/>
      <point x="344" y="101"/>
      <point x="328" y="101" type="curve" smooth="yes"/>
      <point x="314" y="101"/>
      <point x="308" y="118"/>
      <point x="308" y="155" type="curve" smooth="yes"/>
      <point x="308" y="169" type="line"/>
      <point x="215" y="169" type="line"/>
      <point x="215" y="155" type="line" smooth="yes"/>
      <point x="215" y="117"/>
      <point x="208" y="101"/>
      <point x="197" y="101" type="curve" smooth="yes"/>
      <point x="169" y="101"/>
      <point x="165" y="168"/>
      <point x="165" y="265" type="curve" smooth="yes"/>
      <point x="165" y="375"/>
      <point x="184" y="447"/>
      <point x="268" y="447" type="curve" smooth="yes"/>
      <point x="308" y="447"/>
      <point x="349" y="422"/>
      <point x="361" y="384" type="curve"/>
      <point x="330" y="361"/>
      <point x="299" y="347"/>
      <point x="271" y="347" type="curve" smooth="yes"/>
      <point x="230" y="347"/>
      <point x="193" y="364"/>
      <point x="156" y="398" type="curve"/>
      <point x="140" y="315" type="line"/>
      <point x="192" y="272"/>
      <point x="233" y="257"/>
      <point x="280" y="257" type="curve" smooth="yes"/>
      <point x="360" y="257"/>
      <point x="423" y="286"/>
      <point x="483" y="337" type="curve"/>
      <point x="471" y="470"/>
      <point x="384" y="553"/>
      <point x="262" y="553" type="curve" smooth="yes"/>
      <point x="130" y="553"/>
      <point x="35" y="443"/>
      <point x="35" y="265" type="curve" smooth="yes"/>
      <point x="35" y="95"/>
      <point x="91" y="-9"/>
    </contour>
  </outline>
</glyph>
<glyph name="_vocR_skt" format="2">
  <advance width="284"/>
  <unicode hex="1056"/>
  <note>
_vocR_skt
</note>
  <outline>
    <contour>
      <point x="83" y="-10" type="curve" smooth="yes"/>
      <point x="189" y="-10"/>
      <point x="251" y="69"/>
      <point x="251" y="159" type="curve" smooth="yes"/>
      <point x="251" y="249"/>
      <point x="213" y="297"/>
      <point x="162" y="341" type="curve" smooth="yes"/>
      <point x="128" y="370"/>
      <point x="107" y="387"/>
      <point x="107" y="413" type="curve" smooth="yes"/>
      <point x="107" y="434"/>
      <point x="121" y="441"/>
      <point x="136" y="441" type="curve" smooth="yes"/>
      <point x="156" y="441"/>
      <point x="170" y="430"/>
      <point x="189" y="407" type="curve"/>
      <point x="260" y="487" type="line"/>
      <point x="232" y="526"/>
      <point x="193" y="551"/>
      <point x="128" y="551" type="curve" smooth="yes"/>
      <point x="39" y="551"/>
      <point x="-14" y="491"/>
      <point x="-14" y="411" type="curve" smooth="yes"/>
      <point x="-14" y="346"/>
      <point x="15" y="305"/>
      <point x="63" y="260" type="curve" smooth="yes"/>
      <point x="106" y="220"/>
      <point x="127" y="195"/>
      <point x="127" y="162" type="curve" smooth="yes"/>
      <point x="127" y="129"/>
      <point x="113" y="100"/>
      <point x="75" y="100" type="curve" smooth="yes"/>
      <point x="34" y="100"/>
      <point x="-5" y="142"/>
      <point x="-40" y="210" type="curve"/>
      <point x="-128" y="146" type="line"/>
      <point x="-75" y="39"/>
      <point x="-7" y="-10"/>
    </contour>
  </outline>
</glyph>
<glyph name="_vocRR_skt" format="2">
  <advance width="298"/>
  <unicode hex="1057"/>
  <note>
_vocRR_skt
</note>
  <outline>
    <contour>
      <point x="-42" y="-9" type="curve" smooth="yes"/>
      <point x="16" y="-9"/>
      <point x="41" y="26"/>
      <point x="54" y="58" type="curve"/>
      <point x="37" y="58" type="line"/>
      <point x="52" y="24"/>
      <point x="80" y="-9"/>
      <point x="135" y="-9" type="curve" smooth="yes"/>
      <point x="225" y="-9"/>
      <point x="265" y="76"/>
      <point x="265" y="159" type="curve" smooth="yes"/>
      <point x="265" y="249"/>
      <point x="227" y="297"/>
      <point x="176" y="341" type="curve" smooth="yes"/>
      <point x="142" y="370"/>
      <point x="121" y="387"/>
      <point x="121" y="413" type="curve" smooth="yes"/>
      <point x="121" y="434"/>
      <point x="135" y="441"/>
      <point x="150" y="441" type="curve" smooth="yes"/>
      <point x="170" y="441"/>
      <point x="184" y="430"/>
      <point x="203" y="407" type="curve"/>
      <point x="274" y="487" type="line"/>
      <point x="246" y="526"/>
      <point x="207" y="551"/>
      <point x="142" y="551" type="curve" smooth="yes"/>
      <point x="53" y="551"/>
      <point x="0" y="491"/>
      <point x="0" y="411" type="curve" smooth="yes"/>
      <point x="0" y="346"/>
      <point x="29" y="305"/>
      <point x="77" y="260" type="curve" smooth="yes"/>
      <point x="120" y="220"/>
      <point x="141" y="195"/>
      <point x="141" y="152" type="curve" smooth="yes"/>
      <point x="141" y="130"/>
      <point x="135" y="101"/>
      <point x="120" y="101" type="curve" smooth="yes"/>
      <point x="107" y="101"/>
      <point x="99" y="117"/>
      <point x="99" y="155" type="curve" smooth="yes"/>
      <point x="99" y="169" type="line"/>
      <point x="-4" y="169" type="line"/>
      <point x="-4" y="155" type="line" smooth="yes"/>
      <point x="-4" y="118"/>
      <point x="-11" y="101"/>
      <point x="-26" y="101" type="curve" smooth="yes"/>
      <point x="-44" y="101"/>
      <point x="-47" y="129"/>
      <point x="-48" y="172" type="curve"/>
      <point x="-163" y="152" type="line"/>
      <point x="-163" y="55"/>
      <point x="-132" y="-9"/>
    </contour>
  </outline>
</glyph>
<glyph name="_vocL_skt" format="2">
  <unicode hex="1058"/>
  <note>
_vocL_skt
</note>
  <outline>
    <contour>
      <point x="-218" y="-476" type="curve" smooth="yes"/>
      <point x="-173" y="-476"/>
      <point x="-138" y="-471"/>
      <point x="-89" y="-447" type="curve"/>
      <point x="-113" y="-349" type="line"/>
      <point x="-161" y="-370"/>
      <point x="-193" y="-373"/>
      <point x="-220" y="-373" type="curve" smooth="yes"/>
      <point x="-279" y="-373"/>
      <point x="-308" y="-343"/>
      <point x="-308" y="-260" type="curve" smooth="yes"/>
      <point x="-308" y="-186"/>
      <point x="-291" y="-143"/>
      <point x="-226" y="-143" type="curve" smooth="yes"/>
      <point x="-202" y="-143"/>
      <point x="-181" y="-154"/>
      <point x="-167" y="-180" type="curve"/>
      <point x="-199" y="-196"/>
      <point x="-228" y="-200"/>
      <point x="-245" y="-200" type="curve" smooth="yes"/>
      <point x="-261" y="-200"/>
      <point x="-288" y="-199"/>
      <point x="-313" y="-189" type="curve"/>
      <point x="-322" y="-273" type="line"/>
      <point x="-288" y="-282"/>
      <point x="-261" y="-283"/>
      <point x="-237" y="-283" type="curve" smooth="yes"/>
      <point x="-174" y="-283"/>
      <point x="-130" y="-269"/>
      <point x="-68" y="-237" type="curve"/>
      <point x="-75" y="-120"/>
      <point x="-138" y="-46"/>
      <point x="-238" y="-46" type="curve" smooth="yes"/>
      <point x="-337" y="-46"/>
      <point x="-418" y="-111"/>
      <point x="-418" y="-261" type="curve" smooth="yes"/>
      <point x="-418" y="-406"/>
      <point x="-350" y="-476"/>
    </contour>
  </outline>
</glyph>
<glyph name="_vocLL_skt" format="2">
  <unicode hex="1059"/>
  <note>
_vocLL_skt
</note>
  <outline>
    <contour>
      <point x="-298" y="-476" type="curve" smooth="yes"/>
      <point x="-256" y="-476"/>
      <point x="-236" y="-453"/>
      <point x="-227" y="-420" type="curve"/>
      <point x="-243" y="-425" type="line"/>
      <point x="-230" y="-457"/>
      <point x="-209" y="-476"/>
      <point x="-171" y="-476" type="curve" smooth="yes"/>
      <point x="-101" y="-476"/>
      <point x="-84" y="-406"/>
      <point x="-84" y="-345" type="curve"/>
      <point x="-176" y="-329" type="line"/>
      <point x="-176" y="-356"/>
      <point x="-178" y="-372"/>
      <point x="-188" y="-372" type="curve" smooth="yes"/>
      <point x="-194" y="-372"/>
      <point x="-199" y="-367"/>
      <point x="-199" y="-331" type="curve" smooth="yes"/>
      <point x="-199" y="-329" type="line"/>
      <point x="-275" y="-329" type="line"/>
      <point x="-275" y="-331" type="line" smooth="yes"/>
      <point x="-275" y="-367"/>
      <point x="-277" y="-372"/>
      <point x="-286" y="-372" type="curve" smooth="yes"/>
      <point x="-296" y="-372"/>
      <point x="-300" y="-350"/>
      <point x="-300" y="-272" type="curve" smooth="yes"/>
      <point x="-300" y="-179"/>
      <point x="-280" y="-136"/>
      <point x="-239" y="-136" type="curve" smooth="yes"/>
      <point x="-207" y="-136"/>
      <point x="-189" y="-162"/>
      <point x="-185" y="-181" type="curve"/>
      <point x="-206" y="-199"/>
      <point x="-223" y="-203"/>
      <point x="-237" y="-203" type="curve" smooth="yes"/>
      <point x="-252" y="-203"/>
      <point x="-279" y="-202"/>
      <point x="-304" y="-191" type="curve"/>
      <point x="-313" y="-272" type="line"/>
      <point x="-279" y="-279"/>
      <point x="-252" y="-280"/>
      <point x="-227" y="-280" type="curve" smooth="yes"/>
      <point x="-174" y="-280"/>
      <point x="-137" y="-263"/>
      <point x="-86" y="-238" type="curve"/>
      <point x="-91" y="-126"/>
      <point x="-144" y="-46"/>
      <point x="-236" y="-46" type="curve" smooth="yes"/>
      <point x="-337" y="-46"/>
      <point x="-410" y="-110"/>
      <point x="-410" y="-272" type="curve" smooth="yes"/>
      <point x="-410" y="-399"/>
      <point x="-364" y="-476"/>
    </contour>
  </outline>
</glyph>
<glyph name="nga_mon" format="2">
  <advance width="510"/>
  <unicode hex="105A"/>
  <note>
nga_mon
</note>
  <outline>
    <contour>
      <point x="272" y="-9" type="curve" smooth="yes"/>
      <point x="364" y="-9"/>
      <point x="439" y="52"/>
      <point x="475" y="138" type="curve"/>
      <point x="375" y="188" type="line"/>
      <point x="350" y="129"/>
      <point x="316" y="101"/>
      <point x="273" y="101" type="curve" smooth="yes"/>
      <point x="211" y="101"/>
      <point x="167" y="169"/>
      <point x="167" y="272" type="curve" smooth="yes"/>
      <point x="167" y="373"/>
      <point x="209" y="443"/>
      <point x="273" y="443" type="curve" smooth="yes"/>
      <point x="312" y="443"/>
      <point x="344" y="419"/>
      <point x="368" y="356" type="curve"/>
      <point x="461" y="411" type="line"/>
      <point x="428" y="497"/>
      <point x="353" y="553"/>
      <point x="272" y="553" type="curve" smooth="yes"/>
      <point x="133" y="553"/>
      <point x="35" y="436"/>
      <point x="35" y="272" type="curve" smooth="yes"/>
      <point x="35" y="107"/>
      <point x="135" y="-9"/>
    </contour>
    <contour>
      <point x="304" y="-473" type="curve" smooth="yes"/>
      <point x="346" y="-473"/>
      <point x="372" y="-465"/>
      <point x="392" y="-451" type="curve"/>
      <point x="363" y="-378" type="line"/>
      <point x="354" y="-383"/>
      <point x="347" y="-385"/>
      <point x="338" y="-385" type="curve" smooth="yes"/>
      <point x="325" y="-385"/>
      <point x="316" y="-376"/>
      <point x="316" y="-361" type="curve" smooth="yes"/>
      <point x="316" y="-347"/>
      <point x="324" y="-332"/>
      <point x="347" y="-313" type="curve" smooth="yes"/>
      <point x="381" y="-286"/>
      <point x="409" y="-243"/>
      <point x="409" y="-184" type="curve" smooth="yes"/>
      <point x="409" y="-103"/>
      <point x="354" y="-47"/>
      <point x="270" y="-47" type="curve" smooth="yes"/>
      <point x="180" y="-47"/>
      <point x="128" y="-109"/>
      <point x="122" y="-193" type="curve"/>
      <point x="225" y="-193" type="line"/>
      <point x="228" y="-164"/>
      <point x="241" y="-142"/>
      <point x="262" y="-142" type="curve" smooth="yes"/>
      <point x="286" y="-142"/>
      <point x="298" y="-158"/>
      <point x="298" y="-181" type="curve" smooth="yes"/>
      <point x="298" y="-203"/>
      <point x="293" y="-223"/>
      <point x="275" y="-247" type="curve" smooth="yes"/>
      <point x="251" y="-278"/>
      <point x="208" y="-317"/>
      <point x="208" y="-374" type="curve" smooth="yes"/>
      <point x="208" y="-435"/>
      <point x="253" y="-473"/>
    </contour>
  </outline>
</glyph>
<glyph name="jha_mon" format="2">
  <advance width="685"/>
  <unicode hex="105B"/>
  <note>
jha_mon
</note>
  <outline>
    <contour>
      <point x="281" y="-10" type="curve" smooth="yes"/>
      <point x="342" y="-10"/>
      <point x="399" y="6"/>
      <point x="426" y="42" type="curve"/>
      <point x="359" y="122" type="line"/>
      <point x="345" y="108"/>
      <point x="326" y="100"/>
      <point x="297" y="100" type="curve" smooth="yes"/>
      <point x="204" y="100"/>
      <point x="167" y="170"/>
      <point x="167" y="274" type="curve" smooth="yes"/>
      <point x="167" y="374"/>
      <point x="212" y="443"/>
      <point x="280" y="443" type="curve" smooth="yes"/>
      <point x="296" y="443"/>
      <point x="299" y="442"/>
      <point x="309" y="440" type="curve"/>
      <point x="305" y="456" type="line"/>
      <point x="277" y="427"/>
      <point x="264" y="393"/>
      <point x="264" y="359" type="curve" smooth="yes"/>
      <point x="264" y="297"/>
      <point x="297" y="251"/>
      <point x="356" y="251" type="curve" smooth="yes"/>
      <point x="374" y="251"/>
      <point x="394" y="255"/>
      <point x="400" y="269" type="curve"/>
      <point x="392" y="269" type="line"/>
      <point x="396" y="213"/>
      <point x="421" y="166"/>
      <point x="494" y="166" type="curve" smooth="yes"/>
      <point x="566" y="166" type="line"/>
      <point x="566" y="276" type="line"/>
      <point x="515" y="276" type="line" smooth="yes"/>
      <point x="486" y="276"/>
      <point x="469" y="286"/>
      <point x="469" y="321" type="curve" smooth="yes"/>
      <point x="469" y="336"/>
      <point x="471" y="355"/>
      <point x="471" y="379" type="curve" smooth="yes"/>
      <point x="471" y="479"/>
      <point x="413" y="553"/>
      <point x="284" y="553" type="curve" smooth="yes"/>
      <point x="127" y="553"/>
      <point x="35" y="436"/>
      <point x="35" y="272" type="curve" smooth="yes"/>
      <point x="35" y="101"/>
      <point x="130" y="-10"/>
    </contour>
    <contour>
      <point x="455" y="-473" type="curve" smooth="yes"/>
      <point x="571" y="-473"/>
      <point x="645" y="-377"/>
      <point x="645" y="-212" type="curve" smooth="yes"/>
      <point x="645" y="543" type="line"/>
      <point x="514" y="543" type="line"/>
      <point x="514" y="-198" type="line" smooth="yes"/>
      <point x="514" y="-310"/>
      <point x="498" y="-363"/>
      <point x="458" y="-363" type="curve" smooth="yes"/>
      <point x="419" y="-363"/>
      <point x="402" y="-311"/>
      <point x="402" y="-198" type="curve" smooth="yes"/>
      <point x="402" y="47" type="line"/>
      <point x="271" y="10" type="line"/>
      <point x="271" y="-211" type="line" smooth="yes"/>
      <point x="271" y="-379"/>
      <point x="343" y="-473"/>
    </contour>
    <contour>
      <point x="369" y="325" type="curve" smooth="yes"/>
      <point x="347" y="325"/>
      <point x="336" y="346"/>
      <point x="336" y="372" type="curve" smooth="yes"/>
      <point x="336" y="399"/>
      <point x="350" y="418"/>
      <point x="369" y="418" type="curve" smooth="yes"/>
      <point x="388" y="418"/>
      <point x="402" y="399"/>
      <point x="402" y="372" type="curve" smooth="yes"/>
      <point x="402" y="344"/>
      <point x="388" y="325"/>
    </contour>
  </outline>
</glyph>
<glyph name="bba_mon" format="2">
  <advance width="518"/>
  <unicode hex="105C"/>
  <note>
bba_mon
</note>
  <outline>
    <contour>
      <point x="260" y="-10" type="curve" smooth="yes"/>
      <point x="404" y="-10"/>
      <point x="499" y="106"/>
      <point x="499" y="271" type="curve" smooth="yes"/>
      <point x="499" y="433"/>
      <point x="405" y="553"/>
      <point x="259" y="553" type="curve" smooth="yes"/>
      <point x="113" y="553"/>
      <point x="16" y="434"/>
      <point x="16" y="271" type="curve" smooth="yes"/>
      <point x="16" y="108"/>
      <point x="114" y="-10"/>
    </contour>
    <contour>
      <point x="255" y="108" type="curve" smooth="yes"/>
      <point x="168" y="108"/>
      <point x="120" y="176"/>
      <point x="120" y="271" type="curve" smooth="yes"/>
      <point x="120" y="366"/>
      <point x="172" y="434"/>
      <point x="255" y="434" type="curve" smooth="yes"/>
      <point x="342" y="434"/>
      <point x="396" y="367"/>
      <point x="396" y="270" type="curve" smooth="yes"/>
      <point x="396" y="177"/>
      <point x="347" y="108"/>
    </contour>
    <contour>
      <point x="258" y="160" type="curve" smooth="yes"/>
      <point x="313" y="160"/>
      <point x="352" y="201"/>
      <point x="352" y="274" type="curve" smooth="yes"/>
      <point x="352" y="344"/>
      <point x="311" y="386"/>
      <point x="258" y="386" type="curve" smooth="yes"/>
      <point x="203" y="386"/>
      <point x="165" y="345"/>
      <point x="165" y="273" type="curve" smooth="yes"/>
      <point x="165" y="201"/>
      <point x="203" y="160"/>
    </contour>
    <contour>
      <point x="259" y="227" type="curve" smooth="yes"/>
      <point x="241" y="227"/>
      <point x="232" y="244"/>
      <point x="232" y="273" type="curve" smooth="yes"/>
      <point x="232" y="302"/>
      <point x="244" y="320"/>
      <point x="259" y="320" type="curve" smooth="yes"/>
      <point x="274" y="320"/>
      <point x="286" y="302"/>
      <point x="286" y="273" type="curve" smooth="yes"/>
      <point x="286" y="244"/>
      <point x="274" y="227"/>
    </contour>
  </outline>
</glyph>
<glyph name="bbe_mon" format="2">
  <advance width="538"/>
  <unicode hex="105D"/>
  <note>
bbe_mon
</note>
  <outline>
    <contour>
      <point x="210" y="-466" type="curve" smooth="yes"/>
      <point x="305" y="-466" type="line" smooth="yes"/>
      <point x="417" y="-466"/>
      <point x="471" y="-395"/>
      <point x="471" y="-253" type="curve" smooth="yes"/>
      <point x="471" y="138" type="line"/>
      <point x="341" y="23" type="line"/>
      <point x="341" y="-264" type="line" smooth="yes"/>
      <point x="341" y="-318"/>
      <point x="331" y="-358"/>
      <point x="289" y="-358" type="curve" smooth="yes"/>
      <point x="218" y="-358" type="line" smooth="yes"/>
      <point x="182" y="-358"/>
      <point x="158" y="-343"/>
      <point x="158" y="-307" type="curve" smooth="yes"/>
      <point x="158" y="-278"/>
      <point x="173" y="-261"/>
      <point x="198" y="-261" type="curve" smooth="yes"/>
      <point x="222" y="-261"/>
      <point x="235" y="-272"/>
      <point x="253" y="-287" type="curve"/>
      <point x="293" y="-201" type="line"/>
      <point x="265" y="-171"/>
      <point x="235" y="-152"/>
      <point x="186" y="-152" type="curve" smooth="yes"/>
      <point x="105" y="-152"/>
      <point x="45" y="-214"/>
      <point x="45" y="-306" type="curve" smooth="yes"/>
      <point x="45" y="-411"/>
      <point x="107" y="-466"/>
    </contour>
    <contour>
      <point x="171" y="151" type="line"/>
      <point x="194" y="181"/>
      <point x="223" y="200"/>
      <point x="271" y="200" type="curve" smooth="yes"/>
      <point x="313" y="200"/>
      <point x="336" y="183"/>
      <point x="369" y="153" type="curve"/>
      <point x="399" y="229" type="line"/>
      <point x="359" y="272"/>
      <point x="314" y="290"/>
      <point x="269" y="290" type="curve" smooth="yes"/>
      <point x="221" y="290"/>
      <point x="171" y="266"/>
      <point x="143" y="228" type="curve"/>
    </contour>
    <contour>
      <point x="264" y="-10" type="curve" smooth="yes"/>
      <point x="408" y="-10"/>
      <point x="502" y="106"/>
      <point x="502" y="275" type="curve" smooth="yes"/>
      <point x="502" y="402"/>
      <point x="455" y="502"/>
      <point x="386" y="553" type="curve"/>
      <point x="322" y="451" type="line"/>
      <point x="364" y="402"/>
      <point x="372" y="345"/>
      <point x="372" y="275" type="curve" smooth="yes"/>
      <point x="372" y="153"/>
      <point x="334" y="90"/>
      <point x="273" y="90" type="curve" smooth="yes"/>
      <point x="198" y="90"/>
      <point x="165" y="156"/>
      <point x="165" y="275" type="curve" smooth="yes"/>
      <point x="165" y="347"/>
      <point x="173" y="402"/>
      <point x="212" y="451" type="curve"/>
      <point x="148" y="553" type="line"/>
      <point x="79" y="501"/>
      <point x="35" y="403"/>
      <point x="35" y="275" type="curve" smooth="yes"/>
      <point x="35" y="106"/>
      <point x="123" y="-10"/>
    </contour>
  </outline>
</glyph>
<glyph name="_medialNa_mon" format="2">
  <unicode hex="105E"/>
  <note>
_medialNa_mon
</note>
  <outline>
    <contour>
      <point x="-302" y="-473" type="curve" smooth="yes"/>
      <point x="-204" y="-473"/>
      <point x="-166" y="-416"/>
      <point x="-166" y="-310" type="curve" smooth="yes"/>
      <point x="-166" y="-45" type="line"/>
      <point x="-275" y="-45" type="line"/>
      <point x="-275" y="-320" type="line" smooth="yes"/>
      <point x="-275" y="-356"/>
      <point x="-285" y="-374"/>
      <point x="-307" y="-374" type="curve" smooth="yes"/>
      <point x="-325" y="-374"/>
      <point x="-336" y="-362"/>
      <point x="-336" y="-333" type="curve" smooth="yes"/>
      <point x="-336" y="-292"/>
      <point x="-302" y="-264"/>
      <point x="-252" y="-264" type="curve" smooth="yes"/>
      <point x="-210" y="-264"/>
      <point x="-166" y="-284"/>
      <point x="-105" y="-325" type="curve"/>
      <point x="-50" y="-242" type="line"/>
      <point x="-114" y="-194"/>
      <point x="-176" y="-166"/>
      <point x="-250" y="-166" type="curve" smooth="yes"/>
      <point x="-354" y="-166"/>
      <point x="-438" y="-231"/>
      <point x="-438" y="-329" type="curve" smooth="yes"/>
      <point x="-438" y="-419"/>
      <point x="-388" y="-473"/>
    </contour>
  </outline>
</glyph>
<glyph name="_medialMa_mon" format="2">
  <unicode hex="105F"/>
  <note>
_medialMa_mon
</note>
  <outline>
    <contour>
      <point x="-253" y="-473" type="curve" smooth="yes"/>
      <point x="-187" y="-473"/>
      <point x="-108" y="-444"/>
      <point x="-55" y="-397" type="curve"/>
      <point x="-102" y="-317" type="line"/>
      <point x="-138" y="-343"/>
      <point x="-180" y="-374"/>
      <point x="-249" y="-374" type="curve" smooth="yes"/>
      <point x="-292" y="-374"/>
      <point x="-317" y="-354"/>
      <point x="-317" y="-321" type="curve" smooth="yes"/>
      <point x="-317" y="-288"/>
      <point x="-289" y="-265"/>
      <point x="-249" y="-265" type="curve" smooth="yes"/>
      <point x="-229" y="-265"/>
      <point x="-212" y="-268"/>
      <point x="-184" y="-275" type="curve"/>
      <point x="-184" y="-45" type="line"/>
      <point x="-293" y="-45" type="line"/>
      <point x="-293" y="-166" type="line"/>
      <point x="-370" y="-170"/>
      <point x="-425" y="-234"/>
      <point x="-425" y="-316" type="curve" smooth="yes"/>
      <point x="-425" y="-416"/>
      <point x="-362" y="-473"/>
    </contour>
  </outline>
</glyph>
<glyph name="_medialLa_mon" format="2">
  <unicode hex="1060"/>
  <note>
_medialLa_mon
</note>
  <outline>
    <contour>
      <point x="-433" y="-466" type="line"/>
      <point x="-99" y="-466" type="line"/>
      <point x="-99" y="-346" type="line"/>
      <point x="-221" y="-346" type="line"/>
      <point x="-101" y="-48" type="line"/>
      <point x="-256" y="-48" type="line"/>
    </contour>
  </outline>
</glyph>
<glyph name="sha_skn" format="2">
  <advance width="570"/>
  <unicode hex="1061"/>
  <note>
sha_skn
</note>
  <outline>
    <contour>
      <point x="398" y="-466" type="line"/>
      <point x="530" y="-466" type="line"/>
      <point x="530" y="271" type="line" smooth="yes"/>
      <point x="530" y="433"/>
      <point x="447" y="553"/>
      <point x="277" y="553" type="curve" smooth="yes"/>
      <point x="125" y="553"/>
      <point x="33" y="437"/>
      <point x="33" y="271" type="curve" smooth="yes"/>
      <point x="33" y="92"/>
      <point x="122" y="-10"/>
      <point x="250" y="-10" type="curve" smooth="yes"/>
      <point x="291" y="-10"/>
      <point x="315" y="0"/>
      <point x="336" y="7" type="curve"/>
      <point x="336" y="205"/>
      <point x="271" y="316"/>
      <point x="134" y="344" type="curve"/>
      <point x="119" y="261" type="line"/>
      <point x="202" y="251"/>
      <point x="242" y="176"/>
      <point x="246" y="57" type="curve"/>
      <point x="286" y="95" type="line"/>
      <point x="273" y="94"/>
      <point x="257" y="94"/>
      <point x="246" y="94" type="curve" smooth="yes"/>
      <point x="172" y="94"/>
      <point x="127" y="166"/>
      <point x="127" y="268" type="curve" smooth="yes"/>
      <point x="127" y="373"/>
      <point x="175" y="443"/>
      <point x="269" y="443" type="curve" smooth="yes"/>
      <point x="356" y="443"/>
      <point x="398" y="372"/>
      <point x="398" y="271" type="curve" smooth="yes"/>
    </contour>
    <contour>
      <point x="128" y="-466" type="line"/>
      <point x="336" y="-466" type="line"/>
      <point x="336" y="7" type="line"/>
      <point x="204" y="7" type="line" smooth="yes"/>
      <point x="204" y="-356" type="line"/>
      <point x="128" y="-356" type="line"/>
    </contour>
  </outline>
</glyph>
<glyph name="eu_skn" format="2">
  <advance width="275"/>
  <unicode hex="1062"/>
  <note>
eu_skn
</note>
  <outline>
    <contour>
      <point x="90" y="0" type="line"/>
      <point x="220" y="0" type="line"/>
      <point x="220" y="546" type="line"/>
      <point x="10" y="546" type="line"/>
      <point x="10" y="426" type="line"/>
      <point x="90" y="426" type="line"/>
    </contour>
  </outline>
</glyph>
<glyph name="hathi_skn" format="2">
  <advance width="515"/>
  <unicode hex="1063"/>
  <note>
hathi_skn
</note>
  <outline>
    <contour>
      <point x="41" y="-466" type="line"/>
      <point x="174" y="-466" type="line"/>
      <point x="174" y="23" type="line"/>
      <point x="41" y="138" type="line"/>
    </contour>
    <contour>
      <point x="243" y="-9" type="curve" smooth="yes"/>
      <point x="380" y="-9"/>
      <point x="480" y="107"/>
      <point x="480" y="272" type="curve" smooth="yes"/>
      <point x="480" y="436"/>
      <point x="382" y="553"/>
      <point x="243" y="553" type="curve" smooth="yes"/>
      <point x="162" y="553"/>
      <point x="87" y="497"/>
      <point x="54" y="411" type="curve"/>
      <point x="147" y="356" type="line"/>
      <point x="171" y="419"/>
      <point x="203" y="443"/>
      <point x="242" y="443" type="curve" smooth="yes"/>
      <point x="306" y="443"/>
      <point x="348" y="373"/>
      <point x="348" y="272" type="curve" smooth="yes"/>
      <point x="348" y="169"/>
      <point x="304" y="101"/>
      <point x="242" y="101" type="curve" smooth="yes"/>
      <point x="199" y="101"/>
      <point x="165" y="129"/>
      <point x="140" y="188" type="curve"/>
      <point x="40" y="138" type="line"/>
      <point x="76" y="52"/>
      <point x="151" y="-9"/>
    </contour>
  </outline>
</glyph>
<glyph name="kepho_skn" format="2">
  <advance width="326"/>
  <unicode hex="1064"/>
  <note>
kepho_skn
</note>
  <outline>
    <contour>
      <point x="98" y="0" type="line"/>
      <point x="309" y="0" type="line"/>
      <point x="309" y="110" type="line"/>
      <point x="230" y="110" type="line"/>
      <point x="230" y="546" type="line"/>
      <point x="18" y="546" type="line"/>
      <point x="18" y="436" type="line"/>
      <point x="98" y="436" type="line"/>
    </contour>
  </outline>
</glyph>
<glyph name="tha_wpk" format="2">
  <advance width="540"/>
  <unicode hex="1065"/>
  <note>
tha_wpk
</note>
  <outline>
    <contour>
      <point x="249" y="-10" type="curve" smooth="yes"/>
      <point x="403" y="-10"/>
      <point x="505" y="101"/>
      <point x="505" y="266" type="curve" smooth="yes"/>
      <point x="505" y="440"/>
      <point x="407" y="553"/>
      <point x="259" y="553" type="curve" smooth="yes"/>
      <point x="158" y="553"/>
      <point x="84" y="496"/>
      <point x="51" y="411" type="curve"/>
      <point x="142" y="356" type="line"/>
      <point x="168" y="418"/>
      <point x="200" y="448"/>
      <point x="259" y="448" type="curve" smooth="yes"/>
      <point x="334" y="448"/>
      <point x="373" y="380"/>
      <point x="373" y="266" type="curve" smooth="yes"/>
      <point x="373" y="165"/>
      <point x="337" y="95"/>
      <point x="259" y="95" type="curve" smooth="yes"/>
      <point x="204" y="95"/>
      <point x="170" y="126"/>
      <point x="138" y="190" type="curve"/>
      <point x="35" y="138" type="line"/>
      <point x="75" y="51"/>
      <point x="148" y="-10"/>
    </contour>
  </outline>
</glyph>
<glyph name="pwa_wpk" format="2">
  <advance width="522"/>
  <unicode hex="1066"/>
  <note>
pwa_wpk
</note>
  <outline>
    <contour>
      <point x="269" y="-10" type="curve" smooth="yes"/>
      <point x="417" y="-10"/>
      <point x="503" y="106"/>
      <point x="503" y="275" type="curve" smooth="yes"/>
      <point x="503" y="403"/>
      <point x="456" y="504"/>
      <point x="389" y="553" type="curve"/>
      <point x="325" y="451" type="line"/>
      <point x="363" y="402"/>
      <point x="372" y="346"/>
      <point x="372" y="276" type="curve" smooth="yes"/>
      <point x="372" y="172"/>
      <point x="342" y="100"/>
      <point x="268" y="100" type="curve" smooth="yes"/>
      <point x="199" y="100"/>
      <point x="167" y="170"/>
      <point x="167" y="276" type="curve" smooth="yes"/>
      <point x="167" y="347"/>
      <point x="175" y="402"/>
      <point x="213" y="451" type="curve"/>
      <point x="149" y="553" type="line"/>
      <point x="82" y="504"/>
      <point x="35" y="405"/>
      <point x="35" y="275" type="curve" smooth="yes"/>
      <point x="35" y="105"/>
      <point x="119" y="-10"/>
    </contour>
    <contour>
      <point x="134" y="-466" type="line"/>
      <point x="344" y="-466" type="line"/>
      <point x="344" y="14" type="line"/>
      <point x="212" y="11" type="line"/>
      <point x="212" y="-346" type="line"/>
      <point x="134" y="-346" type="line"/>
    </contour>
  </outline>
</glyph>
<glyph name="eu_wpk" format="2">
  <advance width="336"/>
  <unicode hex="1067"/>
  <note>
eu_wpk
</note>
  <outline>
    <contour>
      <point x="147" y="-10" type="curve" smooth="yes"/>
      <point x="228" y="-10"/>
      <point x="282" y="44"/>
      <point x="282" y="142" type="curve" smooth="yes"/>
      <point x="282" y="233"/>
      <point x="228" y="294"/>
      <point x="147" y="294" type="curve" smooth="yes"/>
      <point x="66" y="294"/>
      <point x="13" y="238"/>
      <point x="13" y="142" type="curve" smooth="yes"/>
      <point x="13" y="44"/>
      <point x="67" y="-10"/>
    </contour>
    <contour>
      <point x="147" y="82" type="curve" smooth="yes"/>
      <point x="121" y="82"/>
      <point x="107" y="106"/>
      <point x="107" y="142" type="curve" smooth="yes"/>
      <point x="107" y="180"/>
      <point x="124" y="201"/>
      <point x="147" y="201" type="curve" smooth="yes"/>
      <point x="171" y="201"/>
      <point x="188" y="180"/>
      <point x="188" y="142" type="curve" smooth="yes"/>
      <point x="188" y="106"/>
      <point x="174" y="82"/>
    </contour>
    <contour>
      <point x="282" y="142" type="line"/>
      <point x="282" y="543" type="line"/>
      <point x="160" y="543" type="line"/>
      <point x="160" y="286" type="line"/>
    </contour>
  </outline>
</glyph>
<glyph name="ue_wpk" format="2">
  <advance width="320"/>
  <unicode hex="1068"/>
  <note>
ue_wpk
</note>
  <outline>
    <contour>
      <point x="18" y="0" type="line"/>
      <point x="229" y="0" type="line"/>
      <point x="229" y="546" type="line"/>
      <point x="97" y="546" type="line"/>
      <point x="97" y="110" type="line"/>
      <point x="18" y="110" type="line"/>
    </contour>
    <contour>
      <point x="160" y="643" type="curve" smooth="yes"/>
      <point x="220" y="643"/>
      <point x="263" y="685"/>
      <point x="263" y="759" type="curve" smooth="yes"/>
      <point x="263" y="826"/>
      <point x="222" y="872"/>
      <point x="160" y="872" type="curve" smooth="yes"/>
      <point x="97" y="872"/>
      <point x="59" y="829"/>
      <point x="59" y="758" type="curve" smooth="yes"/>
      <point x="59" y="685"/>
      <point x="100" y="643"/>
    </contour>
    <contour>
      <point x="161" y="712" type="curve" smooth="yes"/>
      <point x="142" y="712"/>
      <point x="130" y="730"/>
      <point x="130" y="758" type="curve" smooth="yes"/>
      <point x="130" y="787"/>
      <point x="143" y="802"/>
      <point x="161" y="802" type="curve" smooth="yes"/>
      <point x="179" y="802"/>
      <point x="192" y="787"/>
      <point x="192" y="758" type="curve" smooth="yes"/>
      <point x="192" y="730"/>
      <point x="179" y="712"/>
    </contour>
  </outline>
</glyph>
<glyph name="tone1_wpk" format="2">
  <advance width="354"/>
  <unicode hex="1069"/>
  <note>
tone1_wpk
</note>
  <outline>
    <contour>
      <point x="166" y="-11" type="curve" smooth="yes"/>
      <point x="230" y="-11"/>
      <point x="277" y="10"/>
      <point x="326" y="74" type="curve"/>
      <point x="255" y="149" type="line"/>
      <point x="231" y="126"/>
      <point x="213" y="104"/>
      <point x="184" y="104" type="curve" smooth="yes"/>
      <point x="168" y="104"/>
      <point x="157" y="115"/>
      <point x="157" y="136" type="curve" smooth="yes"/>
      <point x="157" y="162"/>
      <point x="176" y="188"/>
      <point x="203" y="212" type="curve" smooth="yes"/>
      <point x="285" y="284"/>
      <point x="315" y="334"/>
      <point x="315" y="407" type="curve" smooth="yes"/>
      <point x="315" y="492"/>
      <point x="262" y="553"/>
      <point x="174" y="553" type="curve" smooth="yes"/>
      <point x="108" y="553"/>
      <point x="66" y="529"/>
      <point x="30" y="488" type="curve"/>
      <point x="95" y="402" type="line"/>
      <point x="116" y="426"/>
      <point x="136" y="438"/>
      <point x="153" y="438" type="curve" smooth="yes"/>
      <point x="172" y="438"/>
      <point x="183" y="426"/>
      <point x="183" y="406" type="curve" smooth="yes"/>
      <point x="183" y="383"/>
      <point x="167" y="357"/>
      <point x="137" y="331" type="curve" smooth="yes"/>
      <point x="58" y="262"/>
      <point x="25" y="208"/>
      <point x="25" y="135" type="curve" smooth="yes"/>
      <point x="25" y="50"/>
      <point x="82" y="-11"/>
    </contour>
  </outline>
</glyph>
<glyph name="tone2_wpk" format="2">
  <advance width="359"/>
  <unicode hex="106A"/>
  <note>
tone2_wpk
</note>
  <outline>
    <contour>
      <point x="151" y="-10" type="curve" smooth="yes"/>
      <point x="252" y="-10"/>
      <point x="304" y="52"/>
      <point x="304" y="160" type="curve" smooth="yes"/>
      <point x="304" y="543" type="line"/>
      <point x="182" y="543" type="line"/>
      <point x="182" y="165" type="line" smooth="yes"/>
      <point x="182" y="128"/>
      <point x="174" y="100"/>
      <point x="153" y="100" type="curve" smooth="yes"/>
      <point x="129" y="100"/>
      <point x="121" y="127"/>
      <point x="121" y="177" type="curve"/>
      <point x="6" y="177" type="line"/>
      <point x="6" y="57"/>
      <point x="53" y="-10"/>
    </contour>
  </outline>
</glyph>
<glyph name="tone3_wpk" format="2">
  <advance width="359"/>
  <unicode hex="106B"/>
  <note>
tone3_wpk
</note>
  <outline>
    <contour>
      <point x="182" y="0" type="line"/>
      <point x="304" y="0" type="line"/>
      <point x="304" y="383" type="line" smooth="yes"/>
      <point x="304" y="491"/>
      <point x="252" y="553"/>
      <point x="151" y="553" type="curve" smooth="yes"/>
      <point x="53" y="553"/>
      <point x="6" y="486"/>
      <point x="6" y="366" type="curve"/>
      <point x="121" y="366" type="line"/>
      <point x="121" y="416"/>
      <point x="129" y="443"/>
      <point x="153" y="443" type="curve" smooth="yes"/>
      <point x="174" y="443"/>
      <point x="182" y="415"/>
      <point x="182" y="378" type="curve" smooth="yes"/>
    </contour>
  </outline>
</glyph>
<glyph name="tone4_wpk" format="2">
  <advance width="359"/>
  <unicode hex="106C"/>
  <note>
tone4_wpk
</note>
  <outline>
    <contour>
      <point x="208" y="-10" type="curve" smooth="yes"/>
      <point x="306" y="-10"/>
      <point x="353" y="57"/>
      <point x="353" y="177" type="curve"/>
      <point x="238" y="177" type="line"/>
      <point x="238" y="127"/>
      <point x="230" y="100"/>
      <point x="206" y="100" type="curve" smooth="yes"/>
      <point x="185" y="100"/>
      <point x="177" y="128"/>
      <point x="177" y="165" type="curve" smooth="yes"/>
      <point x="177" y="543" type="line"/>
      <point x="55" y="543" type="line"/>
      <point x="55" y="160" type="line" smooth="yes"/>
      <point x="55" y="52"/>
      <point x="107" y="-10"/>
    </contour>
  </outline>
</glyph>
<glyph name="tone5_wpk" format="2">
  <advance width="354"/>
  <unicode hex="106D"/>
  <note>
tone5_wpk
</note>
  <outline>
    <contour>
      <point x="188" y="-11" type="curve" smooth="yes"/>
      <point x="272" y="-11"/>
      <point x="329" y="50"/>
      <point x="329" y="135" type="curve" smooth="yes"/>
      <point x="329" y="208"/>
      <point x="296" y="262"/>
      <point x="217" y="331" type="curve" smooth="yes"/>
      <point x="187" y="357"/>
      <point x="171" y="383"/>
      <point x="171" y="406" type="curve" smooth="yes"/>
      <point x="171" y="426"/>
      <point x="182" y="438"/>
      <point x="201" y="438" type="curve" smooth="yes"/>
      <point x="218" y="438"/>
      <point x="238" y="426"/>
      <point x="259" y="402" type="curve"/>
      <point x="324" y="488" type="line"/>
      <point x="288" y="529"/>
      <point x="246" y="553"/>
      <point x="180" y="553" type="curve" smooth="yes"/>
      <point x="92" y="553"/>
      <point x="39" y="492"/>
      <point x="39" y="407" type="curve" smooth="yes"/>
      <point x="39" y="334"/>
      <point x="69" y="284"/>
      <point x="151" y="212" type="curve" smooth="yes"/>
      <point x="178" y="188"/>
      <point x="197" y="162"/>
      <point x="197" y="136" type="curve" smooth="yes"/>
      <point x="197" y="115"/>
      <point x="186" y="104"/>
      <point x="170" y="104" type="curve" smooth="yes"/>
      <point x="141" y="104"/>
      <point x="123" y="126"/>
      <point x="99" y="149" type="curve"/>
      <point x="28" y="74" type="line"/>
      <point x="77" y="10"/>
      <point x="124" y="-11"/>
    </contour>
  </outline>
</glyph>
<glyph name="nna_epk" format="2">
  <advance width="1053"/>
  <unicode hex="106E"/>
  <note>
nna_epk
</note>
  <outline>
    <contour>
      <point x="148" y="-10" type="curve"/>
      <point x="211" y="92" type="line"/>
      <point x="175" y="141"/>
      <point x="167" y="196"/>
      <point x="167" y="267" type="curve" smooth="yes"/>
      <point x="167" y="374"/>
      <point x="196" y="443"/>
      <point x="262" y="443" type="curve" smooth="yes"/>
      <point x="328" y="443"/>
      <point x="358" y="375"/>
      <point x="358" y="267" type="curve" smooth="yes"/>
      <point x="358" y="197"/>
      <point x="346" y="137"/>
      <point x="300" y="92" type="curve"/>
      <point x="363" y="-10" type="line"/>
      <point x="439" y="43"/>
      <point x="475" y="139"/>
      <point x="475" y="268" type="curve" smooth="yes"/>
      <point x="475" y="436"/>
      <point x="400" y="553"/>
      <point x="257" y="553" type="curve" smooth="yes"/>
      <point x="112" y="553"/>
      <point x="35" y="437"/>
      <point x="35" y="268" type="curve" smooth="yes"/>
      <point x="35" y="138"/>
      <point x="82" y="39"/>
    </contour>
    <contour>
      <point x="579" y="-10" type="line"/>
      <point x="655" y="43"/>
      <point x="691" y="139"/>
      <point x="691" y="268" type="curve" smooth="yes"/>
      <point x="691" y="436"/>
      <point x="616" y="553"/>
      <point x="473" y="553" type="curve" smooth="yes"/>
      <point x="395" y="553"/>
      <point x="355" y="512"/>
      <point x="335" y="492" type="curve"/>
      <point x="408" y="402" type="line"/>
      <point x="424" y="427"/>
      <point x="444" y="443"/>
      <point x="478" y="443" type="curve" smooth="yes"/>
      <point x="544" y="443"/>
      <point x="574" y="375"/>
      <point x="574" y="267" type="curve" smooth="yes"/>
      <point x="574" y="197"/>
      <point x="562" y="137"/>
      <point x="516" y="92" type="curve"/>
    </contour>
    <contour>
      <point x="818" y="-10" type="curve" smooth="yes"/>
      <point x="928" y="-10"/>
      <point x="1018" y="105"/>
      <point x="1018" y="271" type="curve" smooth="yes"/>
      <point x="1018" y="434"/>
      <point x="933" y="553"/>
      <point x="790" y="553" type="curve" smooth="yes"/>
      <point x="726" y="553"/>
      <point x="666" y="516"/>
      <point x="629" y="442" type="curve"/>
      <point x="685" y="327" type="line"/>
      <point x="694" y="393"/>
      <point x="725" y="443"/>
      <point x="782" y="443" type="curve" smooth="yes"/>
      <point x="854" y="443"/>
      <point x="886" y="376"/>
      <point x="886" y="271" type="curve" smooth="yes"/>
      <point x="886" y="167"/>
      <point x="856" y="100"/>
      <point x="807" y="100" type="curve" smooth="yes"/>
      <point x="790" y="100"/>
      <point x="767" y="105"/>
      <point x="754" y="117" type="curve"/>
      <point x="711" y="20" type="line"/>
      <point x="736" y="-1"/>
      <point x="786" y="-10"/>
    </contour>
  </outline>
</glyph>
<glyph name="ywa_epk" format="2">
  <advance width="841"/>
  <unicode hex="106F"/>
  <note>
ywa_epk
</note>
  <outline>
    <contour>
      <point x="261" y="-10" type="curve" smooth="yes"/>
      <point x="403" y="-10"/>
      <point x="479" y="106"/>
      <point x="479" y="275" type="curve" smooth="yes"/>
      <point x="479" y="402"/>
      <point x="433" y="502"/>
      <point x="363" y="553" type="curve"/>
      <point x="300" y="451" type="line"/>
      <point x="346" y="402"/>
      <point x="357" y="345"/>
      <point x="357" y="275" type="curve" smooth="yes"/>
      <point x="357" y="168"/>
      <point x="331" y="100"/>
      <point x="265" y="100" type="curve" smooth="yes"/>
      <point x="201" y="100"/>
      <point x="167" y="160"/>
      <point x="167" y="275" type="curve" smooth="yes"/>
      <point x="167" y="347"/>
      <point x="174" y="402"/>
      <point x="212" y="451" type="curve"/>
      <point x="148" y="553" type="line"/>
      <point x="79" y="501"/>
      <point x="35" y="403"/>
      <point x="35" y="275" type="curve" smooth="yes"/>
      <point x="35" y="106"/>
      <point x="115" y="-10"/>
    </contour>
    <contour>
      <point x="476" y="-466" type="line"/>
      <point x="686" y="-466" type="line"/>
      <point x="686" y="22" type="line"/>
      <point x="554" y="8" type="line"/>
      <point x="554" y="-356" type="line"/>
      <point x="476" y="-356" type="line"/>
    </contour>
    <contour>
      <point x="603" y="-10" type="curve" smooth="yes"/>
      <point x="741" y="-10"/>
      <point x="806" y="105"/>
      <point x="806" y="272" type="curve" smooth="yes"/>
      <point x="806" y="436"/>
      <point x="717" y="553"/>
      <point x="586" y="553" type="curve" smooth="yes"/>
      <point x="499" y="553"/>
      <point x="446" y="510"/>
      <point x="396" y="447" type="curve"/>
      <point x="449" y="334" type="line"/>
      <point x="488" y="402"/>
      <point x="525" y="443"/>
      <point x="580" y="443" type="curve" smooth="yes"/>
      <point x="639" y="443"/>
      <point x="674" y="372"/>
      <point x="674" y="271" type="curve" smooth="yes"/>
      <point x="674" y="168"/>
      <point x="643" y="100"/>
      <point x="596" y="100" type="curve" smooth="yes"/>
      <point x="576" y="100"/>
      <point x="560" y="104"/>
      <point x="544" y="117" type="curve"/>
      <point x="502" y="20" type="line"/>
      <point x="527" y="2"/>
      <point x="553" y="-10"/>
    </contour>
  </outline>
</glyph>
<glyph name="i_gkn" format="2">
  <unicode hex="1071"/>
  <note>
i_gkn
</note>
  <outline>
    <contour>
      <point x="-150" y="692" type="curve" smooth="yes"/>
      <point x="-90" y="692"/>
      <point x="-48" y="733"/>
      <point x="-48" y="808" type="curve" smooth="yes"/>
      <point x="-48" y="875"/>
      <point x="-88" y="921"/>
      <point x="-150" y="921" type="curve" smooth="yes"/>
      <point x="-213" y="921"/>
      <point x="-251" y="878"/>
      <point x="-251" y="807" type="curve" smooth="yes"/>
      <point x="-251" y="733"/>
      <point x="-210" y="692"/>
    </contour>
    <contour>
      <point x="-150" y="761" type="curve" smooth="yes"/>
      <point x="-169" y="761"/>
      <point x="-179" y="779"/>
      <point x="-179" y="807" type="curve" smooth="yes"/>
      <point x="-179" y="836"/>
      <point x="-170" y="851"/>
      <point x="-150" y="851" type="curve" smooth="yes"/>
      <point x="-133" y="851"/>
      <point x="-121" y="836"/>
      <point x="-121" y="807" type="curve" smooth="yes"/>
      <point x="-121" y="779"/>
      <point x="-133" y="761"/>
    </contour>
    <contour>
      <point x="-430" y="692" type="curve" smooth="yes"/>
      <point x="-370" y="692"/>
      <point x="-328" y="733"/>
      <point x="-328" y="808" type="curve" smooth="yes"/>
      <point x="-328" y="875"/>
      <point x="-368" y="921"/>
      <point x="-430" y="921" type="curve" smooth="yes"/>
      <point x="-493" y="921"/>
      <point x="-531" y="878"/>
      <point x="-531" y="807" type="curve" smooth="yes"/>
      <point x="-531" y="733"/>
      <point x="-490" y="692"/>
    </contour>
    <contour>
      <point x="-430" y="761" type="curve" smooth="yes"/>
      <point x="-449" y="761"/>
      <point x="-459" y="779"/>
      <point x="-459" y="807" type="curve" smooth="yes"/>
      <point x="-459" y="836"/>
      <point x="-450" y="851"/>
      <point x="-430" y="851" type="curve" smooth="yes"/>
      <point x="-413" y="851"/>
      <point x="-401" y="836"/>
      <point x="-401" y="807" type="curve" smooth="yes"/>
      <point x="-401" y="779"/>
      <point x="-413" y="761"/>
    </contour>
  </outline>
</glyph>
<glyph name="oe_kyh" format="2">
  <unicode hex="1072"/>
  <note>
oe_kyh
</note>
  <outline>
    <contour>
      <point x="-230" y="625" type="curve" smooth="yes"/>
      <point x="-161" y="625"/>
      <point x="-115" y="666"/>
      <point x="-93" y="721" type="curve"/>
      <point x="-175" y="766" type="line"/>
      <point x="-184" y="746"/>
      <point x="-202" y="722"/>
      <point x="-227" y="722" type="curve" smooth="yes"/>
      <point x="-263" y="722"/>
      <point x="-280" y="763"/>
      <point x="-280" y="816" type="curve" smooth="yes"/>
      <point x="-280" y="868"/>
      <point x="-262" y="910"/>
      <point x="-227" y="910" type="curve" smooth="yes"/>
      <point x="-206" y="910"/>
      <point x="-191" y="900"/>
      <point x="-175" y="862" type="curve"/>
      <point x="-101" y="911" type="line"/>
      <point x="-125" y="969"/>
      <point x="-170" y="1005"/>
      <point x="-231" y="1005" type="curve" smooth="yes"/>
      <point x="-319" y="1005"/>
      <point x="-380" y="926"/>
      <point x="-380" y="815" type="curve" smooth="yes"/>
      <point x="-380" y="702"/>
      <point x="-330" y="625"/>
    </contour>
  </outline>
</glyph>
<glyph name="u_kyh" format="2">
  <unicode hex="1073"/>
  <note>
u_kyh
</note>
  <outline>
    <contour>
      <point x="-371" y="625" type="line"/>
      <point x="-215" y="821" type="line"/>
      <point x="-61" y="625" type="line"/>
      <point x="1" y="699" type="line"/>
      <point x="-215" y="973" type="line"/>
      <point x="-432" y="699" type="line"/>
    </contour>
  </outline>
</glyph>
<glyph name="ee_kyh" format="2">
  <unicode hex="1074"/>
  <note>
ee_kyh
</note>
  <outline>
    <contour>
      <point x="-215" y="625" type="line"/>
      <point x="1" y="899" type="line"/>
      <point x="-61" y="973" type="line"/>
      <point x="-215" y="777" type="line"/>
      <point x="-371" y="973" type="line"/>
      <point x="-432" y="899" type="line"/>
    </contour>
  </outline>
</glyph>
<glyph name="ka_shn" format="2">
  <advance width="529"/>
  <unicode hex="1075"/>
  <note>
ka_shn
</note>
  <outline>
    <contour>
      <point x="144" y="-10" type="curve" smooth="yes"/>
      <point x="220" y="-10"/>
      <point x="261" y="43"/>
      <point x="261" y="109" type="curve" smooth="yes"/>
      <point x="261" y="161"/>
      <point x="233" y="194"/>
      <point x="202" y="238" type="curve" smooth="yes"/>
      <point x="173" y="280"/>
      <point x="167" y="313"/>
      <point x="167" y="347" type="curve" smooth="yes"/>
      <point x="167" y="407"/>
      <point x="203" y="443"/>
      <point x="259" y="443" type="curve" smooth="yes"/>
      <point x="334" y="443"/>
      <point x="362" y="375"/>
      <point x="362" y="268" type="curve" smooth="yes"/>
      <point x="362" y="198"/>
      <point x="353" y="141"/>
      <point x="315" y="92" type="curve"/>
      <point x="378" y="-10" type="line"/>
      <point x="448" y="41"/>
      <point x="494" y="141"/>
      <point x="494" y="268" type="curve" smooth="yes"/>
      <point x="494" y="437"/>
      <point x="419" y="553"/>
      <point x="261" y="553" type="curve" smooth="yes"/>
      <point x="122" y="553"/>
      <point x="35" y="473"/>
      <point x="35" y="352" type="curve" smooth="yes"/>
      <point x="35" y="291"/>
      <point x="58" y="237"/>
      <point x="95" y="193" type="curve" smooth="yes"/>
      <point x="124" y="158"/>
      <point x="147" y="148"/>
      <point x="147" y="125" type="curve" smooth="yes"/>
      <point x="147" y="110"/>
      <point x="137" y="100"/>
      <point x="123" y="100" type="curve" smooth="yes"/>
      <point x="101" y="100"/>
      <point x="84" y="114"/>
      <point x="70" y="134" type="curve"/>
      <point x="18" y="66" type="line"/>
      <point x="45" y="14"/>
      <point x="96" y="-10"/>
    </contour>
  </outline>
</glyph>
<glyph name="kha_shn" format="2">
  <advance width="533"/>
  <unicode hex="1076"/>
  <note>
kha_shn
</note>
  <outline>
    <contour>
      <point x="271" y="-10" type="curve" smooth="yes"/>
      <point x="403" y="-10"/>
      <point x="498" y="100"/>
      <point x="498" y="272" type="curve" smooth="yes"/>
      <point x="498" y="432"/>
      <point x="437" y="552"/>
      <point x="321" y="552" type="curve" smooth="yes"/>
      <point x="259" y="552"/>
      <point x="223" y="521"/>
      <point x="192" y="468" type="curve" smooth="yes"/>
      <point x="174" y="438"/>
      <point x="162" y="424"/>
      <point x="147" y="424" type="curve" smooth="yes"/>
      <point x="134" y="424"/>
      <point x="128" y="433"/>
      <point x="128" y="451" type="curve" smooth="yes"/>
      <point x="128" y="465"/>
      <point x="132" y="479"/>
      <point x="142" y="494" type="curve"/>
      <point x="75" y="551" type="line"/>
      <point x="51" y="519"/>
      <point x="35" y="481"/>
      <point x="35" y="443" type="curve" smooth="yes"/>
      <point x="35" y="373"/>
      <point x="76" y="330"/>
      <point x="134" y="330" type="curve" smooth="yes"/>
      <point x="175" y="330"/>
      <point x="212" y="348"/>
      <point x="238" y="389" type="curve" smooth="yes"/>
      <point x="257" y="418"/>
      <point x="270" y="444"/>
      <point x="298" y="444" type="curve" smooth="yes"/>
      <point x="343" y="444"/>
      <point x="369" y="375"/>
      <point x="369" y="272" type="curve" smooth="yes"/>
      <point x="369" y="168"/>
      <point x="349" y="96"/>
      <point x="265" y="96" type="curve" smooth="yes"/>
      <point x="222" y="96"/>
      <point x="177" y="121"/>
      <point x="164" y="159" type="curve"/>
      <point x="198" y="182"/>
      <point x="232" y="196"/>
      <point x="262" y="196" type="curve" smooth="yes"/>
      <point x="303" y="196"/>
      <point x="340" y="179"/>
      <point x="377" y="145" type="curve"/>
      <point x="393" y="228" type="line"/>
      <point x="341" y="271"/>
      <point x="300" y="286"/>
      <point x="253" y="286" type="curve" smooth="yes"/>
      <point x="170" y="286"/>
      <point x="104" y="257"/>
      <point x="42" y="206" type="curve"/>
      <point x="54" y="73"/>
      <point x="145" y="-10"/>
    </contour>
  </outline>
</glyph>
<glyph name="ga_shn" format="2">
  <advance width="538"/>
  <unicode hex="1077"/>
  <note>
ga_shn
</note>
  <outline>
    <contour>
      <point x="134" y="-10" type="curve" smooth="yes"/>
      <point x="204" y="-10"/>
      <point x="241" y="43"/>
      <point x="241" y="109" type="curve" smooth="yes"/>
      <point x="241" y="161"/>
      <point x="222" y="203"/>
      <point x="201" y="240" type="curve" smooth="yes"/>
      <point x="173" y="289"/>
      <point x="167" y="313"/>
      <point x="167" y="347" type="curve" smooth="yes"/>
      <point x="167" y="407"/>
      <point x="207" y="443"/>
      <point x="273" y="443" type="curve" smooth="yes"/>
      <point x="350" y="443"/>
      <point x="399" y="365"/>
      <point x="399" y="265" type="curve" smooth="yes"/>
      <point x="399" y="210"/>
      <point x="395" y="165"/>
      <point x="368" y="124" type="curve"/>
      <point x="354" y="161"/>
      <point x="346" y="202"/>
      <point x="346" y="257" type="curve" smooth="yes"/>
      <point x="346" y="309"/>
      <point x="356" y="364"/>
      <point x="372" y="412" type="curve"/>
      <point x="308" y="454" type="line"/>
      <point x="284" y="395"/>
      <point x="277" y="330"/>
      <point x="277" y="258" type="curve" smooth="yes"/>
      <point x="277" y="153"/>
      <point x="311" y="69"/>
      <point x="358" y="-10" type="curve"/>
      <point x="446" y="39"/>
      <point x="503" y="144"/>
      <point x="503" y="268" type="curve" smooth="yes"/>
      <point x="503" y="438"/>
      <point x="418" y="553"/>
      <point x="258" y="553" type="curve" smooth="yes"/>
      <point x="115" y="553"/>
      <point x="35" y="471"/>
      <point x="35" y="352" type="curve" smooth="yes"/>
      <point x="35" y="291"/>
      <point x="58" y="237"/>
      <point x="92" y="192" type="curve" smooth="yes"/>
      <point x="118" y="158"/>
      <point x="137" y="148"/>
      <point x="137" y="125" type="curve" smooth="yes"/>
      <point x="137" y="110"/>
      <point x="127" y="100"/>
      <point x="113" y="100" type="curve" smooth="yes"/>
      <point x="95" y="100"/>
      <point x="81" y="114"/>
      <point x="70" y="134" type="curve"/>
      <point x="18" y="66" type="line"/>
      <point x="43" y="14"/>
      <point x="90" y="-10"/>
    </contour>
  </outline>
</glyph>
<glyph name="za_shn" format="2">
  <advance width="836"/>
  <unicode hex="1079"/>
  <note>
za_shn
</note>
  <outline>
    <contour>
      <point x="252" y="-10" type="curve" smooth="yes"/>
      <point x="298" y="-10"/>
      <point x="325" y="4"/>
      <point x="348" y="13" type="curve"/>
      <point x="345" y="207"/>
      <point x="280" y="321"/>
      <point x="136" y="344" type="curve"/>
      <point x="121" y="261" type="line"/>
      <point x="211" y="256"/>
      <point x="244" y="179"/>
      <point x="258" y="63" type="curve"/>
      <point x="288" y="95" type="line"/>
      <point x="275" y="94"/>
      <point x="259" y="94"/>
      <point x="248" y="94" type="curve" smooth="yes"/>
      <point x="193" y="94"/>
      <point x="159" y="165"/>
      <point x="159" y="266" type="curve" smooth="yes"/>
      <point x="159" y="366"/>
      <point x="196" y="442"/>
      <point x="264" y="442" type="curve" smooth="yes"/>
      <point x="334" y="442"/>
      <point x="365" y="395"/>
      <point x="379" y="327" type="curve"/>
      <point x="423" y="444" type="line"/>
      <point x="398" y="506"/>
      <point x="344" y="553"/>
      <point x="255" y="553" type="curve" smooth="yes"/>
      <point x="108" y="553"/>
      <point x="35" y="427"/>
      <point x="35" y="271" type="curve" smooth="yes"/>
      <point x="35" y="92"/>
      <point x="124" y="-10"/>
    </contour>
    <contour>
      <point x="582" y="-10" type="curve" smooth="yes"/>
      <point x="703" y="-10"/>
      <point x="801" y="106"/>
      <point x="801" y="271" type="curve" smooth="yes"/>
      <point x="801" y="436"/>
      <point x="723" y="553"/>
      <point x="570" y="553" type="curve" smooth="yes"/>
      <point x="423" y="553"/>
      <point x="365" y="430"/>
      <point x="365" y="270" type="curve" smooth="yes"/>
      <point x="365" y="105"/>
      <point x="435" y="-10"/>
    </contour>
    <contour>
      <point x="576" y="100" type="curve" smooth="yes"/>
      <point x="513" y="100"/>
      <point x="481" y="169"/>
      <point x="481" y="269" type="curve" smooth="yes"/>
      <point x="481" y="375"/>
      <point x="507" y="443"/>
      <point x="571" y="443" type="curve" smooth="yes"/>
      <point x="635" y="443"/>
      <point x="669" y="374"/>
      <point x="669" y="271" type="curve" smooth="yes"/>
      <point x="669" y="169"/>
      <point x="631" y="100"/>
    </contour>
  </outline>
</glyph>
<glyph name="da_shn" format="2">
  <advance width="836"/>
  <unicode hex="107B"/>
  <note>
da_shn
</note>
  <outline>
    <contour>
      <point x="584" y="-10" type="curve" smooth="yes"/>
      <point x="712" y="-10"/>
      <point x="801" y="92"/>
      <point x="801" y="271" type="curve" smooth="yes"/>
      <point x="801" y="427"/>
      <point x="728" y="553"/>
      <point x="581" y="553" type="curve" smooth="yes"/>
      <point x="492" y="553"/>
      <point x="438" y="506"/>
      <point x="413" y="444" type="curve"/>
      <point x="457" y="327" type="line"/>
      <point x="471" y="395"/>
      <point x="502" y="442"/>
      <point x="572" y="442" type="curve" smooth="yes"/>
      <point x="640" y="442"/>
      <point x="677" y="366"/>
      <point x="677" y="266" type="curve" smooth="yes"/>
      <point x="677" y="165"/>
      <point x="639" y="94"/>
      <point x="577" y="94" type="curve" smooth="yes"/>
      <point x="569" y="94"/>
      <point x="557" y="94"/>
      <point x="548" y="95" type="curve"/>
      <point x="578" y="63" type="line"/>
      <point x="592" y="179"/>
      <point x="625" y="256"/>
      <point x="715" y="261" type="curve"/>
      <point x="700" y="344" type="line"/>
      <point x="556" y="321"/>
      <point x="491" y="207"/>
      <point x="488" y="13" type="curve"/>
      <point x="511" y="4"/>
      <point x="538" y="-10"/>
    </contour>
    <contour>
      <point x="254" y="-10" type="curve" smooth="yes"/>
      <point x="401" y="-10"/>
      <point x="471" y="105"/>
      <point x="471" y="270" type="curve" smooth="yes"/>
      <point x="471" y="430"/>
      <point x="413" y="553"/>
      <point x="266" y="553" type="curve" smooth="yes"/>
      <point x="113" y="553"/>
      <point x="35" y="436"/>
      <point x="35" y="271" type="curve" smooth="yes"/>
      <point x="35" y="106"/>
      <point x="133" y="-10"/>
    </contour>
    <contour>
      <point x="260" y="100" type="curve" smooth="yes"/>
      <point x="205" y="100"/>
      <point x="167" y="169"/>
      <point x="167" y="271" type="curve" smooth="yes"/>
      <point x="167" y="374"/>
      <point x="201" y="443"/>
      <point x="265" y="443" type="curve" smooth="yes"/>
      <point x="329" y="443"/>
      <point x="355" y="375"/>
      <point x="355" y="269" type="curve" smooth="yes"/>
      <point x="355" y="169"/>
      <point x="323" y="100"/>
    </contour>
  </outline>
</glyph>
